{
  "accessors": [
    {
      "bufferView": 2,
      "componentType": 5126,
      "count": 6842,
      "max": [
        8.6875190734863281,
        8.290226936340332,
        20.912502288818359
      ],
      "min": [
        -8.6919536590576172,
        -3.2783746719360352,
        -15.184446334838867
      ],
      "type": "VEC3"
    },
    {
      "bufferView": 2,
      "byteOffset": 82104,
      "componentType": 5126,
      "count": 6842,
      "max": [
        0.99999028444290161,
        1,
        0.99999022483825684
      ],
      "min": [
        -0.99999022483825684,
        -1,
        -0.99999022483825684
      ],
      "type": "VEC3"
    },
    {
      "bufferView": 1,
      "componentType": 5126,
      "count": 6842,
      "max": [
        0.99663174152374268,
        0.98711740970611572
      ],
      "min": [
        0.028210099786520004,
        0.0075103044509887695
      ],
      "type": "VEC2"
    },
    {
      "bufferView": 0,
      "componentType": 5125,
      "count": 9489,
      "max": [
        6841
      ],
      "min": [
        0
      ],
      "type": "SCALAR"
    },
    {
      "bufferView": 2,
      "byteOffset": 164208,
      "componentType": 5126,
      "count": 8,
      "max": [
        7.4642906188964844,
        0.74655866622924805,
        19.102638244628906
      ],
      "min": [
        -7.2903251647949219,
        -0.13307046890258789,
        17.184055328369141
      ],
      "type": "VEC3"
    },
    {
      "bufferView": 2,
      "byteOffset": 164304,
      "componentType": 5126,
      "count": 8,
      "max": [
        0.43985098600387573,
        0.41613331437110901,
        0.79970580339431763
      ],
      "min": [
        -0.43278595805168152,
        0.41613292694091797,
        0.79584217071533203
      ],
      "type": "VEC3"
    },
    {
      "bufferView": 1,
      "byteOffset": 54736,
      "componentType": 5126,
      "count": 8,
      "max": [
        0.57533854246139526,
        0.27023434638977051
      ],
      "min": [
        0.38170623779296875,
        0.24577218294143677
      ],
      "type": "VEC2"
    },
    {
      "bufferView": 0,
      "byteOffset": 37956,
      "componentType": 5125,
      "count": 12,
      "max": [
        7
      ],
      "min": [
        0
      ],
      "type": "SCALAR"
    },
    {
      "bufferView": 2,
      "byteOffset": 164400,
      "componentType": 5126,
      "count": 12,
      "max": [
        7.1534194946289062,
        0.74692344665527344,
        -13.682992935180664
      ],
      "min": [
        -7.2556591033935547,
        -0.12086391448974609,
        -14.401575088500977
      ],
      "type": "VEC3"
    },
    {
      "bufferView": 2,
      "byteOffset": 164544,
      "componentType": 5126,
      "count": 12,
      "max": [
        0.2401253879070282,
        1.6120968666655244e-06,
        -0.96857750415802002
      ],
      "min": [
        -0.24871215224266052,
        0,
        -0.97074192762374878
      ],
      "type": "VEC3"
    },
    {
      "bufferView": 1,
      "byteOffset": 54800,
      "componentType": 5126,
      "count": 12,
      "max": [
        0.57945364713668823,
        0.12370079755783081
      ],
      "min": [
        0.41961163282394409,
        0.11135947704315186
      ],
      "type": "VEC2"
    },
    {
      "bufferView": 0,
      "byteOffset": 38004,
      "componentType": 5125,
      "count": 24,
      "max": [
        11
      ],
      "min": [
        0
      ],
      "type": "SCALAR"
    },
    {
      "bufferView": 2,
      "byteOffset": 164688,
      "componentType": 5126,
      "count": 600,
      "max": [
        1.152226448059082,
        2.4183981418609619,
        2.4208984375
      ],
      "min": [
        -0.77461147308349609,
        -2.4183986186981201,
        -2.4225654602050781
      ],
      "type": "VEC3"
    },
    {
      "bufferView": 2,
      "byteOffset": 171888,
      "componentType": 5126,
      "count": 600,
      "max": [
        0.99999028444290161,
        0.98768842220306396,
        0.98767882585525513
      ],
      "min": [
        -0.99999028444290161,
        -0.98768848180770874,
        -0.98767858743667603
      ],
      "type": "VEC3"
    },
    {
      "bufferView": 1,
      "byteOffset": 54896,
      "componentType": 5126,
      "count": 600,
      "max": [
        0.2029590904712677,
        0.15824991464614868
      ],
      "min": [
        0.025988925248384476,
        0.012044668197631836
      ],
      "type": "VEC2"
    },
    {
      "bufferView": 0,
      "byteOffset": 38100,
      "componentType": 5125,
      "count": 948,
      "max": [
        599
      ],
      "min": [
        0
      ],
      "type": "SCALAR"
    },
    {
      "bufferView": 2,
      "byteOffset": 179088,
      "componentType": 5126,
      "count": 600,
      "max": [
        1.1522245407104492,
        2.4183981418609619,
        2.4208974838256836
      ],
      "min": [
        -0.77461528778076172,
        -2.4183986186981201,
        -2.4225664138793945
      ],
      "type": "VEC3"
    },
    {
      "bufferView": 2,
      "byteOffset": 186288,
      "componentType": 5126,
      "count": 600,
      "max": [
        0.99999022483825684,
        0.98768848180770874,
        0.9876786470413208
      ],
      "min": [
        -0.99999028444290161,
        -0.98768848180770874,
        -0.98767882585525513
      ],
      "type": "VEC3"
    },
    {
      "bufferView": 1,
      "byteOffset": 59696,
      "componentType": 5126,
      "count": 600,
      "max": [
        0.20317929983139038,
        0.15722876787185669
      ],
      "min": [
        0.025390911847352982,
        0.014128208160400391
      ],
      "type": "VEC2"
    },
    {
      "bufferView": 0,
      "byteOffset": 41892,
      "componentType": 5125,
      "count": 948,
      "max": [
        599
      ],
      "min": [
        0
      ],
      "type": "SCALAR"
    },
    {
      "bufferView": 2,
      "byteOffset": 193488,
      "componentType": 5126,
      "count": 600,
      "max": [
        0.77461099624633789,
        2.4183981418609619,
        2.4225683212280273
      ],
      "min": [
        -1.1522250175476074,
        -2.4183986186981201,
        -2.420893669128418
      ],
      "type": "VEC3"
    },
    {
      "bufferView": 2,
      "byteOffset": 200688,
      "componentType": 5126,
      "count": 600,
      "max": [
        0.99999028444290161,
        0.98768848180770874,
        0.98767852783203125
      ],
      "min": [
        -0.99999022483825684,
        -0.98768836259841919,
        -0.98767858743667603
      ],
      "type": "VEC3"
    },
    {
      "bufferView": 1,
      "byteOffset": 64496,
      "componentType": 5126,
      "count": 600,
      "max": [
        0.2029779851436615,
        0.15638530254364014
      ],
      "min": [
        0.025400150567293167,
        0.014368057250976562
      ],
      "type": "VEC2"
    },
    {
      "bufferView": 0,
      "byteOffset": 45684,
      "componentType": 5125,
      "count": 948,
      "max": [
        599
      ],
      "min": [
        0
      ],
      "type": "SCALAR"
    },
    {
      "bufferView": 2,
      "byteOffset": 207888,
      "componentType": 5126,
      "count": 600,
      "max": [
        0.77461671829223633,
        2.4183981418609619,
        2.4225692749023438
      ],
      "min": [
        -1.1522212028503418,
        -2.4183986186981201,
        -2.4208908081054688
      ],
      "type": "VEC3"
    },
    {
      "bufferView": 2,
      "byteOffset": 215088,
      "componentType": 5126,
      "count": 600,
      "max": [
        0.99999028444290161,
        0.98768848180770874,
        0.98767858743667603
      ],
      "min": [
        -0.99999022483825684,
        -0.98768842220306396,
        -0.98767900466918945
      ],
      "type": "VEC3"
    },
    {
      "bufferView": 1,
      "byteOffset": 69296,
      "componentType": 5126,
      "count": 600,
      "max": [
        0.20244154334068298,
        0.15649431943893433
      ],
      "min": [
        0.025977041572332382,
        0.014173746109008789
      ],
      "type": "VEC2"
    },
    {
      "bufferView": 0,
      "byteOffset": 49476,
      "componentType": 5125,
      "count": 948,
      "max": [
        599
      ],
      "min": [
        0
      ],
      "type": "SCALAR"
    },
    {
      "bufferView": 2,
      "byteOffset": 222288,
      "componentType": 5126,
      "count": 52,
      "max": [
        4.5069198608398438,
        9.1634740829467773,
        4.5766010284423828
      ],
      "min": [
        -4.4522247314453125,
        8.2902240753173828,
        3.4337368011474609
      ],
      "type": "VEC3"
    },
    {
      "bufferView": 2,
      "byteOffset": 222912,
      "componentType": 5126,
      "count": 52,
      "max": [
        0.84817302227020264,
        1,
        0.99999022483825684
      ],
      "min": [
        -0.84817272424697876,
        -1.2852721056333394e-06,
        -0.99999022483825684
      ],
      "type": "VEC3"
    },
    {
      "bufferView": 1,
      "byteOffset": 74096,
      "componentType": 5126,
      "count": 52,
      "max": [
        0.20732226967811584,
        0.33005636930465698
      ],
      "min": [
        0.032994445413351059,
        0.21866929531097412
      ],
      "type": "VEC2"
    },
    {
      "bufferView": 0,
      "byteOffset": 53268,
      "componentType": 5125,
      "count": 78,
      "max": [
        51
      ],
      "min": [
        0
      ],
      "type": "SCALAR"
    }
  ],
  "asset": {
    "extras": {
      "author": "Bongblender (https://sketchfab.com/Bongblender)",
      "license": "CC-BY-4.0 (http://creativecommons.org/licenses/by/4.0/)",
      "source": "https://sketchfab.com/3d-models/low-poly-police-van-car-15054c624ab34530a6e7422af81123ce",
      "title": "low poly police van / car"
    },
    "generator": "Sketchfab-8.61.0",
    "version": "2.0"
  },
  "bufferViews": [
    {
      "buffer": 0,
      "byteLength": 53580,
      "byteOffset": 0,
      "name": "floatBufferViews",
      "target": 34963
    },
    {
      "buffer": 0,
      "byteLength": 74512,
      "byteOffset": 53580,
      "byteStride": 8,
      "name": "floatBufferViews",
      "target": 34962
    },
    {
      "buffer": 0,
      "byteLength": 223536,
      "byteOffset": 128092,
      "byteStride": 12,
      "name": "floatBufferViews",
      "target": 34962
    }
  ],
  "buffers": [
    {
      "byteLength": 351628,
      "uri": "scene.bin"
    }
  ],
  "images": [
    {
      "uri": "textures/Material.011_baseColor.png"
    }
  ],
  "materials": [
    {
      "doubleSided": true,
      "emissiveFactor": [
        0,
        0,
        0
      ],
      "name": "Material.011",
      "pbrMetallicRoughness": {
        "baseColorFactor": [
          1,
          1,
          1,
          1
        ],
        "baseColorTexture": {
          "index": 0,
          "texCoord": 0
        },
        "metallicFactor": 0,
        "roughnessFactor": 0.186364
      }
    },
    {
      "doubleSided": true,
      "emissiveFactor": [
        1,
        0.97154799999999997,
        0.34561500000000001
      ],
      "name": "front_light",
      "pbrMetallicRoughness": {
        "baseColorFactor": [
          0.80000000000000004,
          0.80000000000000004,
          0.80000000000000004,
          1
        ],
        "metallicFactor": 0,
        "roughnessFactor": 0.5
      }
    },
    {
      "doubleSided": true,
      "emissiveFactor": [
        1,
        0.024376999999999999,
        0.049283399999999998
      ],
      "name": "back_light",
      "pbrMetallicRoughness": {
        "baseColorFactor": [
          0.80000000000000004,
          0,
          0,
          1
        ],
        "metallicFactor": 0,
        "roughnessFactor": 0.5
      }
    },
    {
      "doubleSided": true,
      "emissiveFactor": [
        0,
        0,
        0.033107299999999999
      ],
      "name": "Material.012",
      "pbrMetallicRoughness": {
        "baseColorFactor": [
          1,
          1,
          1,
          1
        ],
        "baseColorTexture": {
          "index": 0,
          "texCoord": 0
        },
        "metallicFactor": 0,
        "roughnessFactor": 0.5
      }
    }
  ],
  "meshes": [
    {
      "primitives": [
        {
          "attributes": {
            "NORMAL": 1,
            "POSITION": 0,
            "TEXCOORD_0": 2
          },
          "indices": 3,
          "material": 0,
          "mode": 4
        }
      ]
    },
    {
      "primitives": [
        {
          "attributes": {
            "NORMAL": 5,
            "POSITION": 4,
            "TEXCOORD_0": 6
          },
          "indices": 7,
          "material": 1,
          "mode": 4
        }
      ]
    },
    {
      "primitives": [
        {
          "attributes": {
            "NORMAL": 9,
            "POSITION": 8,
            "TEXCOORD_0": 10
          },
          "indices": 11,
          "material": 2,
          "mode": 4
        }
      ]
    },
    {
      "primitives": [
        {
          "attributes": {
            "NORMAL": 13,
            "POSITION": 12,
            "TEXCOORD_0": 14
          },
          "indices": 15,
          "material": 0,
          "mode": 4
        }
      ]
    },
    {
      "primitives": [
        {
          "attributes": {
            "NORMAL": 17,
            "POSITION": 16,
            "TEXCOORD_0": 18
          },
          "indices": 19,
          "material": 0,
          "mode": 4
        }
      ]
    },
    {
      "primitives": [
        {
          "attributes": {
            "NORMAL": 21,
            "POSITION": 20,
            "TEXCOORD_0": 22
          },
          "indices": 23,
          "material": 0,
          "mode": 4
        }
      ]
    },
    {
      "primitives": [
        {
          "attributes": {
            "NORMAL": 25,
            "POSITION": 24,
            "TEXCOORD_0": 26
          },
          "indices": 27,
          "material": 0,
          "mode": 4
        }
      ]
    },
    {
      "primitives": [
        {
          "attributes": {
            "NORMAL": 29,
            "POSITION": 28,
            "TEXCOORD_0": 30
          },
          "indices": 31,
          "material": 3,
          "mode": 4
        }
      ]
    }
  ],
  "nodes": [
    {
      "children": [
        1
      ],
      "name": "RootNode (gltf orientation matrix)",
      "rotation": [
        -0.70710678118654746,
        -0,
        -0,
        0.70710678118654757
      ]
    },
    {
      "children": [
        2
      ],
      "name": "RootNode (model correction matrix)"
    },
    {
      "children": [
        3
      ],
      "name": "root"
    },
    {
      "children": [
        4
      ],
      "matrix": [
        1,
        0,
        0,
        0,
        0,
        2.2204460492503131e-16,
        1,
        0,
        0,
        -1,
        2.2204460492503131e-16,
        0,
        0,
        0,
        0,
        1
      ],
      "name": "GLTF_SceneRootNode"
    },
    {
      "children": [
        5,
        6,
        7,
        8,
        21
      ],
      "matrix": [
        1,
        0,
        0,
        0,
        0,
        1,
        0,
        0,
        0,
        0,
        1,
        0,
        -0.22497367858886719,
        5.2713851928710938,
        -0.83969688415527344,
        1
      ],
      "name": "CAR.003_28"
    },
    {
      "mesh": 0,
      "name": ""
    },
    {
      "mesh": 1,
      "name": ""
    },
    {
      "mesh": 2,
      "name": ""
    },
    {
      "children": [
        9,
        12,
        15,
        18
      ],
      "matrix": [
        -5.7397432327270508,
        -0,
        0,
        -0,
        0,
        -6.8960514068603516,
        0,
        -0,
        0,
        -0,
        -10.042243957519531,
        -0,
        -0.35172653198242188,
        6.6878938674926758,
        -2.0112476348876953,
        1
      ],
      "name": "car_driver_9"
    },
    {
      "children": [
        10
      ],
      "matrix": [
        -0.17422382533550262,
        -0,
        0,
        -0,
        0,
        -0.015688722558145515,
        0.099513502166049039,
        -0,
        -0,
        -0.14244543055190945,
        -0.022457121807204699,
        -0,
        1.3138247728347778,
        1.3781293630599976,
        0.79600858688354492,
        1
      ],
      "name": "Empty_1"
    },
    {
      "children": [
        11
      ],
      "matrix": [
        1,
        0,
        0,
        0,
        0,
        1,
        0,
        0,
        0,
        0,
        1,
        0,
        0,
        0,
        3.5762786865234375e-06,
        1
      ],
      "name": "tire4_0"
    },
    {
      "mesh": 3,
      "name": ""
    },
    {
      "children": [
        13
      ],
      "matrix": [
        -0.17422382533550262,
        -0,
        0,
        -0,
        0,
        -0.015688722558145515,
        0.099513502166049039,
        -0,
        -0,
        -0.14244543055190945,
        -0.022457121807204699,
        -0,
        1.2954180240631104,
        1.3781293630599976,
        -1.579758882522583,
        1
      ],
      "name": "Empty.001_3"
    },
    {
      "children": [
        14
      ],
      "name": "tire3_2"
    },
    {
      "mesh": 4,
      "name": ""
    },
    {
      "children": [
        16
      ],
      "matrix": [
        -0.17422382533550262,
        -0,
        0,
        -0,
        0,
        -0.015688722558145515,
        0.099513502166049039,
        -0,
        0,
        -0.14244543055190945,
        -0.022457121807204699,
        -0,
        -1.4541200399398804,
        1.3781293630599976,
        -1.5728012323379517,
        1
      ],
      "name": "Empty.002_5"
    },
    {
      "children": [
        17
      ],
      "name": "tire1_4"
    },
    {
      "mesh": 5,
      "name": ""
    },
    {
      "children": [
        19
      ],
      "matrix": [
        -0.17422382533550262,
        -0,
        0,
        -0,
        0,
        -0.015688722558145515,
        0.099513502166049039,
        -0,
        0,
        -0.14244543055190945,
        -0.022457121807204699,
        -0,
        -1.4357129335403442,
        1.3781293630599976,
        0.80296850204467773,
        1
      ],
      "name": "Empty.003_7"
    },
    {
      "children": [
        20
      ],
      "name": "tire2_6"
    },
    {
      "mesh": 6,
      "name": ""
    },
    {
      "children": [
        22
      ],
      "matrix": [
        1,
        0,
        0,
        0,
        0,
        1,
        0,
        0,
        0,
        0,
        1,
        0,
        -0.35172653198242188,
        7.6463298797607422,
        -3.4227962493896484,
        1
      ],
      "name": "car_light_27"
    },
    {
      "children": [
        23
      ],
      "matrix": [
        1,
        0,
        0,
        0,
        0,
        1,
        0,
        0,
        0,
        0,
        1,
        0,
        0.35172653198242188,
        -7.6463298797607422,
        3.4227962493896484,
        1
      ],
      "name": "CAR.002_10"
    },
    {
      "mesh": 7,
      "name": ""
    }
  ],
  "samplers": [
    {
      "magFilter": 9729,
      "minFilter": 9987,
      "wrapS": 10497,
      "wrapT": 10497
    }
  ],
  "scene": 0,
  "scenes": [
    {
      "name": "OSG_Scene",
      "nodes": [
        0
      ]
    }
  ],
  "textures": [
    {
      "sampler": 0,
      "source": 0
    }
  ]
}

