{
  "accessors": [
    {
      "bufferView": 2,
      "componentType": 5126,
      "count": 1281,
      "max": [
        0.21199999749660492,
        0.21199999749660492,
        0.080609157681465149
      ],
      "min": [
        -0.21199999749660492,
        -0.21199999749660492,
        -0.065932832658290863
      ],
      "type": "VEC3"
    },
    {
      "bufferView": 2,
      "byteOffset": 15372,
      "componentType": 5126,
      "count": 1281,
      "max": [
        0.99518477916717529,
        0.99518477916717529,
        1
      ],
      "min": [
        -0.99518483877182007,
        -0.99518477916717529,
        -1
      ],
      "type": "VEC3"
    },
    {
      "bufferView": 1,
      "componentType": 5126,
      "count": 1281,
      "max": [
        0.98606759309768677,
        0.49619054794311523
      ],
      "min": [
        0.83036500215530396,
        0.017436385154724121
      ],
      "type": "VEC2"
    },
    {
      "bufferView": 1,
      "byteOffset": 10248,
      "componentType": 5126,
      "count": 1281,
      "max": [
        0.98606759309768677,
        0.49619054794311523
      ],
      "min": [
        0.83036500215530396,
        0.017436385154724121
      ],
      "type": "VEC2"
    },
    {
      "bufferView": 0,
      "componentType": 5125,
      "count": 2106,
      "max": [
        1280
      ],
      "min": [
        0
      ],
      "type": "SCALAR"
    },
    {
      "bufferView": 2,
      "byteOffset": 30744,
      "componentType": 5126,
      "count": 1281,
      "max": [
        0.21199999749660492,
        0.21199999749660492,
        0.080609157681465149
      ],
      "min": [
        -0.21199999749660492,
        -0.21199999749660492,
        -0.065932832658290863
      ],
      "type": "VEC3"
    },
    {
      "bufferView": 2,
      "byteOffset": 46116,
      "componentType": 5126,
      "count": 1281,
      "max": [
        0.99518477916717529,
        0.99518477916717529,
        1
      ],
      "min": [
        -0.99518483877182007,
        -0.99518477916717529,
        -1
      ],
      "type": "VEC3"
    },
    {
      "bufferView": 1,
      "byteOffset": 20496,
      "componentType": 5126,
      "count": 1281,
      "max": [
        0.98606759309768677,
        0.49619054794311523
      ],
      "min": [
        0.83036500215530396,
        0.017436385154724121
      ],
      "type": "VEC2"
    },
    {
      "bufferView": 1,
      "byteOffset": 30744,
      "componentType": 5126,
      "count": 1281,
      "max": [
        0.98606759309768677,
        0.49619054794311523
      ],
      "min": [
        0.83036500215530396,
        0.017436385154724121
      ],
      "type": "VEC2"
    },
    {
      "bufferView": 0,
      "byteOffset": 8424,
      "componentType": 5125,
      "count": 2106,
      "max": [
        1280
      ],
      "min": [
        0
      ],
      "type": "SCALAR"
    },
    {
      "bufferView": 2,
      "byteOffset": 61488,
      "componentType": 5126,
      "count": 1281,
      "max": [
        0.21199999749660492,
        0.21199999749660492,
        0.080609157681465149
      ],
      "min": [
        -0.21199999749660492,
        -0.21199999749660492,
        -0.065932832658290863
      ],
      "type": "VEC3"
    },
    {
      "bufferView": 2,
      "byteOffset": 76860,
      "componentType": 5126,
      "count": 1281,
      "max": [
        0.99518477916717529,
        0.99518477916717529,
        1
      ],
      "min": [
        -0.99518483877182007,
        -0.99518477916717529,
        -1
      ],
      "type": "VEC3"
    },
    {
      "bufferView": 1,
      "byteOffset": 40992,
      "componentType": 5126,
      "count": 1281,
      "max": [
        0.98606759309768677,
        0.49619054794311523
      ],
      "min": [
        0.83036500215530396,
        0.017436385154724121
      ],
      "type": "VEC2"
    },
    {
      "bufferView": 1,
      "byteOffset": 51240,
      "componentType": 5126,
      "count": 1281,
      "max": [
        0.98606759309768677,
        0.49619054794311523
      ],
      "min": [
        0.83036500215530396,
        0.017436385154724121
      ],
      "type": "VEC2"
    },
    {
      "bufferView": 0,
      "byteOffset": 16848,
      "componentType": 5125,
      "count": 2106,
      "max": [
        1280
      ],
      "min": [
        0
      ],
      "type": "SCALAR"
    },
    {
      "bufferView": 2,
      "byteOffset": 92232,
      "componentType": 5126,
      "count": 3853,
      "max": [
        1.5578016042709351,
        0.70768529176712036,
        1.2601150274276733
      ],
      "min": [
        -1.5121792554855347,
        -0.70768529176712036,
        0.20598518848419189
      ],
      "type": "VEC3"
    },
    {
      "bufferView": 2,
      "byteOffset": 138468,
      "componentType": 5126,
      "count": 3853,
      "max": [
        1,
        1,
        1
      ],
      "min": [
        -1,
        -1,
        -1
      ],
      "type": "VEC3"
    },
    {
      "bufferView": 1,
      "byteOffset": 61488,
      "componentType": 5126,
      "count": 3853,
      "max": [
        0.99799525737762451,
        0.99593818187713623
      ],
      "min": [
        0.0010794103145599365,
        0.0068351030349731445
      ],
      "type": "VEC2"
    },
    {
      "bufferView": 1,
      "byteOffset": 92312,
      "componentType": 5126,
      "count": 3853,
      "max": [
        0.99799525737762451,
        0.99593818187713623
      ],
      "min": [
        0.0010794103145599365,
        0.0068351030349731445
      ],
      "type": "VEC2"
    },
    {
      "bufferView": 0,
      "byteOffset": 25272,
      "componentType": 5125,
      "count": 6366,
      "max": [
        3852
      ],
      "min": [
        0
      ],
      "type": "SCALAR"
    },
    {
      "bufferView": 2,
      "byteOffset": 184704,
      "componentType": 5126,
      "count": 1281,
      "max": [
        0.21199999749660492,
        0.21199999749660492,
        0.080609157681465149
      ],
      "min": [
        -0.21199999749660492,
        -0.21199999749660492,
        -0.065932832658290863
      ],
      "type": "VEC3"
    },
    {
      "bufferView": 2,
      "byteOffset": 200076,
      "componentType": 5126,
      "count": 1281,
      "max": [
        0.99518477916717529,
        0.99518477916717529,
        1
      ],
      "min": [
        -0.99518483877182007,
        -0.99518477916717529,
        -1
      ],
      "type": "VEC3"
    },
    {
      "bufferView": 1,
      "byteOffset": 123136,
      "componentType": 5126,
      "count": 1281,
      "max": [
        0.98606759309768677,
        0.49619054794311523
      ],
      "min": [
        0.83036500215530396,
        0.017436385154724121
      ],
      "type": "VEC2"
    },
    {
      "bufferView": 1,
      "byteOffset": 133384,
      "componentType": 5126,
      "count": 1281,
      "max": [
        0.98606759309768677,
        0.49619054794311523
      ],
      "min": [
        0.83036500215530396,
        0.017436385154724121
      ],
      "type": "VEC2"
    },
    {
      "bufferView": 0,
      "byteOffset": 50736,
      "componentType": 5125,
      "count": 2106,
      "max": [
        1280
      ],
      "min": [
        0
      ],
      "type": "SCALAR"
    }
  ],
  "asset": {
    "extras": {
      "author": "Render Bunny (https://sketchfab.com/renderbunny)",
      "license": "CC-BY-4.0 (http://creativecommons.org/licenses/by/4.0/)",
      "source": "https://sketchfab.com/3d-models/cartoon-low-poly-volkswagen-t3-uvw-0921bb6998d74a58bfeb35ae12660eb5",
      "title": "Cartoon Low Poly Volkswagen T3 UVW"
    },
    "generator": "Sketchfab-7.47.0",
    "version": "2.0"
  },
  "bufferViews": [
    {
      "buffer": 0,
      "byteLength": 59160,
      "byteOffset": 0,
      "name": "floatBufferViews",
      "target": 34963
    },
    {
      "buffer": 0,
      "byteLength": 143632,
      "byteOffset": 59160,
      "byteStride": 8,
      "name": "floatBufferViews",
      "target": 34962
    },
    {
      "buffer": 0,
      "byteLength": 215448,
      "byteOffset": 202792,
      "byteStride": 12,
      "name": "floatBufferViews",
      "target": 34962
    }
  ],
  "buffers": [
    {
      "byteLength": 418240,
      "uri": "scene.bin"
    }
  ],
  "images": [
    {
      "uri": "textures/Material_baseColor.png"
    },
    {
      "uri": "textures/Material_metallicRoughness.png"
    },
    {
      "uri": "textures/Material_emissive.png"
    }
  ],
  "materials": [
    {
      "doubleSided": true,
      "emissiveFactor": [
        1,
        1,
        1
      ],
      "emissiveTexture": {
        "index": 2,
        "texCoord": 0
      },
      "name": "Material",
      "occlusionTexture": {
        "index": 1,
        "strength": 1,
        "texCoord": 0
      },
      "pbrMetallicRoughness": {
        "baseColorFactor": [
          1,
          1,
          1,
          1
        ],
        "baseColorTexture": {
          "index": 0,
          "texCoord": 0
        },
        "metallicFactor": 0,
        "metallicRoughnessTexture": {
          "index": 1,
          "texCoord": 0
        },
        "roughnessFactor": 0.70903201219512191
      }
    }
  ],
  "meshes": [
    {
      "name": "Wheel_3_Material_0",
      "primitives": [
        {
          "attributes": {
            "NORMAL": 1,
            "POSITION": 0,
            "TEXCOORD_0": 2,
            "TEXCOORD_1": 3
          },
          "indices": 4,
          "material": 0,
          "mode": 4
        }
      ]
    },
    {
      "name": "Wheel_2_Material_0",
      "primitives": [
        {
          "attributes": {
            "NORMAL": 6,
            "POSITION": 5,
            "TEXCOORD_0": 7,
            "TEXCOORD_1": 8
          },
          "indices": 9,
          "material": 0,
          "mode": 4
        }
      ]
    },
    {
      "name": "Wheel_1_Material_0",
      "primitives": [
        {
          "attributes": {
            "NORMAL": 11,
            "POSITION": 10,
            "TEXCOORD_0": 12,
            "TEXCOORD_1": 13
          },
          "indices": 14,
          "material": 0,
          "mode": 4
        }
      ]
    },
    {
      "name": "Cube_Material_0",
      "primitives": [
        {
          "attributes": {
            "NORMAL": 16,
            "POSITION": 15,
            "TEXCOORD_0": 17,
            "TEXCOORD_1": 18
          },
          "indices": 19,
          "material": 0,
          "mode": 4
        }
      ]
    },
    {
      "name": "Wheel_Material_0",
      "primitives": [
        {
          "attributes": {
            "NORMAL": 21,
            "POSITION": 20,
            "TEXCOORD_0": 22,
            "TEXCOORD_1": 23
          },
          "indices": 24,
          "material": 0,
          "mode": 4
        }
      ]
    }
  ],
  "nodes": [
    {
      "children": [
        1
      ],
      "name": "RootNode (gltf orientation matrix)",
      "rotation": [
        -0.70710678118654746,
        -0,
        -0,
        0.70710678118654757
      ]
    },
    {
      "children": [
        2
      ],
      "name": "RootNode (model correction matrix)"
    },
    {
      "children": [
        3
      ],
      "matrix": [
        1,
        0,
        0,
        0,
        0,
        0,
        1,
        0,
        0,
        -1,
        0,
        0,
        0,
        0,
        0,
        1
      ],
      "name": "2ede42096718402c9e6f58e51a1d3435.fbx"
    },
    {
      "children": [
        4
      ],
      "name": "RootNode"
    },
    {
      "children": [
        5,
        7,
        9,
        11,
        13
      ],
      "matrix": [
        4.4408920985006262e-16,
        0,
        1,
        0,
        0,
        1,
        0,
        0,
        -1,
        0,
        4.4408920985006262e-16,
        0,
        0,
        16.697006225585938,
        0,
        1
      ],
      "name": "Null"
    },
    {
      "children": [
        6
      ],
      "matrix": [
        -100,
        1.2246467991473532e-14,
        -7.8859849468982932e-14,
        0,
        1.2246464544400011e-14,
        99.999999999999901,
        4.3711388409202596e-06,
        0,
        7.8859850004292974e-14,
        4.3711388409202596e-06,
        -99.999999999999915,
        0,
        -81.851837158203125,
        4.4061617851257324,
        -54.156200408935547,
        1
      ],
      "name": "Wheel_3"
    },
    {
      "mesh": 0,
      "name": "Wheel_3_Material_0"
    },
    {
      "children": [
        8
      ],
      "matrix": [
        -100,
        1.2246467991473532e-14,
        -7.8859849468982932e-14,
        0,
        1.2246464544400011e-14,
        99.999999999999901,
        4.3711388409202596e-06,
        0,
        7.8859850004292974e-14,
        4.3711388409202596e-06,
        -99.999999999999915,
        0,
        79.523284912109375,
        4.4061617851257324,
        -54.156200408935547,
        1
      ],
      "name": "Wheel_2"
    },
    {
      "mesh": 1,
      "name": "Wheel_2_Material_0"
    },
    {
      "children": [
        10
      ],
      "matrix": [
        100,
        0,
        -2.2204460492503131e-14,
        0,
        9.7058779428533608e-22,
        99.999999999999901,
        4.3711388286737912e-06,
        0,
        2.2204460492503112e-14,
        -4.3711388286737912e-06,
        99.999999999999901,
        0,
        -81.928955078125,
        4.4061570167541504,
        52.995010375976562,
        1
      ],
      "name": "Wheel_1"
    },
    {
      "mesh": 2,
      "name": "Wheel_1_Material_0"
    },
    {
      "children": [
        12
      ],
      "matrix": [
        100,
        0,
        0,
        0,
        0,
        2.2204460492503131e-14,
        -100,
        0,
        0,
        100,
        2.2204460492503131e-14,
        0,
        4.8113532066345215,
        -17.624637603759766,
        2.3223741054534912,
        1
      ],
      "name": "Cube"
    },
    {
      "mesh": 3,
      "name": "Cube_Material_0"
    },
    {
      "children": [
        14
      ],
      "matrix": [
        100,
        0,
        -2.2204460492503131e-14,
        0,
        9.7058779428533608e-22,
        99.999999999999901,
        4.3711388286737912e-06,
        0,
        2.2204460492503112e-14,
        -4.3711388286737912e-06,
        99.999999999999901,
        0,
        79.4461669921875,
        4.4061570167541504,
        52.995010375976562,
        1
      ],
      "name": "Wheel"
    },
    {
      "mesh": 4,
      "name": "Wheel_Material_0"
    }
  ],
  "samplers": [
    {
      "magFilter": 9729,
      "minFilter": 9987,
      "wrapS": 10497,
      "wrapT": 10497
    }
  ],
  "scene": 0,
  "scenes": [
    {
      "name": "OSG_Scene",
      "nodes": [
        0
      ]
    }
  ],
  "textures": [
    {
      "sampler": 0,
      "source": 0
    },
    {
      "sampler": 0,
      "source": 1
    },
    {
      "sampler": 0,
      "source": 2
    }
  ]
}

