{
  "accessors": [
    {
      "bufferView": 2,
      "componentType": 5126,
      "count": 14096,
      "max": [
        3332.951171875,
        2430,
        16248.599609375
      ],
      "min": [
        -3332.951171875,
        -2700,
        0
      ],
      "type": "VEC3"
    },
    {
      "bufferView": 2,
      "byteOffset": 169152,
      "componentType": 5126,
      "count": 14096,
      "max": [
        1,
        1,
        1
      ],
      "min": [
        -1,
        -1,
        -1
      ],
      "type": "VEC3"
    },
    {
      "bufferView": 1,
      "componentType": 5126,
      "count": 14096,
      "max": [
        0.99973291158676147,
        0.99940943717956543
      ],
      "min": [
        0.0019427412189543247,
        0.00049173599109053612
      ],
      "type": "VEC2"
    },
    {
      "bufferView": 1,
      "byteOffset": 112768,
      "componentType": 5126,
      "count": 14096,
      "max": [
        0.99900001287460327,
        0.99883466958999634
      ],
      "min": [
        0.0010000000474974513,
        0.0010000000474974513
      ],
      "type": "VEC2"
    },
    {
      "bufferView": 1,
      "byteOffset": 225536,
      "componentType": 5126,
      "count": 14096,
      "max": [
        0.99973291158676147,
        0.99940943717956543
      ],
      "min": [
        0.0019427412189543247,
        0.00049173599109053612
      ],
      "type": "VEC2"
    },
    {
      "bufferView": 1,
      "byteOffset": 338304,
      "componentType": 5126,
      "count": 14096,
      "max": [
        0.99973291158676147,
        0.99940943717956543
      ],
      "min": [
        0.0019427412189543247,
        0.00049173599109053612
      ],
      "type": "VEC2"
    },
    {
      "bufferView": 0,
      "componentType": 5125,
      "count": 22821,
      "max": [
        14095
      ],
      "min": [
        0
      ],
      "type": "SCALAR"
    }
  ],
  "asset": {
    "extras": {
      "author": "aitortilla01 (https://sketchfab.com/aitortilla01)",
      "license": "CC-BY-4.0 (http://creativecommons.org/licenses/by/4.0/)",
      "source": "https://sketchfab.com/3d-models/miami-style-condominium-b3e16399830045a7b67ec8e02447fd27",
      "title": "Miami style condominium"
    },
    "generator": "Sketchfab-8.75.0",
    "version": "2.0"
  },
  "bufferViews": [
    {
      "buffer": 0,
      "byteLength": 91284,
      "byteOffset": 0,
      "name": "floatBufferViews",
      "target": 34963
    },
    {
      "buffer": 0,
      "byteLength": 451072,
      "byteOffset": 91284,
      "byteStride": 8,
      "name": "floatBufferViews",
      "target": 34962
    },
    {
      "buffer": 0,
      "byteLength": 338304,
      "byteOffset": 542356,
      "byteStride": 12,
      "name": "floatBufferViews",
      "target": 34962
    }
  ],
  "buffers": [
    {
      "byteLength": 880660,
      "uri": "scene.bin"
    }
  ],
  "images": [
    {
      "uri": "textures/hirise8_baseColor.png"
    }
  ],
  "materials": [
    {
      "doubleSided": true,
      "name": "hirise8",
      "pbrMetallicRoughness": {
        "baseColorFactor": [
          1,
          1,
          1,
          1
        ],
        "baseColorTexture": {
          "index": 0,
          "texCoord": 0
        },
        "metallicFactor": 0,
        "roughnessFactor": 0.59999999999999998
      }
    }
  ],
  "meshes": [
    {
      "name": "hirise8_hirise8_0",
      "primitives": [
        {
          "attributes": {
            "NORMAL": 1,
            "POSITION": 0,
            "TEXCOORD_0": 2,
            "TEXCOORD_1": 3,
            "TEXCOORD_2": 4,
            "TEXCOORD_3": 5
          },
          "indices": 6,
          "material": 0,
          "mode": 4
        }
      ]
    }
  ],
  "nodes": [
    {
      "children": [
        1
      ],
      "name": "RootNode (gltf orientation matrix)",
      "rotation": [
        -0.70710678118654746,
        -0,
        -0,
        0.70710678118654757
      ]
    },
    {
      "children": [
        2
      ],
      "name": "RootNode (model correction matrix)"
    },
    {
      "children": [
        3
      ],
      "matrix": [
        1,
        0,
        0,
        0,
        0,
        0,
        1,
        0,
        0,
        -1,
        0,
        0,
        0,
        0,
        0,
        1
      ],
      "name": "hirise8.FBX"
    },
    {
      "children": [
        4
      ],
      "name": "RootNode"
    },
    {
      "children": [
        5
      ],
      "matrix": [
        1,
        0,
        0,
        0,
        0,
        2.2204460492503131e-16,
        -1,
        0,
        0,
        1,
        2.2204460492503131e-16,
        0,
        0,
        0,
        0,
        1
      ],
      "name": "hirise8"
    },
    {
      "mesh": 0,
      "name": "hirise8_hirise8_0"
    }
  ],
  "samplers": [
    {
      "magFilter": 9729,
      "minFilter": 9987,
      "wrapS": 10497,
      "wrapT": 10497
    }
  ],
  "scene": 0,
  "scenes": [
    {
      "name": "OSG_Scene",
      "nodes": [
        0
      ]
    }
  ],
  "textures": [
    {
      "sampler": 0,
      "source": 0
    }
  ]
}

