{
  "accessors": [
    {
      "bufferView": 2,
      "componentType": 5126,
      "count": 4252,
      "max": [
        20.569305419921875,
        42.792804718017578,
        25.857048034667969
      ],
      "min": [
        -23.132928848266602,
        -0.10687351226806641,
        -30.552061080932617
      ],
      "type": "VEC3"
    },
    {
      "bufferView": 2,
      "byteOffset": 51024,
      "componentType": 5126,
      "count": 4252,
      "max": [
        0.99978315830230713,
        0.99981939792633057,
        0.99975156784057617
      ],
      "min": [
        -0.99996680021286011,
        -0.99999159574508667,
        -0.99943643808364868
      ],
      "type": "VEC3"
    },
    {
      "bufferView": 3,
      "componentType": 5126,
      "count": 4252,
      "max": [
        0.99993896484375,
        0.99484992027282715,
        0.9999658465385437,
        1
      ],
      "min": [
        -0.99934613704681396,
        -0.96863758563995361,
        -1,
        -1
      ],
      "type": "VEC4"
    },
    {
      "bufferView": 1,
      "componentType": 5126,
      "count": 4252,
      "max": [
        0.99080896377563477,
        0.98432010412216187
      ],
      "min": [
        0.013106236234307289,
        0.0083678960800170898
      ],
      "type": "VEC2"
    },
    {
      "bufferView": 1,
      "byteOffset": 34016,
      "componentType": 5126,
      "count": 4252,
      "max": [
        0.99080896377563477,
        0.98432010412216187
      ],
      "min": [
        0.013106236234307289,
        0.0083678960800170898
      ],
      "type": "VEC2"
    },
    {
      "bufferView": 1,
      "byteOffset": 68032,
      "componentType": 5126,
      "count": 4252,
      "max": [
        0.99080896377563477,
        0.98432010412216187
      ],
      "min": [
        0.013106236234307289,
        0.0083678960800170898
      ],
      "type": "VEC2"
    },
    {
      "bufferView": 1,
      "byteOffset": 102048,
      "componentType": 5126,
      "count": 4252,
      "max": [
        0.99080896377563477,
        0.98432010412216187
      ],
      "min": [
        0.013106236234307289,
        0.0083678960800170898
      ],
      "type": "VEC2"
    },
    {
      "bufferView": 1,
      "byteOffset": 136064,
      "componentType": 5126,
      "count": 4252,
      "max": [
        0.99080896377563477,
        0.98432010412216187
      ],
      "min": [
        0.013106236234307289,
        0.0083678960800170898
      ],
      "type": "VEC2"
    },
    {
      "bufferView": 1,
      "byteOffset": 170080,
      "componentType": 5126,
      "count": 4252,
      "max": [
        0.99080896377563477,
        0.98432010412216187
      ],
      "min": [
        0.013106236234307289,
        0.0083678960800170898
      ],
      "type": "VEC2"
    },
    {
      "bufferView": 1,
      "byteOffset": 204096,
      "componentType": 5126,
      "count": 4252,
      "max": [
        0.99080896377563477,
        0.98432010412216187
      ],
      "min": [
        0.013106236234307289,
        0.0083678960800170898
      ],
      "type": "VEC2"
    },
    {
      "bufferView": 1,
      "byteOffset": 238112,
      "componentType": 5126,
      "count": 4252,
      "max": [
        0.99080896377563477,
        0.98432010412216187
      ],
      "min": [
        0.013106236234307289,
        0.0083678960800170898
      ],
      "type": "VEC2"
    },
    {
      "bufferView": 1,
      "byteOffset": 272128,
      "componentType": 5126,
      "count": 4252,
      "max": [
        0.99080896377563477,
        0.98432010412216187
      ],
      "min": [
        0.013106236234307289,
        0.0083678960800170898
      ],
      "type": "VEC2"
    },
    {
      "bufferView": 0,
      "componentType": 5125,
      "count": 24054,
      "max": [
        4251
      ],
      "min": [
        0
      ],
      "type": "SCALAR"
    }
  ],
  "asset": {
    "extras": {
      "author": "xdlolexe (https://sketchfab.com/xdlolexe)",
      "license": "CC-BY-4.0 (http://creativecommons.org/licenses/by/4.0/)",
      "source": "https://sketchfab.com/3d-models/desert-mesa-99f864962332443ba9d204dd61459bee",
      "title": "Desert Mesa"
    },
    "generator": "Sketchfab-4.47.0",
    "version": "2.0"
  },
  "bufferViews": [
    {
      "buffer": 0,
      "byteLength": 96216,
      "byteOffset": 0,
      "name": "floatBufferViews",
      "target": 34963
    },
    {
      "buffer": 0,
      "byteLength": 306144,
      "byteOffset": 96216,
      "byteStride": 8,
      "name": "floatBufferViews",
      "target": 34962
    },
    {
      "buffer": 0,
      "byteLength": 102048,
      "byteOffset": 402360,
      "byteStride": 12,
      "name": "floatBufferViews",
      "target": 34962
    },
    {
      "buffer": 0,
      "byteLength": 68032,
      "byteOffset": 504408,
      "byteStride": 16,
      "name": "floatBufferViews",
      "target": 34962
    }
  ],
  "buffers": [
    {
      "byteLength": 572440,
      "uri": "scene.bin"
    }
  ],
  "images": [
    {
      "uri": "textures/Material_49_baseColor.png"
    }
  ],
  "materials": [
    {
      "doubleSided": true,
      "emissiveFactor": [
        0,
        0,
        0
      ],
      "name": "Material_49",
      "pbrMetallicRoughness": {
        "baseColorFactor": [
          1,
          1,
          1,
          1
        ],
        "baseColorTexture": {
          "index": 0,
          "texCoord": 0
        },
        "metallicFactor": 0,
        "roughnessFactor": 0.59999999999999998
      }
    }
  ],
  "meshes": [
    {
      "name": "node_id30_Material_49_0",
      "primitives": [
        {
          "attributes": {
            "NORMAL": 1,
            "POSITION": 0,
            "TANGENT": 2,
            "TEXCOORD_0": 3,
            "TEXCOORD_1": 4,
            "TEXCOORD_2": 5,
            "TEXCOORD_3": 6,
            "TEXCOORD_4": 7,
            "TEXCOORD_5": 8,
            "TEXCOORD_6": 9,
            "TEXCOORD_7": 10,
            "TEXCOORD_8": 11
          },
          "indices": 12,
          "material": 0,
          "mode": 4
        }
      ]
    }
  ],
  "nodes": [
    {
      "children": [
        1
      ],
      "name": "RootNode (gltf orientation matrix)",
      "rotation": [
        -0.70710678118654746,
        -0,
        -0,
        0.70710678118654757
      ]
    },
    {
      "children": [
        2
      ],
      "name": "RootNode (model correction matrix)"
    },
    {
      "children": [
        3
      ],
      "matrix": [
        1,
        0,
        0,
        0,
        0,
        0,
        1,
        0,
        0,
        -1,
        0,
        0,
        0,
        0,
        0,
        1
      ],
      "name": "5ecd1ee1361345f58f1cf6b31e6a59ad.fbx"
    },
    {
      "children": [
        4
      ],
      "name": "RootNode"
    },
    {
      "children": [
        5
      ],
      "name": "root"
    },
    {
      "children": [
        6
      ],
      "matrix": [
        0.01171564869582653,
        0,
        0,
        0,
        0,
        0.01171564869582653,
        0,
        0,
        0,
        0,
        0.01171564869582653,
        0,
        0.04077819362282753,
        -0.33574792742729187,
        0.35793715715408325,
        1
      ],
      "name": "node_id30"
    },
    {
      "mesh": 0,
      "name": "node_id30_Material_49_0"
    }
  ],
  "samplers": [
    {
      "magFilter": 9729,
      "minFilter": 9987,
      "wrapS": 10497,
      "wrapT": 10497
    }
  ],
  "scene": 0,
  "scenes": [
    {
      "name": "OSG_Scene",
      "nodes": [
        0
      ]
    }
  ],
  "textures": [
    {
      "sampler": 0,
      "source": 0
    }
  ]
}

