{
  "accessors": [
    {
      "bufferView": 2,
      "componentType": 5126,
      "count": 6077,
      "max": [
        188.95407104492188,
        51.087432861328125,
        154.13642883300781
      ],
      "min": [
        -191.70387268066406,
        -52.699722290039062,
        6.146942138671875
      ],
      "type": "VEC3"
    },
    {
      "bufferView": 2,
      "byteOffset": 72924,
      "componentType": 5126,
      "count": 6077,
      "max": [
        1,
        1,
        1
      ],
      "min": [
        -1,
        -1,
        -1
      ],
      "type": "VEC3"
    },
    {
      "bufferView": 3,
      "componentType": 5126,
      "count": 6077,
      "max": [
        1,
        1,
        0.99999725818634033,
        1
      ],
      "min": [
        -1,
        -0.99999916553497314,
        -0.99999719858169556,
        -1
      ],
      "type": "VEC4"
    },
    {
      "bufferView": 1,
      "componentType": 5126,
      "count": 6077,
      "max": [
        0.9824138879776001,
        0.98143625259399414
      ],
      "min": [
        0.018533226102590561,
        0.018131222575902939
      ],
      "type": "VEC2"
    },
    {
      "bufferView": 0,
      "componentType": 5125,
      "count": 18648,
      "max": [
        6076
      ],
      "min": [
        0
      ],
      "type": "SCALAR"
    },
    {
      "bufferView": 2,
      "byteOffset": 145848,
      "componentType": 5126,
      "count": 198,
      "max": [
        75.913726806640625,
        47.312229156494141,
        139.86294555664062
      ],
      "min": [
        -120.96524047851562,
        14.779012680053711,
        20.420404434204102
      ],
      "type": "VEC3"
    },
    {
      "bufferView": 2,
      "byteOffset": 148224,
      "componentType": 5126,
      "count": 198,
      "max": [
        0.54263150691986084,
        0.89038240909576416,
        0.94773250818252563
      ],
      "min": [
        -0.72665196657180786,
        0.31698530912399292,
        -0.94773256778717041
      ],
      "type": "VEC3"
    },
    {
      "bufferView": 3,
      "byteOffset": 97232,
      "componentType": 5126,
      "count": 198,
      "max": [
        0.99790269136428833,
        0.69026863574981689,
        0.32733818888664246,
        1
      ],
      "min": [
        -0.89206761121749878,
        -0.75057798624038696,
        -0.2533772885799408,
        1
      ],
      "type": "VEC4"
    },
    {
      "bufferView": 0,
      "byteOffset": 74592,
      "componentType": 5125,
      "count": 672,
      "max": [
        197
      ],
      "min": [
        0
      ],
      "type": "SCALAR"
    }
  ],
  "asset": {
    "extras": {
      "author": "Sergei (https://sketchfab.com/sergeif)",
      "license": "CC-BY-4.0 (http://creativecommons.org/licenses/by/4.0/)",
      "source": "https://sketchfab.com/models/afe41ac100be4c27868c334023c2f6c7",
      "title": "Car"
    },
    "generator": "Sketchfab-3.19.4",
    "version": "2.0"
  },
  "bufferViews": [
    {
      "buffer": 0,
      "byteLength": 77280,
      "byteOffset": 0,
      "name": "floatBufferViews",
      "target": 34963
    },
    {
      "buffer": 0,
      "byteLength": 48616,
      "byteOffset": 77280,
      "byteStride": 8,
      "name": "floatBufferViews",
      "target": 34962
    },
    {
      "buffer": 0,
      "byteLength": 150600,
      "byteOffset": 125896,
      "byteStride": 12,
      "name": "floatBufferViews",
      "target": 34962
    },
    {
      "buffer": 0,
      "byteLength": 100400,
      "byteOffset": 276496,
      "byteStride": 16,
      "name": "floatBufferViews",
      "target": 34962
    }
  ],
  "buffers": [
    {
      "byteLength": 376896,
      "uri": "scene.bin"
    }
  ],
  "images": [
    {
      "uri": "textures/carMat_baseColor.png"
    },
    {
      "uri": "textures/carMat_normal.png"
    },
    {
      "uri": "textures/carMat_metallicRoughness.png"
    }
  ],
  "materials": [
    {
      "doubleSided": true,
      "emissiveFactor": [
        0,
        0,
        0
      ],
      "name": "carMat",
      "normalTexture": {
        "index": 1,
        "scale": 1,
        "texCoord": 0
      },
      "pbrMetallicRoughness": {
        "baseColorFactor": [
          1,
          1,
          1,
          1
        ],
        "baseColorTexture": {
          "index": 0,
          "texCoord": 0
        },
        "metallicFactor": 1,
        "metallicRoughnessTexture": {
          "index": 2,
          "texCoord": 0
        },
        "roughnessFactor": 1
      }
    },
    {
      "alphaMode": "BLEND",
      "doubleSided": true,
      "emissiveFactor": [
        0,
        0,
        0
      ],
      "name": "windowsMat",
      "pbrMetallicRoughness": {
        "baseColorFactor": [
          0,
          0,
          0,
          0.56999999999999995
        ],
        "metallicFactor": 0,
        "roughnessFactor": 0
      }
    }
  ],
  "meshes": [
    {
      "name": "Korpus001_carMat_0",
      "primitives": [
        {
          "attributes": {
            "NORMAL": 1,
            "POSITION": 0,
            "TANGENT": 2,
            "TEXCOORD_0": 3
          },
          "indices": 4,
          "material": 0,
          "mode": 4
        }
      ]
    },
    {
      "name": "Korpus001_windowsMat_0",
      "primitives": [
        {
          "attributes": {
            "NORMAL": 6,
            "POSITION": 5,
            "TANGENT": 7
          },
          "indices": 8,
          "material": 1,
          "mode": 4
        }
      ]
    }
  ],
  "nodes": [
    {
      "children": [
        1
      ],
      "name": "RootNode (gltf orientation matrix)",
      "rotation": [
        -0.70710678118654746,
        -0,
        -0,
        0.70710678118654757
      ]
    },
    {
      "children": [
        2
      ],
      "name": "RootNode (model correction matrix)"
    },
    {
      "children": [
        3
      ],
      "matrix": [
        1,
        0,
        0,
        0,
        0,
        0,
        1,
        0,
        0,
        -1,
        0,
        0,
        0,
        0,
        0,
        1
      ],
      "name": "fordCrownVictoria.FBX"
    },
    {
      "children": [
        4
      ],
      "name": "RootNode"
    },
    {
      "children": [
        5
      ],
      "matrix": [
        1.6292068096831855e-09,
        0,
        0.0099999997764824485,
        0,
        -4.3711387248479325e-10,
        0.0099999997764825717,
        7.1214891367862386e-17,
        0,
        -0.0099999997764824398,
        -4.371138724847991e-10,
        1.6292068096831855e-09,
        0,
        -0.80141687393188477,
        0.52936208248138428,
        -0.11266429722309113,
        1
      ],
      "name": "Korpus001"
    },
    {
      "children": [
        6,
        7
      ],
      "matrix": [
        1,
        0,
        -0,
        0,
        0,
        1,
        0,
        0,
        0,
        0,
        1,
        0,
        1.3749010562896729,
        0.80614501237869263,
        -80.141685485839844,
        1
      ],
      "name": ""
    },
    {
      "mesh": 0,
      "name": "Korpus001_carMat_0"
    },
    {
      "mesh": 1,
      "name": "Korpus001_windowsMat_0"
    }
  ],
  "samplers": [
    {
      "magFilter": 9729,
      "minFilter": 9987,
      "wrapS": 10497,
      "wrapT": 10497
    }
  ],
  "scene": 0,
  "scenes": [
    {
      "name": "OSG_Scene",
      "nodes": [
        0
      ]
    }
  ],
  "textures": [
    {
      "sampler": 0,
      "source": 0
    },
    {
      "sampler": 0,
      "source": 1
    },
    {
      "sampler": 0,
      "source": 2
    }
  ]
}

