{
  "accessors": [
    {
      "bufferView": 2,
      "componentType": 5126,
      "count": 78,
      "max": [
        -4.8547210693359375,
        0.82355916500091553,
        0.7520298957824707
      ],
      "min": [
        -8.826909065246582,
        0.10453221946954727,
        -1.655565619468689
      ],
      "type": "VEC3"
    },
    {
      "bufferView": 2,
      "byteOffset": 936,
      "componentType": 5126,
      "count": 78,
      "max": [
        1,
        1,
        1
      ],
      "min": [
        -1,
        -1,
        -0.99971187114715576
      ],
      "type": "VEC3"
    },
    {
      "bufferView": 3,
      "componentType": 5126,
      "count": 78,
      "max": [
        0.99999892711639404,
        0.9999813437461853,
        0.99994218349456787,
        1
      ],
      "min": [
        -0.99995458126068115,
        -0.99990266561508179,
        -0.99981343746185303,
        1
      ],
      "type": "VEC4"
    },
    {
      "bufferView": 1,
      "componentType": 5126,
      "count": 78,
      "max": [
        0.96986520290374756,
        0.96859627962112427
      ],
      "min": [
        0,
        0.022911412641406059
      ],
      "type": "VEC2"
    },
    {
      "bufferView": 0,
      "componentType": 5125,
      "count": 126,
      "max": [
        77
      ],
      "min": [
        0
      ],
      "type": "SCALAR"
    },
    {
      "bufferView": 2,
      "byteOffset": 1872,
      "componentType": 5126,
      "count": 80,
      "max": [
        12.945170402526855,
        0.81747150421142578,
        -1.2313759326934814
      ],
      "min": [
        0.25808811187744141,
        0.77902603149414062,
        -12.949748992919922
      ],
      "type": "VEC3"
    },
    {
      "bufferView": 2,
      "byteOffset": 2832,
      "componentType": 5126,
      "count": 80,
      "max": [
        0.73080241680145264,
        1,
        0.84258335828781128
      ],
      "min": [
        -0.73079001903533936,
        0.538565993309021,
        -0.84258335828781128
      ],
      "type": "VEC3"
    },
    {
      "bufferView": 3,
      "byteOffset": 1248,
      "componentType": 5126,
      "count": 80,
      "max": [
        1,
        0.73079007863998413,
        0.96623343229293823,
        1
      ],
      "min": [
        0.17566271126270294,
        -0.73080241680145264,
        -0.96369445323944092,
        1
      ],
      "type": "VEC4"
    },
    {
      "bufferView": 1,
      "byteOffset": 624,
      "componentType": 5126,
      "count": 80,
      "max": [
        0.97896003723144531,
        0.97694456577301025
      ],
      "min": [
        0.015206187963485718,
        0.26357334852218628
      ],
      "type": "VEC2"
    },
    {
      "bufferView": 0,
      "byteOffset": 504,
      "componentType": 5125,
      "count": 120,
      "max": [
        79
      ],
      "min": [
        0
      ],
      "type": "SCALAR"
    },
    {
      "bufferView": 2,
      "byteOffset": 3792,
      "componentType": 5126,
      "count": 56,
      "max": [
        0.49895915389060974,
        0.49999994039535522,
        0.60211652517318726
      ],
      "min": [
        -0.50847399234771729,
        -0.49921005964279175,
        0.4358748197555542
      ],
      "type": "VEC3"
    },
    {
      "bufferView": 2,
      "byteOffset": 4464,
      "componentType": 5126,
      "count": 56,
      "max": [
        1.2026458762193215e-07,
        1,
        1
      ],
      "min": [
        -1.6285045489894401e-07,
        0,
        -0.9983866810798645
      ],
      "type": "VEC3"
    },
    {
      "bufferView": 3,
      "byteOffset": 2528,
      "componentType": 5126,
      "count": 56,
      "max": [
        0.99998623132705688,
        0.0018759656231850386,
        0.0002997119736392051,
        1
      ],
      "min": [
        -0.99999833106994629,
        -0.005267635453492403,
        -0.0018760057864710689,
        1
      ],
      "type": "VEC4"
    },
    {
      "bufferView": 1,
      "byteOffset": 1264,
      "componentType": 5126,
      "count": 56,
      "max": [
        0.98032069206237793,
        0.25138348340988159
      ],
      "min": [
        0.02094876766204834,
        0.019060105085372925
      ],
      "type": "VEC2"
    },
    {
      "bufferView": 0,
      "byteOffset": 984,
      "componentType": 5125,
      "count": 84,
      "max": [
        55
      ],
      "min": [
        0
      ],
      "type": "SCALAR"
    },
    {
      "bufferView": 2,
      "byteOffset": 5136,
      "componentType": 5126,
      "count": 28,
      "max": [
        0.49895915389060974,
        0.49999994039535522,
        0.60211652517318726
      ],
      "min": [
        -0.50847399234771729,
        -0.49921005964279175,
        0.43587484955787659
      ],
      "type": "VEC3"
    },
    {
      "bufferView": 2,
      "byteOffset": 5472,
      "componentType": 5126,
      "count": 28,
      "max": [
        0,
        1,
        1
      ],
      "min": [
        0,
        0,
        -0.99838662147521973
      ],
      "type": "VEC3"
    },
    {
      "bufferView": 3,
      "byteOffset": 3424,
      "componentType": 5126,
      "count": 28,
      "max": [
        0.99998617172241211,
        0.0018759574741125107,
        0.0002995622344315052,
        1
      ],
      "min": [
        -0.99999833106994629,
        -0.0052675721235573292,
        -0.0018758929800242186,
        1
      ],
      "type": "VEC4"
    },
    {
      "bufferView": 1,
      "byteOffset": 1712,
      "componentType": 5126,
      "count": 28,
      "max": [
        0.98032069206237793,
        0.25138348340988159
      ],
      "min": [
        0.02094876766204834,
        0.019060105085372925
      ],
      "type": "VEC2"
    },
    {
      "bufferView": 0,
      "byteOffset": 1320,
      "componentType": 5125,
      "count": 42,
      "max": [
        27
      ],
      "min": [
        0
      ],
      "type": "SCALAR"
    },
    {
      "bufferView": 2,
      "byteOffset": 5808,
      "componentType": 5126,
      "count": 80,
      "max": [
        12.945170402526855,
        0.81747150421142578,
        -1.2313759326934814
      ],
      "min": [
        0.25808811187744141,
        0.77902603149414062,
        -12.949748992919922
      ],
      "type": "VEC3"
    },
    {
      "bufferView": 2,
      "byteOffset": 6768,
      "componentType": 5126,
      "count": 80,
      "max": [
        0.73080241680145264,
        1,
        0.84258335828781128
      ],
      "min": [
        -0.73079001903533936,
        0.538565993309021,
        -0.84258335828781128
      ],
      "type": "VEC3"
    },
    {
      "bufferView": 3,
      "byteOffset": 3872,
      "componentType": 5126,
      "count": 80,
      "max": [
        1,
        0.73079007863998413,
        0.96623343229293823,
        1
      ],
      "min": [
        0.17566271126270294,
        -0.73080241680145264,
        -0.96369445323944092,
        1
      ],
      "type": "VEC4"
    },
    {
      "bufferView": 1,
      "byteOffset": 1936,
      "componentType": 5126,
      "count": 80,
      "max": [
        0.97896003723144531,
        0.97694456577301025
      ],
      "min": [
        0.015206187963485718,
        0.26357334852218628
      ],
      "type": "VEC2"
    },
    {
      "bufferView": 0,
      "byteOffset": 1488,
      "componentType": 5125,
      "count": 120,
      "max": [
        79
      ],
      "min": [
        0
      ],
      "type": "SCALAR"
    },
    {
      "bufferView": 2,
      "byteOffset": 7728,
      "componentType": 5126,
      "count": 221,
      "max": [
        -13.902437210083008,
        0.82881897687911987,
        -1.2313754558563232
      ],
      "min": [
        -32.956077575683594,
        0.3150613009929657,
        -18.800037384033203
      ],
      "type": "VEC3"
    },
    {
      "bufferView": 2,
      "byteOffset": 10380,
      "componentType": 5126,
      "count": 221,
      "max": [
        0.83014893531799316,
        1,
        0.83802968263626099
      ],
      "min": [
        -0.8768390417098999,
        0.46809545159339905,
        -0.88367795944213867
      ],
      "type": "VEC3"
    },
    {
      "bufferView": 3,
      "byteOffset": 5152,
      "componentType": 5126,
      "count": 221,
      "max": [
        1,
        0.87683933973312378,
        0.6601860523223877,
        1
      ],
      "min": [
        0,
        -0.80437970161437988,
        -0.67053705453872681,
        -1
      ],
      "type": "VEC4"
    },
    {
      "bufferView": 1,
      "byteOffset": 2576,
      "componentType": 5126,
      "count": 221,
      "max": [
        0.96980965137481689,
        0.96888613700866699
      ],
      "min": [
        0.027075350284576416,
        0.26006338000297546
      ],
      "type": "VEC2"
    },
    {
      "bufferView": 0,
      "byteOffset": 1968,
      "componentType": 5125,
      "count": 438,
      "max": [
        220
      ],
      "min": [
        0
      ],
      "type": "SCALAR"
    },
    {
      "bufferView": 2,
      "byteOffset": 13032,
      "componentType": 5126,
      "count": 293,
      "max": [
        -13.307391166687012,
        0.83789175748825073,
        0.85761404037475586
      ],
      "min": [
        -35.474239349365234,
        0.10298305004835129,
        -19.678857803344727
      ],
      "type": "VEC3"
    },
    {
      "bufferView": 2,
      "byteOffset": 16548,
      "componentType": 5126,
      "count": 293,
      "max": [
        0.9999997615814209,
        1,
        1
      ],
      "min": [
        -1,
        -0.05562121793627739,
        -0.99999982118606567
      ],
      "type": "VEC3"
    },
    {
      "bufferView": 3,
      "byteOffset": 8688,
      "componentType": 5126,
      "count": 293,
      "max": [
        1,
        0.99749356508255005,
        0.99999970197677612,
        1
      ],
      "min": [
        -0.99990463256835938,
        -0.46057137846946716,
        -0.9999924898147583,
        -1
      ],
      "type": "VEC4"
    },
    {
      "bufferView": 1,
      "byteOffset": 4344,
      "componentType": 5126,
      "count": 293,
      "max": [
        0.96671313047409058,
        1.0354284048080444
      ],
      "min": [
        -2.5600037574768066,
        0.0099215507507324219
      ],
      "type": "VEC2"
    },
    {
      "bufferView": 0,
      "byteOffset": 3720,
      "componentType": 5125,
      "count": 579,
      "max": [
        292
      ],
      "min": [
        0
      ],
      "type": "SCALAR"
    }
  ],
  "asset": {
    "extras": {
      "author": "zogorman (https://sketchfab.com/zogorman)",
      "license": "CC-BY-4.0 (http://creativecommons.org/licenses/by/4.0/)",
      "source": "https://sketchfab.com/models/3bc0bc67798645a58ef8ece1bd2d1818",
      "title": "SIDEWALK"
    },
    "generator": "Sketchfab-3.18.6",
    "version": "2.0"
  },
  "bufferViews": [
    {
      "buffer": 0,
      "byteLength": 6036,
      "byteOffset": 0,
      "name": "floatBufferViews",
      "target": 34963
    },
    {
      "buffer": 0,
      "byteLength": 6688,
      "byteOffset": 6036,
      "byteStride": 8,
      "name": "floatBufferViews",
      "target": 34962
    },
    {
      "buffer": 0,
      "byteLength": 20064,
      "byteOffset": 12724,
      "byteStride": 12,
      "name": "floatBufferViews",
      "target": 34962
    },
    {
      "buffer": 0,
      "byteLength": 13376,
      "byteOffset": 32788,
      "byteStride": 16,
      "name": "floatBufferViews",
      "target": 34962
    }
  ],
  "buffers": [
    {
      "byteLength": 46164,
      "uri": "scene.bin"
    }
  ],
  "images": [
    {
      "uri": "textures/DRAIN_TEXTURE_baseColor.jpeg"
    },
    {
      "uri": "textures/PLAIN_SIDEWALK_baseColor.jpeg"
    }
  ],
  "materials": [
    {
      "doubleSided": true,
      "emissiveFactor": [
        0,
        0,
        0
      ],
      "name": "DRAIN_TEXTURE",
      "pbrMetallicRoughness": {
        "baseColorFactor": [
          1,
          1,
          1,
          1
        ],
        "baseColorTexture": {
          "index": 0,
          "texCoord": 0
        },
        "metallicFactor": 0.63368098719999999,
        "roughnessFactor": 0.59999999999999998
      }
    },
    {
      "doubleSided": true,
      "emissiveFactor": [
        0,
        0,
        0
      ],
      "name": "PLAIN_SIDEWALK",
      "pbrMetallicRoughness": {
        "baseColorFactor": [
          1,
          1,
          1,
          1
        ],
        "baseColorTexture": {
          "index": 1,
          "texCoord": 0
        },
        "metallicFactor": 0,
        "roughnessFactor": 0.28042944219999999
      }
    }
  ],
  "meshes": [
    {
      "name": "pCube12_DRAIN_TEXTURE_0",
      "primitives": [
        {
          "attributes": {
            "NORMAL": 1,
            "POSITION": 0,
            "TANGENT": 2,
            "TEXCOORD_0": 3
          },
          "indices": 4,
          "material": 0,
          "mode": 4
        }
      ]
    },
    {
      "name": "pCube16_PLAIN_SIDEWALK_0",
      "primitives": [
        {
          "attributes": {
            "NORMAL": 6,
            "POSITION": 5,
            "TANGENT": 7,
            "TEXCOORD_0": 8
          },
          "indices": 9,
          "material": 1,
          "mode": 4
        }
      ]
    },
    {
      "name": "pCube17_PLAIN_SIDEWALK_0",
      "primitives": [
        {
          "attributes": {
            "NORMAL": 11,
            "POSITION": 10,
            "TANGENT": 12,
            "TEXCOORD_0": 13
          },
          "indices": 14,
          "material": 1,
          "mode": 4
        }
      ]
    },
    {
      "name": "pCube2_PLAIN_SIDEWALK_0",
      "primitives": [
        {
          "attributes": {
            "NORMAL": 16,
            "POSITION": 15,
            "TANGENT": 17,
            "TEXCOORD_0": 18
          },
          "indices": 19,
          "material": 1,
          "mode": 4
        }
      ]
    },
    {
      "name": "pCube7_PLAIN_SIDEWALK_0",
      "primitives": [
        {
          "attributes": {
            "NORMAL": 21,
            "POSITION": 20,
            "TANGENT": 22,
            "TEXCOORD_0": 23
          },
          "indices": 24,
          "material": 1,
          "mode": 4
        }
      ]
    },
    {
      "name": "pCube15_PLAIN_SIDEWALK_0",
      "primitives": [
        {
          "attributes": {
            "NORMAL": 26,
            "POSITION": 25,
            "TANGENT": 27,
            "TEXCOORD_0": 28
          },
          "indices": 29,
          "material": 1,
          "mode": 4
        }
      ]
    },
    {
      "name": "polySurface2_PLAIN_SIDEWALK_0",
      "primitives": [
        {
          "attributes": {
            "NORMAL": 31,
            "POSITION": 30,
            "TANGENT": 32,
            "TEXCOORD_0": 33
          },
          "indices": 34,
          "material": 1,
          "mode": 4
        }
      ]
    }
  ],
  "nodes": [
    {
      "children": [
        1
      ],
      "name": "RootNode (gltf orientation matrix)",
      "rotation": [
        -0.70710678118654746,
        -0,
        -0,
        0.70710678118654757
      ]
    },
    {
      "children": [
        2
      ],
      "name": "RootNode (model correction matrix)"
    },
    {
      "children": [
        3
      ],
      "matrix": [
        1,
        0,
        0,
        0,
        0,
        0,
        1,
        0,
        0,
        -1,
        0,
        0,
        0,
        0,
        0,
        1
      ],
      "name": "5277b587e73049c59376cbfe5e833adc.fbx"
    },
    {
      "children": [
        4,
        11,
        16
      ],
      "name": "RootNode"
    },
    {
      "children": [
        5,
        7,
        9
      ],
      "matrix": [
        1,
        0,
        0,
        0,
        0,
        1,
        0,
        0,
        0,
        0,
        1,
        0,
        10.219587326049805,
        1.3432999795782909e-14,
        0.11658701300621033,
        1
      ],
      "name": "DRAIN"
    },
    {
      "children": [
        6
      ],
      "matrix": [
        1,
        0,
        0,
        0,
        0,
        1,
        0,
        0,
        0,
        0,
        1,
        0,
        -8.8817841970012523e-15,
        0.0070045911706984043,
        -5.5511151231257827e-16,
        1
      ],
      "name": "pCube12"
    },
    {
      "mesh": 0,
      "name": "pCube12_DRAIN_TEXTURE_0"
    },
    {
      "children": [
        8
      ],
      "matrix": [
        1,
        0,
        0,
        0,
        0,
        1,
        0,
        0,
        0,
        0,
        1,
        0,
        -13.429676055908203,
        -1.3432999795782909e-14,
        -0.003162116976454854,
        1
      ],
      "name": "pCube16"
    },
    {
      "mesh": 1,
      "name": "pCube16_PLAIN_SIDEWALK_0"
    },
    {
      "children": [
        10
      ],
      "matrix": [
        12.589736938476562,
        0,
        0,
        0,
        0,
        0.67693042755126953,
        0,
        0,
        0,
        0,
        11.902364730834961,
        0,
        -6.761533260345459,
        0.48023250699043274,
        -6.4265775680541992,
        1
      ],
      "name": "pCube17"
    },
    {
      "mesh": 2,
      "name": "pCube17_PLAIN_SIDEWALK_0"
    },
    {
      "children": [
        12,
        14
      ],
      "matrix": [
        1,
        0,
        0,
        0,
        0,
        1,
        0,
        0,
        0,
        0,
        1,
        0,
        9.4458684921264648,
        0,
        0.11342489719390869,
        1
      ],
      "name": "PLAIN"
    },
    {
      "children": [
        13
      ],
      "matrix": [
        12.589736938476562,
        0,
        0,
        0,
        0,
        0.67693042755126953,
        0,
        0,
        0,
        0,
        11.902364730834961,
        0,
        6.6635842323303223,
        0.48023250699043274,
        -6.4234151840209961,
        1
      ],
      "name": "pCube2"
    },
    {
      "mesh": 3,
      "name": "pCube2_PLAIN_SIDEWALK_0"
    },
    {
      "children": [
        15
      ],
      "name": "pCube7"
    },
    {
      "mesh": 4,
      "name": "pCube7_PLAIN_SIDEWALK_0"
    },
    {
      "children": [
        17,
        19
      ],
      "matrix": [
        1,
        0,
        0,
        0,
        0,
        1,
        0,
        0,
        0,
        0,
        1,
        0,
        10.427648544311523,
        0,
        0,
        1
      ],
      "name": "CORNER"
    },
    {
      "children": [
        18
      ],
      "matrix": [
        1.0578348636627197,
        0,
        0,
        0,
        0,
        1.0578348636627197,
        0,
        0,
        0,
        0,
        1.0578348636627197,
        0,
        1.3546420335769653,
        -0.03009839728474617,
        0.19956775009632111,
        1
      ],
      "name": "pCube15"
    },
    {
      "mesh": 5,
      "name": "pCube15_PLAIN_SIDEWALK_0"
    },
    {
      "children": [
        20
      ],
      "name": "polySurface2"
    },
    {
      "mesh": 6,
      "name": "polySurface2_PLAIN_SIDEWALK_0"
    }
  ],
  "samplers": [
    {
      "magFilter": 9729,
      "minFilter": 9987,
      "wrapS": 10497,
      "wrapT": 10497
    }
  ],
  "scene": 0,
  "scenes": [
    {
      "name": "OSG_Scene",
      "nodes": [
        0
      ]
    }
  ],
  "textures": [
    {
      "sampler": 0,
      "source": 0
    },
    {
      "sampler": 0,
      "source": 1
    }
  ]
}

