{
  "accessors": [
    {
      "bufferView": 2,
      "componentType": 5126,
      "count": 312,
      "max": [
        -0.34199300408363342,
        0.27295500040054321,
        0.23614700138568878
      ],
      "min": [
        -0.55601000785827637,
        -0.19933800399303436,
        -0.23614700138568878
      ],
      "type": "VEC3"
    },
    {
      "bufferView": 2,
      "byteOffset": 3744,
      "componentType": 5126,
      "count": 312,
      "max": [
        0.96271514892578125,
        1,
        1
      ],
      "min": [
        -1,
        -1,
        -1
      ],
      "type": "VEC3"
    },
    {
      "bufferView": 3,
      "componentType": 5126,
      "count": 312,
      "max": [
        0.9995650053024292,
        0.99853301048278809,
        0.99999397993087769,
        -1
      ],
      "min": [
        -0.97494900226593018,
        -0.99984699487686157,
        -0.99998801946640015,
        -1
      ],
      "type": "VEC4"
    },
    {
      "bufferView": 1,
      "componentType": 5126,
      "count": 312,
      "max": [
        0.89654397964477539,
        0.99950098991394043
      ],
      "min": [
        0.0004480479983612895,
        0.00049950199900195003
      ],
      "type": "VEC2"
    },
    {
      "bufferView": 0,
      "componentType": 5125,
      "count": 1512,
      "max": [
        311
      ],
      "min": [
        0
      ],
      "type": "SCALAR"
    },
    {
      "bufferView": 2,
      "byteOffset": 7488,
      "componentType": 5126,
      "count": 312,
      "max": [
        0.55601000785827637,
        0.27295500040054321,
        0.23614700138568878
      ],
      "min": [
        0.34199300408363342,
        -0.19933800399303436,
        -0.23614700138568878
      ],
      "type": "VEC3"
    },
    {
      "bufferView": 2,
      "byteOffset": 11232,
      "componentType": 5126,
      "count": 312,
      "max": [
        1,
        1,
        1
      ],
      "min": [
        -0.96271514892578125,
        -1,
        -1
      ],
      "type": "VEC3"
    },
    {
      "bufferView": 3,
      "byteOffset": 4992,
      "componentType": 5126,
      "count": 312,
      "max": [
        0.97494900226593018,
        0.99853301048278809,
        0.99999397993087769,
        1
      ],
      "min": [
        -0.9995650053024292,
        -0.99984699487686157,
        -0.99998801946640015,
        1
      ],
      "type": "VEC4"
    },
    {
      "bufferView": 1,
      "byteOffset": 2496,
      "componentType": 5126,
      "count": 312,
      "max": [
        0.89654397964477539,
        0.99950098991394043
      ],
      "min": [
        0.0004480479983612895,
        0.00049950199900195003
      ],
      "type": "VEC2"
    },
    {
      "bufferView": 0,
      "byteOffset": 6048,
      "componentType": 5125,
      "count": 1512,
      "max": [
        311
      ],
      "min": [
        0
      ],
      "type": "SCALAR"
    },
    {
      "bufferView": 2,
      "byteOffset": 14976,
      "componentType": 5126,
      "count": 370,
      "max": [
        0.16959099471569061,
        0.20640000700950623,
        0.53882002830505371
      ],
      "min": [
        -0.16959099471569061,
        -0.13278199732303619,
        -0.53882002830505371
      ],
      "type": "VEC3"
    },
    {
      "bufferView": 2,
      "byteOffset": 19416,
      "componentType": 5126,
      "count": 370,
      "max": [
        1,
        1,
        1
      ],
      "min": [
        -1,
        -1,
        -1
      ],
      "type": "VEC3"
    },
    {
      "bufferView": 3,
      "byteOffset": 9984,
      "componentType": 5126,
      "count": 370,
      "max": [
        0.99458998441696167,
        0.99742001295089722,
        0.99988901615142822,
        1
      ],
      "min": [
        -0.99458998441696167,
        -0.99742001295089722,
        -0.72273498773574829,
        1
      ],
      "type": "VEC4"
    },
    {
      "bufferView": 1,
      "byteOffset": 4992,
      "componentType": 5126,
      "count": 370,
      "max": [
        0.99465698003768921,
        0.9971809983253479
      ],
      "min": [
        0.0062967501580715179,
        0.0042534000240266323
      ],
      "type": "VEC2"
    },
    {
      "bufferView": 0,
      "byteOffset": 12096,
      "componentType": 5125,
      "count": 1824,
      "max": [
        369
      ],
      "min": [
        0
      ],
      "type": "SCALAR"
    },
    {
      "bufferView": 2,
      "byteOffset": 23856,
      "componentType": 5126,
      "count": 1207,
      "max": [
        0.43073698878288269,
        1,
        0.43073698878288269
      ],
      "min": [
        -0.43073698878288269,
        -1,
        -0.43073698878288269
      ],
      "type": "VEC3"
    },
    {
      "bufferView": 2,
      "byteOffset": 38340,
      "componentType": 5126,
      "count": 1207,
      "max": [
        1,
        0.9962959885597229,
        1
      ],
      "min": [
        -1,
        -0.97931933403015137,
        -1
      ],
      "type": "VEC3"
    },
    {
      "bufferView": 3,
      "byteOffset": 15904,
      "componentType": 5126,
      "count": 1207,
      "max": [
        0.99980801343917847,
        0.99999898672103882,
        0.99362599849700928,
        1
      ],
      "min": [
        -0.9998059868812561,
        -0.99987101554870605,
        -0.97585499286651611,
        1
      ],
      "type": "VEC4"
    },
    {
      "bufferView": 1,
      "byteOffset": 7952,
      "componentType": 5126,
      "count": 1207,
      "max": [
        0.90587699413299561,
        0.99950098991394043
      ],
      "min": [
        0.0004527120036073029,
        0.00049950001994147897
      ],
      "type": "VEC2"
    },
    {
      "bufferView": 0,
      "byteOffset": 19392,
      "componentType": 5125,
      "count": 6258,
      "max": [
        1206
      ],
      "min": [
        0
      ],
      "type": "SCALAR"
    },
    {
      "bufferView": 2,
      "byteOffset": 52824,
      "componentType": 5126,
      "count": 152,
      "max": [
        0.34813299775123596,
        -0.82757800817489624,
        0.34813299775123596
      ],
      "min": [
        -0.34813299775123596,
        -0.84443497657775879,
        -0.34813299775123596
      ],
      "type": "VEC3"
    },
    {
      "bufferView": 2,
      "byteOffset": 54648,
      "componentType": 5126,
      "count": 152,
      "max": [
        0.99258512258529663,
        1,
        0.99258512258529663
      ],
      "min": [
        -0.99258512258529663,
        0,
        -0.99258512258529663
      ],
      "type": "VEC3"
    },
    {
      "bufferView": 3,
      "byteOffset": 35216,
      "componentType": 5126,
      "count": 152,
      "max": [
        0.92659801244735718,
        0.53795897960662842,
        0.92659801244735718,
        1
      ],
      "min": [
        -0.92659801244735718,
        -0.99999499320983887,
        -0.92659801244735718,
        1
      ],
      "type": "VEC4"
    },
    {
      "bufferView": 1,
      "byteOffset": 17608,
      "componentType": 5126,
      "count": 152,
      "max": [
        0.99950098991394043,
        0.9131770133972168
      ],
      "min": [
        0.00049948698142543435,
        0.00045636101276613772
      ],
      "type": "VEC2"
    },
    {
      "bufferView": 0,
      "byteOffset": 44424,
      "componentType": 5125,
      "count": 432,
      "max": [
        151
      ],
      "min": [
        0
      ],
      "type": "SCALAR"
    },
    {
      "bufferView": 2,
      "byteOffset": 56472,
      "componentType": 5126,
      "count": 152,
      "max": [
        0.32574298977851868,
        0.42446801066398621,
        0.32574298977851868
      ],
      "min": [
        -0.32574298977851868,
        0.40761101245880127,
        -0.32574298977851868
      ],
      "type": "VEC3"
    },
    {
      "bufferView": 2,
      "byteOffset": 58296,
      "componentType": 5126,
      "count": 152,
      "max": [
        0.99258512258529663,
        0,
        0.99258500337600708
      ],
      "min": [
        -0.99258512258529663,
        -1,
        -0.99258500337600708
      ],
      "type": "VEC3"
    },
    {
      "bufferView": 3,
      "byteOffset": 37648,
      "componentType": 5126,
      "count": 152,
      "max": [
        0.92659902572631836,
        0.53795802593231201,
        0.92659902572631836,
        1
      ],
      "min": [
        -0.92659902572631836,
        -0.99999499320983887,
        -0.92659902572631836,
        1
      ],
      "type": "VEC4"
    },
    {
      "bufferView": 1,
      "byteOffset": 18824,
      "componentType": 5126,
      "count": 152,
      "max": [
        0.99950098991394043,
        0.93778699636459351
      ],
      "min": [
        0.0004995170165784657,
        0.00046867100172676146
      ],
      "type": "VEC2"
    },
    {
      "bufferView": 0,
      "byteOffset": 46152,
      "componentType": 5125,
      "count": 432,
      "max": [
        151
      ],
      "min": [
        0
      ],
      "type": "SCALAR"
    },
    {
      "bufferView": 2,
      "byteOffset": 60120,
      "componentType": 5126,
      "count": 152,
      "max": [
        0.32574298977851868,
        0.55708599090576172,
        0.32574298977851868
      ],
      "min": [
        -0.32574298977851868,
        0.54022902250289917,
        -0.32574298977851868
      ],
      "type": "VEC3"
    },
    {
      "bufferView": 2,
      "byteOffset": 61944,
      "componentType": 5126,
      "count": 152,
      "max": [
        0.99258512258529663,
        1,
        0.99258500337600708
      ],
      "min": [
        -0.99258512258529663,
        0,
        -0.99258500337600708
      ],
      "type": "VEC3"
    },
    {
      "bufferView": 3,
      "byteOffset": 40080,
      "componentType": 5126,
      "count": 152,
      "max": [
        0.92659902572631836,
        0.99999499320983887,
        0.92659801244735718,
        -1
      ],
      "min": [
        -0.92659902572631836,
        -0.53795802593231201,
        -0.92659801244735718,
        -1
      ],
      "type": "VEC4"
    },
    {
      "bufferView": 1,
      "byteOffset": 20040,
      "componentType": 5126,
      "count": 152,
      "max": [
        0.99950098991394043,
        0.93778699636459351
      ],
      "min": [
        0.0004995170165784657,
        0.00046867100172676146
      ],
      "type": "VEC2"
    },
    {
      "bufferView": 0,
      "byteOffset": 47880,
      "componentType": 5125,
      "count": 432,
      "max": [
        151
      ],
      "min": [
        0
      ],
      "type": "SCALAR"
    }
  ],
  "asset": {
    "extras": {
      "author": "Lukas Petr (https://sketchfab.com/pchcz)",
      "license": "CC-BY-4.0 (http://creativecommons.org/licenses/by/4.0/)",
      "source": "https://sketchfab.com/models/e4f1c395626d49fa906b03cb5e31de18",
      "title": "Yellow Rusted Hydrant"
    },
    "generator": "Sketchfab-3.19.2",
    "version": "2.0"
  },
  "bufferViews": [
    {
      "buffer": 0,
      "byteLength": 49608,
      "byteOffset": 0,
      "name": "floatBufferViews",
      "target": 34963
    },
    {
      "buffer": 0,
      "byteLength": 21256,
      "byteOffset": 49608,
      "byteStride": 8,
      "name": "floatBufferViews",
      "target": 34962
    },
    {
      "buffer": 0,
      "byteLength": 63768,
      "byteOffset": 70864,
      "byteStride": 12,
      "name": "floatBufferViews",
      "target": 34962
    },
    {
      "buffer": 0,
      "byteLength": 42512,
      "byteOffset": 134632,
      "byteStride": 16,
      "name": "floatBufferViews",
      "target": 34962
    }
  ],
  "buffers": [
    {
      "byteLength": 177144,
      "uri": "scene.bin"
    }
  ],
  "images": [
    {
      "uri": "textures/hydrant_base_mat_metallicRoughness.png"
    },
    {
      "uri": "textures/hydrant_base_mat_normal.jpeg"
    },
    {
      "uri": "textures/hydrant_base_mat_baseColor.jpeg"
    },
    {
      "uri": "textures/vent2_3_metallicRoughness.png"
    },
    {
      "uri": "textures/vent2_3_normal.jpeg"
    },
    {
      "uri": "textures/vent2_3_baseColor.jpeg"
    },
    {
      "uri": "textures/bolts_bottom_metallicRoughness.png"
    },
    {
      "uri": "textures/bolts_bottom_normal.jpeg"
    },
    {
      "uri": "textures/bolts_bottom_baseColor.jpeg"
    },
    {
      "uri": "textures/vent1_metallicRoughness.png"
    },
    {
      "uri": "textures/vent1_normal.jpeg"
    },
    {
      "uri": "textures/vent1_baseColor.jpeg"
    },
    {
      "uri": "textures/vent4_metallicRoughness.png"
    },
    {
      "uri": "textures/vent4_normal.jpeg"
    },
    {
      "uri": "textures/vent4_baseColor.jpeg"
    },
    {
      "uri": "textures/bolts_middle_metallicRoughness.png"
    },
    {
      "uri": "textures/bolts_middle_normal.jpeg"
    },
    {
      "uri": "textures/bolts_middle_baseColor.jpeg"
    },
    {
      "uri": "textures/bolts_top_metallicRoughness.png"
    },
    {
      "uri": "textures/bolts_top_normal.jpeg"
    },
    {
      "uri": "textures/bolts_top_baseColor.jpeg"
    }
  ],
  "materials": [
    {
      "doubleSided": true,
      "emissiveFactor": [
        0,
        0,
        0
      ],
      "name": "bolts_top",
      "normalTexture": {
        "index": 19,
        "scale": 1,
        "texCoord": 0
      },
      "occlusionTexture": {
        "index": 18,
        "strength": 1,
        "texCoord": 0
      },
      "pbrMetallicRoughness": {
        "baseColorFactor": [
          1,
          1,
          1,
          1
        ],
        "baseColorTexture": {
          "index": 20,
          "texCoord": 0
        },
        "metallicFactor": 1,
        "metallicRoughnessTexture": {
          "index": 18,
          "texCoord": 0
        },
        "roughnessFactor": 1
      }
    },
    {
      "doubleSided": true,
      "emissiveFactor": [
        0,
        0,
        0
      ],
      "name": "bolts_middle",
      "normalTexture": {
        "index": 16,
        "scale": 1,
        "texCoord": 0
      },
      "occlusionTexture": {
        "index": 15,
        "strength": 1,
        "texCoord": 0
      },
      "pbrMetallicRoughness": {
        "baseColorFactor": [
          1,
          1,
          1,
          1
        ],
        "baseColorTexture": {
          "index": 17,
          "texCoord": 0
        },
        "metallicFactor": 1,
        "metallicRoughnessTexture": {
          "index": 15,
          "texCoord": 0
        },
        "roughnessFactor": 1
      }
    },
    {
      "doubleSided": true,
      "emissiveFactor": [
        0,
        0,
        0
      ],
      "name": "bolts_bottom",
      "normalTexture": {
        "index": 7,
        "scale": 1,
        "texCoord": 0
      },
      "occlusionTexture": {
        "index": 6,
        "strength": 1,
        "texCoord": 0
      },
      "pbrMetallicRoughness": {
        "baseColorFactor": [
          1,
          1,
          1,
          1
        ],
        "baseColorTexture": {
          "index": 8,
          "texCoord": 0
        },
        "metallicFactor": 1,
        "metallicRoughnessTexture": {
          "index": 6,
          "texCoord": 0
        },
        "roughnessFactor": 1
      }
    },
    {
      "doubleSided": true,
      "emissiveFactor": [
        0,
        0,
        0
      ],
      "name": "hydrant_base_mat",
      "normalTexture": {
        "index": 1,
        "scale": 1,
        "texCoord": 0
      },
      "occlusionTexture": {
        "index": 0,
        "strength": 1,
        "texCoord": 0
      },
      "pbrMetallicRoughness": {
        "baseColorFactor": [
          1,
          1,
          1,
          1
        ],
        "baseColorTexture": {
          "index": 2,
          "texCoord": 0
        },
        "metallicFactor": 1,
        "metallicRoughnessTexture": {
          "index": 0,
          "texCoord": 0
        },
        "roughnessFactor": 1
      }
    },
    {
      "doubleSided": true,
      "emissiveFactor": [
        0,
        0,
        0
      ],
      "name": "vent2_3",
      "normalTexture": {
        "index": 4,
        "scale": 1,
        "texCoord": 0
      },
      "occlusionTexture": {
        "index": 3,
        "strength": 1,
        "texCoord": 0
      },
      "pbrMetallicRoughness": {
        "baseColorFactor": [
          1,
          1,
          1,
          1
        ],
        "baseColorTexture": {
          "index": 5,
          "texCoord": 0
        },
        "metallicFactor": 1,
        "metallicRoughnessTexture": {
          "index": 3,
          "texCoord": 0
        },
        "roughnessFactor": 1
      }
    },
    {
      "doubleSided": true,
      "emissiveFactor": [
        0,
        0,
        0
      ],
      "name": "vent1",
      "normalTexture": {
        "index": 10,
        "scale": 1,
        "texCoord": 0
      },
      "occlusionTexture": {
        "index": 9,
        "strength": 1,
        "texCoord": 0
      },
      "pbrMetallicRoughness": {
        "baseColorFactor": [
          1,
          1,
          1,
          1
        ],
        "baseColorTexture": {
          "index": 11,
          "texCoord": 0
        },
        "metallicFactor": 1,
        "metallicRoughnessTexture": {
          "index": 9,
          "texCoord": 0
        },
        "roughnessFactor": 1
      }
    },
    {
      "doubleSided": true,
      "emissiveFactor": [
        0,
        0,
        0
      ],
      "name": "vent4",
      "normalTexture": {
        "index": 13,
        "scale": 1,
        "texCoord": 0
      },
      "occlusionTexture": {
        "index": 12,
        "strength": 1,
        "texCoord": 0
      },
      "pbrMetallicRoughness": {
        "baseColorFactor": [
          1,
          1,
          1,
          1
        ],
        "baseColorTexture": {
          "index": 14,
          "texCoord": 0
        },
        "metallicFactor": 1,
        "metallicRoughnessTexture": {
          "index": 12,
          "texCoord": 0
        },
        "roughnessFactor": 1
      }
    }
  ],
  "meshes": [
    {
      "name": "defaultMaterial",
      "primitives": [
        {
          "attributes": {
            "NORMAL": 1,
            "POSITION": 0,
            "TANGENT": 2,
            "TEXCOORD_0": 3
          },
          "indices": 4,
          "material": 6,
          "mode": 4
        }
      ]
    },
    {
      "name": "defaultMaterial",
      "primitives": [
        {
          "attributes": {
            "NORMAL": 6,
            "POSITION": 5,
            "TANGENT": 7,
            "TEXCOORD_0": 8
          },
          "indices": 9,
          "material": 5,
          "mode": 4
        }
      ]
    },
    {
      "name": "defaultMaterial",
      "primitives": [
        {
          "attributes": {
            "NORMAL": 11,
            "POSITION": 10,
            "TANGENT": 12,
            "TEXCOORD_0": 13
          },
          "indices": 14,
          "material": 4,
          "mode": 4
        }
      ]
    },
    {
      "name": "defaultMaterial",
      "primitives": [
        {
          "attributes": {
            "NORMAL": 16,
            "POSITION": 15,
            "TANGENT": 17,
            "TEXCOORD_0": 18
          },
          "indices": 19,
          "material": 3,
          "mode": 4
        }
      ]
    },
    {
      "name": "defaultMaterial",
      "primitives": [
        {
          "attributes": {
            "NORMAL": 21,
            "POSITION": 20,
            "TANGENT": 22,
            "TEXCOORD_0": 23
          },
          "indices": 24,
          "material": 2,
          "mode": 4
        }
      ]
    },
    {
      "name": "defaultMaterial",
      "primitives": [
        {
          "attributes": {
            "NORMAL": 26,
            "POSITION": 25,
            "TANGENT": 27,
            "TEXCOORD_0": 28
          },
          "indices": 29,
          "material": 1,
          "mode": 4
        }
      ]
    },
    {
      "name": "defaultMaterial",
      "primitives": [
        {
          "attributes": {
            "NORMAL": 31,
            "POSITION": 30,
            "TANGENT": 32,
            "TEXCOORD_0": 33
          },
          "indices": 34,
          "material": 0,
          "mode": 4
        }
      ]
    }
  ],
  "nodes": [
    {
      "children": [
        1
      ],
      "name": "RootNode (gltf orientation matrix)",
      "rotation": [
        -0.70710678118654746,
        -0,
        -0,
        0.70710678118654757
      ]
    },
    {
      "children": [
        2
      ],
      "name": "RootNode (model correction matrix)"
    },
    {
      "children": [
        3,
        5,
        7,
        9,
        11,
        13,
        15
      ],
      "matrix": [
        1,
        0,
        0,
        0,
        0,
        -4.3711390063094768e-08,
        0.999999999999999,
        0,
        0,
        -0.999999999999999,
        -4.3711390063094768e-08,
        0,
        0,
        0,
        0,
        1
      ],
      "name": "Collada visual scene group"
    },
    {
      "children": [
        4
      ],
      "name": "uzaver4_low"
    },
    {
      "mesh": 0,
      "name": "defaultMaterial"
    },
    {
      "children": [
        6
      ],
      "name": "uzaver1_low"
    },
    {
      "mesh": 1,
      "name": "defaultMaterial"
    },
    {
      "children": [
        8
      ],
      "name": "uzaver_2_3_low"
    },
    {
      "mesh": 2,
      "name": "defaultMaterial"
    },
    {
      "children": [
        10
      ],
      "name": "base_low"
    },
    {
      "mesh": 3,
      "name": "defaultMaterial"
    },
    {
      "children": [
        12
      ],
      "name": "bolts_bottom_low"
    },
    {
      "mesh": 4,
      "name": "defaultMaterial"
    },
    {
      "children": [
        14
      ],
      "name": "bolts_middle_low"
    },
    {
      "mesh": 5,
      "name": "defaultMaterial"
    },
    {
      "children": [
        16
      ],
      "name": "bolts_top_low"
    },
    {
      "mesh": 6,
      "name": "defaultMaterial"
    }
  ],
  "samplers": [
    {
      "magFilter": 9729,
      "minFilter": 9987,
      "wrapS": 10497,
      "wrapT": 10497
    }
  ],
  "scene": 0,
  "scenes": [
    {
      "name": "OSG_Scene",
      "nodes": [
        0
      ]
    }
  ],
  "textures": [
    {
      "sampler": 0,
      "source": 0
    },
    {
      "sampler": 0,
      "source": 1
    },
    {
      "sampler": 0,
      "source": 2
    },
    {
      "sampler": 0,
      "source": 3
    },
    {
      "sampler": 0,
      "source": 4
    },
    {
      "sampler": 0,
      "source": 5
    },
    {
      "sampler": 0,
      "source": 6
    },
    {
      "sampler": 0,
      "source": 7
    },
    {
      "sampler": 0,
      "source": 8
    },
    {
      "sampler": 0,
      "source": 9
    },
    {
      "sampler": 0,
      "source": 10
    },
    {
      "sampler": 0,
      "source": 11
    },
    {
      "sampler": 0,
      "source": 12
    },
    {
      "sampler": 0,
      "source": 13
    },
    {
      "sampler": 0,
      "source": 14
    },
    {
      "sampler": 0,
      "source": 15
    },
    {
      "sampler": 0,
      "source": 16
    },
    {
      "sampler": 0,
      "source": 17
    },
    {
      "sampler": 0,
      "source": 18
    },
    {
      "sampler": 0,
      "source": 19
    },
    {
      "sampler": 0,
      "source": 20
    }
  ]
}

