{
  "accessors": [
    {
      "bufferView": 2,
      "componentType": 5126,
      "count": 205,
      "max": [
        493.84832763671875,
        672.302734375,
        686.9202880859375
      ],
      "min": [
        -494.80990600585938,
        -0.026198999956250191,
        -688.148681640625
      ],
      "type": "VEC3"
    },
    {
      "bufferView": 2,
      "byteOffset": 2460,
      "componentType": 5126,
      "count": 205,
      "max": [
        1,
        1,
        1
      ],
      "min": [
        -1,
        -1,
        -1
      ],
      "type": "VEC3"
    },
    {
      "bufferView": 3,
      "componentType": 5126,
      "count": 205,
      "max": [
        1,
        0.088473834097385406,
        1,
        1
      ],
      "min": [
        -1,
        -0.13395893573760986,
        -1,
        -1
      ],
      "type": "VEC4"
    },
    {
      "bufferView": 1,
      "componentType": 5126,
      "count": 205,
      "max": [
        0.99112802743911743,
        0.94296902418136597
      ],
      "min": [
        0.019602999091148376,
        0.022408999502658844
      ],
      "type": "VEC2"
    },
    {
      "bufferView": 1,
      "byteOffset": 1640,
      "componentType": 5126,
      "count": 205,
      "max": [
        0.97287678718566895,
        0.98477017879486084
      ],
      "min": [
        0.015229753218591213,
        0.015229753218591213
      ],
      "type": "VEC2"
    },
    {
      "bufferView": 0,
      "componentType": 5125,
      "count": 459,
      "max": [
        204
      ],
      "min": [
        0
      ],
      "type": "SCALAR"
    }
  ],
  "asset": {
    "extras": {
      "author": "mednios (https://sketchfab.com/mednios)",
      "license": "CC-BY-4.0 (http://creativecommons.org/licenses/by/4.0/)",
      "source": "https://sketchfab.com/3d-models/service-station-638986c0932d4a368d5d9a9076690bb5",
      "title": "Service Station"
    },
    "generator": "Sketchfab-4.77.0",
    "version": "2.0"
  },
  "bufferViews": [
    {
      "buffer": 0,
      "byteLength": 1836,
      "byteOffset": 0,
      "name": "floatBufferViews",
      "target": 34963
    },
    {
      "buffer": 0,
      "byteLength": 3280,
      "byteOffset": 1836,
      "byteStride": 8,
      "name": "floatBufferViews",
      "target": 34962
    },
    {
      "buffer": 0,
      "byteLength": 4920,
      "byteOffset": 5116,
      "byteStride": 12,
      "name": "floatBufferViews",
      "target": 34962
    },
    {
      "buffer": 0,
      "byteLength": 3280,
      "byteOffset": 10036,
      "byteStride": 16,
      "name": "floatBufferViews",
      "target": 34962
    }
  ],
  "buffers": [
    {
      "byteLength": 13316,
      "uri": "scene.bin"
    }
  ],
  "images": [
    {
      "uri": "textures/lambert21SG_baseColor.png"
    }
  ],
  "materials": [
    {
      "doubleSided": true,
      "emissiveFactor": [
        0,
        0,
        0
      ],
      "name": "lambert21SG",
      "pbrMetallicRoughness": {
        "baseColorFactor": [
          1,
          1,
          1,
          1
        ],
        "baseColorTexture": {
          "index": 0,
          "texCoord": 0
        },
        "metallicFactor": 0,
        "roughnessFactor": 1
      }
    }
  ],
  "meshes": [
    {
      "name": "SERVICE_lambert21SG_0",
      "primitives": [
        {
          "attributes": {
            "NORMAL": 1,
            "POSITION": 0,
            "TANGENT": 2,
            "TEXCOORD_0": 3,
            "TEXCOORD_1": 4
          },
          "indices": 5,
          "material": 0,
          "mode": 4
        }
      ]
    }
  ],
  "nodes": [
    {
      "children": [
        1
      ],
      "name": "RootNode (gltf orientation matrix)",
      "rotation": [
        -0.70710678118654746,
        -0,
        -0,
        0.70710678118654757
      ]
    },
    {
      "children": [
        2
      ],
      "name": "RootNode (model correction matrix)"
    },
    {
      "children": [
        3
      ],
      "matrix": [
        1,
        0,
        0,
        0,
        0,
        0,
        1,
        0,
        0,
        -1,
        0,
        0,
        0,
        0,
        0,
        1
      ],
      "name": "ec806239c9e34eaba51feba0e9c63610.fbx"
    },
    {
      "children": [
        4
      ],
      "name": "RootNode"
    },
    {
      "children": [
        5
      ],
      "matrix": [
        1,
        0,
        0,
        0,
        0,
        0.99999999999998668,
        1.6292067073209113e-07,
        0,
        0,
        -1.6292067073209113e-07,
        0.99999999999998668,
        0,
        0,
        0,
        0,
        1
      ],
      "name": "SERVICE"
    },
    {
      "mesh": 0,
      "name": "SERVICE_lambert21SG_0"
    }
  ],
  "samplers": [
    {
      "magFilter": 9729,
      "minFilter": 9987,
      "wrapS": 10497,
      "wrapT": 10497
    }
  ],
  "scene": 0,
  "scenes": [
    {
      "name": "OSG_Scene",
      "nodes": [
        0
      ]
    }
  ],
  "textures": [
    {
      "sampler": 0,
      "source": 0
    }
  ]
}

