{
  "accessors": [
    {
      "bufferView": 1,
      "componentType": 5126,
      "count": 8142,
      "max": [
        3.4467308521270752,
        3.3602006435394287,
        3.5819160938262939
      ],
      "min": [
        -3.6546316146850586,
        -3.4627704620361328,
        -3.4961526393890381
      ],
      "type": "VEC3"
    },
    {
      "bufferView": 1,
      "byteOffset": 97704,
      "componentType": 5126,
      "count": 8142,
      "max": [
        0.9999091625213623,
        0.99907141923904419,
        0.99801987409591675
      ],
      "min": [
        -0.99991416931152344,
        -0.9961666464805603,
        -0.99939537048339844
      ],
      "type": "VEC3"
    },
    {
      "bufferView": 0,
      "componentType": 5125,
      "count": 8142,
      "max": [
        8141
      ],
      "min": [
        0
      ],
      "type": "SCALAR"
    }
  ],
  "asset": {
    "extras": {
      "author": "biggreenorange (https://sketchfab.com/biggreenorange)",
      "license": "CC-BY-4.0 (http://creativecommons.org/licenses/by/4.0/)",
      "source": "https://sketchfab.com/models/e9fa341c64fe4626b5d5b0052b0c0b64",
      "title": "Tumbleweed"
    },
    "generator": "Sketchfab-3.18.7",
    "version": "2.0"
  },
  "bufferViews": [
    {
      "buffer": 0,
      "byteLength": 32568,
      "byteOffset": 0,
      "name": "floatBufferViews",
      "target": 34963
    },
    {
      "buffer": 0,
      "byteLength": 195408,
      "byteOffset": 32568,
      "byteStride": 12,
      "name": "floatBufferViews",
      "target": 34962
    }
  ],
  "buffers": [
    {
      "byteLength": 227976,
      "uri": "scene.bin"
    }
  ],
  "materials": [
    {
      "doubleSided": true,
      "emissiveFactor": [
        0,
        0,
        0
      ],
      "name": "Material.001",
      "pbrMetallicRoughness": {
        "baseColorFactor": [
          0.80000000000000004,
          0.416495,
          0.101338,
          1
        ],
        "metallicFactor": 0,
        "roughnessFactor": 0.82394172570000002
      }
    }
  ],
  "meshes": [
    {
      "name": "Plane.007_Material.001_0",
      "primitives": [
        {
          "attributes": {
            "NORMAL": 1,
            "POSITION": 0
          },
          "indices": 2,
          "material": 0,
          "mode": 4
        }
      ]
    }
  ],
  "nodes": [
    {
      "children": [
        1
      ],
      "name": "RootNode (gltf orientation matrix)",
      "rotation": [
        -0.70710678118654746,
        -0,
        -0,
        0.70710678118654757
      ]
    },
    {
      "children": [
        2
      ],
      "name": "RootNode (model correction matrix)"
    },
    {
      "children": [
        3
      ],
      "matrix": [
        1,
        0,
        0,
        0,
        0,
        0,
        1,
        0,
        0,
        -1,
        0,
        0,
        0,
        0,
        0,
        1
      ],
      "name": "87ed60d64fd345c8898a11c9de0b8f99.fbx"
    },
    {
      "children": [
        4,
        7,
        9
      ],
      "name": "RootNode"
    },
    {
      "children": [
        5
      ],
      "matrix": [
        -29.08647719990347,
        -5.5189064575668629,
        -95.517119101714371,
        0,
        56.639309131094492,
        79.467234285632031,
        -21.839123978419661,
        0,
        77.110087759933748,
        -60.452463565620441,
        -19.988346967737169,
        0,
        407.62454223632812,
        590.38623046875,
        -100.54539489746094,
        1
      ],
      "name": "Lamp"
    },
    {
      "children": [
        6
      ],
      "matrix": [
        1,
        0,
        0,
        0,
        0,
        2.2204460492503131e-16,
        1,
        0,
        0,
        -1,
        2.2204460492503131e-16,
        0,
        0,
        0,
        0,
        1
      ],
      "name": ""
    },
    {
      "name": ""
    },
    {
      "children": [
        8
      ],
      "matrix": [
        -65.155832803290963,
        -44.527135765708579,
        -61.417030473735487,
        0,
        -32.40134137821245,
        89.539574512336159,
        -30.542088974418615,
        0,
        68.592054721299746,
        -1.0718647115348782e-05,
        -72.767633623962695,
        0,
        748.1131591796875,
        534.36651611328125,
        650.76397705078125,
        1
      ],
      "name": "Camera"
    },
    {
      "name": ""
    },
    {
      "children": [
        10
      ],
      "matrix": [
        67.520432047837744,
        -33.033291369103708,
        27.382346820483153,
        0,
        -41.086931219084448,
        -64.489421423962909,
        23.51549717528297,
        0,
        12.363467922534884,
        -33.910414119064015,
        -71.39487709354249,
        0,
        0,
        0,
        0,
        1
      ],
      "name": "Plane.007"
    },
    {
      "mesh": 0,
      "name": "Plane.007_Material.001_0"
    }
  ],
  "scene": 0,
  "scenes": [
    {
      "name": "OSG_Scene",
      "nodes": [
        0
      ]
    }
  ]
}

