{
  "accessors": [
    {
      "bufferView": 2,
      "componentType": 5126,
      "count": 3469,
      "max": [
        35.620803833007812,
        40.734733581542969,
        48.882339477539062
      ],
      "min": [
        -42.756355285644531,
        -55.933219909667969,
        -0.50000476837158203
      ],
      "type": "VEC3"
    },
    {
      "bufferView": 2,
      "byteOffset": 41628,
      "componentType": 5126,
      "count": 3469,
      "max": [
        1,
        1,
        1
      ],
      "min": [
        -1,
        -1,
        -1
      ],
      "type": "VEC3"
    },
    {
      "bufferView": 3,
      "componentType": 5126,
      "count": 3469,
      "max": [
        1,
        1,
        1,
        1
      ],
      "min": [
        -1,
        -1,
        -1,
        -1
      ],
      "type": "VEC4"
    },
    {
      "bufferView": 3,
      "byteOffset": 55504,
      "componentType": 5126,
      "count": 3469,
      "max": [
        1,
        1,
        1,
        1
      ],
      "min": [
        1,
        1,
        1,
        1
      ],
      "type": "VEC4"
    },
    {
      "bufferView": 1,
      "componentType": 5126,
      "count": 3469,
      "max": [
        0.99363309144973755,
        0.99581599235534668
      ],
      "min": [
        0.00050000002374872565,
        0.00050000002374872565
      ],
      "type": "VEC2"
    },
    {
      "bufferView": 0,
      "componentType": 5125,
      "count": 6810,
      "max": [
        3468
      ],
      "min": [
        0
      ],
      "type": "SCALAR"
    },
    {
      "bufferView": 2,
      "byteOffset": 83256,
      "componentType": 5126,
      "count": 2072,
      "max": [
        43.071670532226562,
        41.964214324951172,
        13.451271057128906
      ],
      "min": [
        -40.177482604980469,
        -47.14617919921875,
        -0.59040206670761108
      ],
      "type": "VEC3"
    },
    {
      "bufferView": 2,
      "byteOffset": 108120,
      "componentType": 5126,
      "count": 2072,
      "max": [
        0.00017237945576198399,
        0.00017334378208033741,
        1
      ],
      "min": [
        -0.00017294727149419487,
        -0.00017329744878225029,
        1
      ],
      "type": "VEC3"
    },
    {
      "bufferView": 3,
      "byteOffset": 111008,
      "componentType": 5126,
      "count": 2072,
      "max": [
        0.99998664855957031,
        0.99999988079071045,
        0.00017334618314635009,
        1
      ],
      "min": [
        -0.99918776750564575,
        -0.99999541044235229,
        -0.00017330396804027259,
        -1
      ],
      "type": "VEC4"
    },
    {
      "bufferView": 3,
      "byteOffset": 144160,
      "componentType": 5126,
      "count": 2072,
      "max": [
        1,
        1,
        1,
        1
      ],
      "min": [
        1,
        1,
        1,
        0
      ],
      "type": "VEC4"
    },
    {
      "bufferView": 1,
      "byteOffset": 27752,
      "componentType": 5126,
      "count": 2072,
      "max": [
        0.99143248796463013,
        0.98382550477981567
      ],
      "min": [
        0.52187836170196533,
        0.86118805408477783
      ],
      "type": "VEC2"
    },
    {
      "bufferView": 0,
      "byteOffset": 27240,
      "componentType": 5125,
      "count": 3276,
      "max": [
        2071
      ],
      "min": [
        0
      ],
      "type": "SCALAR"
    },
    {
      "bufferView": 2,
      "byteOffset": 132984,
      "componentType": 5126,
      "count": 121,
      "max": [
        100,
        100,
        0.78741395473480225
      ],
      "min": [
        -100,
        -100,
        -0.75094950199127197
      ],
      "type": "VEC3"
    },
    {
      "bufferView": 2,
      "byteOffset": 134436,
      "componentType": 5126,
      "count": 121,
      "max": [
        0.016028588637709618,
        0.024577803909778595,
        0.99999982118606567
      ],
      "min": [
        -0.03478478267788887,
        -0.021991143003106117,
        0.99922913312911987
      ],
      "type": "VEC3"
    },
    {
      "bufferView": 3,
      "byteOffset": 177312,
      "componentType": 5126,
      "count": 121,
      "max": [
        1,
        0.00021767451835330576,
        0.034794092178344727,
        1
      ],
      "min": [
        0.99939453601837158,
        -0.00019757161499001086,
        -0.016028573736548424,
        1
      ],
      "type": "VEC4"
    },
    {
      "bufferView": 1,
      "byteOffset": 44328,
      "componentType": 5126,
      "count": 121,
      "max": [
        1,
        1
      ],
      "min": [
        2.9802322387695312e-08,
        2.9802322387695312e-08
      ],
      "type": "VEC2"
    },
    {
      "bufferView": 0,
      "byteOffset": 40344,
      "componentType": 5125,
      "count": 600,
      "max": [
        120
      ],
      "min": [
        0
      ],
      "type": "SCALAR"
    }
  ],
  "asset": {
    "extras": {
      "author": "Axion Studios (https://sketchfab.com/AxionStudios)",
      "license": "CC-BY-4.0 (http://creativecommons.org/licenses/by/4.0/)",
      "source": "https://sketchfab.com/3d-models/western-town-house-1-046e0e8b768b4d95a22dc482c100903a",
      "title": "Western Town House 1"
    },
    "generator": "Sketchfab-5.39.0",
    "version": "2.0"
  },
  "bufferViews": [
    {
      "buffer": 0,
      "byteLength": 42744,
      "byteOffset": 0,
      "name": "floatBufferViews",
      "target": 34963
    },
    {
      "buffer": 0,
      "byteLength": 45296,
      "byteOffset": 42744,
      "byteStride": 8,
      "name": "floatBufferViews",
      "target": 34962
    },
    {
      "buffer": 0,
      "byteLength": 135888,
      "byteOffset": 88040,
      "byteStride": 12,
      "name": "floatBufferViews",
      "target": 34962
    },
    {
      "buffer": 0,
      "byteLength": 179248,
      "byteOffset": 223928,
      "byteStride": 16,
      "name": "floatBufferViews",
      "target": 34962
    }
  ],
  "buffers": [
    {
      "byteLength": 403176,
      "uri": "scene.bin"
    }
  ],
  "images": [
    {
      "uri": "textures/House_1_Alpha_baseColor.png"
    },
    {
      "uri": "textures/House_1_Alpha_normal.png"
    },
    {
      "uri": "textures/Ground_baseColor.png"
    },
    {
      "uri": "textures/House_1_baseColor.png"
    },
    {
      "uri": "textures/House_1_metallicRoughness.png"
    },
    {
      "uri": "textures/House_1_normal.png"
    }
  ],
  "materials": [
    {
      "doubleSided": false,
      "name": "House_1",
      "normalTexture": {
        "index": 5,
        "scale": 1,
        "texCoord": 0
      },
      "pbrMetallicRoughness": {
        "baseColorFactor": [
          1,
          1,
          1,
          1
        ],
        "baseColorTexture": {
          "index": 3,
          "texCoord": 0
        },
        "metallicFactor": 1,
        "metallicRoughnessTexture": {
          "index": 4,
          "texCoord": 0
        },
        "roughnessFactor": 1
      }
    },
    {
      "alphaCutoff": 0.050000000000000003,
      "alphaMode": "MASK",
      "doubleSided": false,
      "name": "House_1_Alpha",
      "normalTexture": {
        "index": 1,
        "scale": 1,
        "texCoord": 0
      },
      "pbrMetallicRoughness": {
        "baseColorFactor": [
          1,
          1,
          1,
          1
        ],
        "baseColorTexture": {
          "index": 0,
          "texCoord": 0
        },
        "metallicFactor": 0.093178353699999994,
        "roughnessFactor": 0.92511432930000004
      }
    },
    {
      "alphaMode": "BLEND",
      "doubleSided": false,
      "name": "Ground",
      "pbrMetallicRoughness": {
        "baseColorFactor": [
          1,
          1,
          1,
          1
        ],
        "baseColorTexture": {
          "index": 2,
          "texCoord": 0
        },
        "metallicFactor": 0,
        "roughnessFactor": 1
      }
    }
  ],
  "meshes": [
    {
      "name": "House 1_House 1_0",
      "primitives": [
        {
          "attributes": {
            "COLOR_0": 3,
            "NORMAL": 1,
            "POSITION": 0,
            "TANGENT": 2,
            "TEXCOORD_0": 4
          },
          "indices": 5,
          "material": 0,
          "mode": 4
        }
      ]
    },
    {
      "name": "House 1_House 1 Alpha_0",
      "primitives": [
        {
          "attributes": {
            "COLOR_0": 9,
            "NORMAL": 7,
            "POSITION": 6,
            "TANGENT": 8,
            "TEXCOORD_0": 10
          },
          "indices": 11,
          "material": 1,
          "mode": 4
        }
      ]
    },
    {
      "name": "Ground_Ground_0",
      "primitives": [
        {
          "attributes": {
            "NORMAL": 13,
            "POSITION": 12,
            "TANGENT": 14,
            "TEXCOORD_0": 15
          },
          "indices": 16,
          "material": 2,
          "mode": 4
        }
      ]
    }
  ],
  "nodes": [
    {
      "children": [
        1
      ],
      "name": "RootNode (gltf orientation matrix)",
      "rotation": [
        -0.70710678118654746,
        -0,
        -0,
        0.70710678118654757
      ]
    },
    {
      "children": [
        2
      ],
      "name": "RootNode (model correction matrix)"
    },
    {
      "children": [
        3
      ],
      "matrix": [
        1,
        0,
        0,
        0,
        0,
        0,
        1,
        0,
        0,
        -1,
        0,
        0,
        0,
        0,
        0,
        1
      ],
      "name": "9461c38b111049f9a9079db6c52c1fa4.fbx"
    },
    {
      "children": [
        4,
        7
      ],
      "name": "RootNode"
    },
    {
      "children": [
        5,
        6
      ],
      "matrix": [
        1,
        0,
        0,
        0,
        0,
        2.2204460492503131e-16,
        -1,
        0,
        0,
        1,
        2.2204460492503131e-16,
        0,
        0,
        0,
        0,
        1
      ],
      "name": "House 1"
    },
    {
      "mesh": 0,
      "name": "House 1_House 1_0"
    },
    {
      "mesh": 1,
      "name": "House 1_House 1 Alpha_0"
    },
    {
      "children": [
        8
      ],
      "matrix": [
        1,
        0,
        0,
        0,
        0,
        2.2204460492503131e-16,
        -1,
        0,
        0,
        1,
        2.2204460492503131e-16,
        0,
        0,
        0,
        0,
        1
      ],
      "name": "Ground"
    },
    {
      "mesh": 2,
      "name": "Ground_Ground_0"
    }
  ],
  "samplers": [
    {
      "magFilter": 9729,
      "minFilter": 9987,
      "wrapS": 10497,
      "wrapT": 10497
    }
  ],
  "scene": 0,
  "scenes": [
    {
      "name": "OSG_Scene",
      "nodes": [
        0
      ]
    }
  ],
  "textures": [
    {
      "sampler": 0,
      "source": 0
    },
    {
      "sampler": 0,
      "source": 1
    },
    {
      "sampler": 0,
      "source": 2
    },
    {
      "sampler": 0,
      "source": 3
    },
    {
      "sampler": 0,
      "source": 4
    },
    {
      "sampler": 0,
      "source": 5
    }
  ]
}

