{
  "accessors": [
    {
      "bufferView": 2,
      "componentType": 5126,
      "count": 5878,
      "max": [
        3.3373000621795654,
        1.6620297431945801,
        1.4215109348297119
      ],
      "min": [
        -2.9587526321411133,
        -0.88842850923538208,
        -1.4215109348297119
      ],
      "type": "VEC3"
    },
    {
      "bufferView": 2,
      "byteOffset": 70536,
      "componentType": 5126,
      "count": 5878,
      "max": [
        1,
        1,
        1
      ],
      "min": [
        -1,
        -1,
        -0.99994742870330811
      ],
      "type": "VEC3"
    },
    {
      "bufferView": 1,
      "componentType": 5126,
      "count": 5878,
      "max": [
        0.99660098552703857,
        0.99460357427597046
      ],
      "min": [
        0.002881460590288043,
        0.0017122142016887665
      ],
      "type": "VEC2"
    },
    {
      "bufferView": 0,
      "componentType": 5125,
      "count": 19764,
      "max": [
        5877
      ],
      "min": [
        0
      ],
      "type": "SCALAR"
    },
    {
      "bufferView": 2,
      "byteOffset": 141072,
      "componentType": 5126,
      "count": 259,
      "max": [
        0.25490954518318176,
        0.18088963627815247,
        1.3107453584671021
      ],
      "min": [
        -0.20340299606323242,
        -0.23567700386047363,
        -1.3107453584671021
      ],
      "type": "VEC3"
    },
    {
      "bufferView": 2,
      "byteOffset": 144180,
      "componentType": 5126,
      "count": 259,
      "max": [
        0.9958723783493042,
        0.99996459484100342,
        0.99958717823028564
      ],
      "min": [
        -0.99956297874450684,
        -0.99999403953552246,
        -0.99958717823028564
      ],
      "type": "VEC3"
    },
    {
      "bufferView": 1,
      "byteOffset": 47024,
      "componentType": 5126,
      "count": 259,
      "max": [
        0.82291281223297119,
        0.76189005374908447
      ],
      "min": [
        0.27860879898071289,
        0.22665530443191528
      ],
      "type": "VEC2"
    },
    {
      "bufferView": 0,
      "byteOffset": 79056,
      "componentType": 5125,
      "count": 774,
      "max": [
        258
      ],
      "min": [
        0
      ],
      "type": "SCALAR"
    },
    {
      "bufferView": 2,
      "byteOffset": 147288,
      "componentType": 5126,
      "count": 860,
      "max": [
        -2.5498249530792236,
        -0.50325077772140503,
        1.3329074382781982
      ],
      "min": [
        -3.0754976272583008,
        -0.96916329860687256,
        -1.3329075574874878
      ],
      "type": "VEC3"
    },
    {
      "bufferView": 2,
      "byteOffset": 157608,
      "componentType": 5126,
      "count": 860,
      "max": [
        1,
        1,
        1
      ],
      "min": [
        -0.99927783012390137,
        -0.99994230270385742,
        -1
      ],
      "type": "VEC3"
    },
    {
      "bufferView": 1,
      "byteOffset": 49096,
      "componentType": 5126,
      "count": 860,
      "max": [
        0.81748604774475098,
        0.97671997547149658
      ],
      "min": [
        0.09945216029882431,
        0.14271298050880432
      ],
      "type": "VEC2"
    },
    {
      "bufferView": 0,
      "byteOffset": 82152,
      "componentType": 5125,
      "count": 3489,
      "max": [
        859
      ],
      "min": [
        0
      ],
      "type": "SCALAR"
    },
    {
      "bufferView": 2,
      "byteOffset": 167928,
      "componentType": 5126,
      "count": 1634,
      "max": [
        0.12925148010253906,
        0.23241686820983887,
        0.34202754497528076
      ],
      "min": [
        -0.13490897417068481,
        -0.24494612216949463,
        -1.4619688987731934
      ],
      "type": "VEC3"
    },
    {
      "bufferView": 2,
      "byteOffset": 187536,
      "componentType": 5126,
      "count": 1634,
      "max": [
        1,
        1,
        1
      ],
      "min": [
        -1,
        -1,
        -1
      ],
      "type": "VEC3"
    },
    {
      "bufferView": 1,
      "byteOffset": 55976,
      "componentType": 5126,
      "count": 1634,
      "max": [
        0.98025780916213989,
        0.96522265672683716
      ],
      "min": [
        0.018051650375127792,
        0.0027944783214479685
      ],
      "type": "VEC2"
    },
    {
      "bufferView": 0,
      "byteOffset": 96108,
      "componentType": 5125,
      "count": 2208,
      "max": [
        1633
      ],
      "min": [
        0
      ],
      "type": "SCALAR"
    },
    {
      "bufferView": 2,
      "byteOffset": 207144,
      "componentType": 5126,
      "count": 168,
      "max": [
        0.069084644317626953,
        0.14725890755653381,
        0.27269643545150757
      ],
      "min": [
        -0.069084644317626953,
        -0.14861708879470825,
        -1.4187557697296143
      ],
      "type": "VEC3"
    },
    {
      "bufferView": 2,
      "byteOffset": 209160,
      "componentType": 5126,
      "count": 168,
      "max": [
        0.99980032444000244,
        1,
        1
      ],
      "min": [
        -0.99980032444000244,
        -1,
        -1
      ],
      "type": "VEC3"
    },
    {
      "bufferView": 1,
      "byteOffset": 69048,
      "componentType": 5126,
      "count": 168,
      "max": [
        0.91880691051483154,
        0.95780348777770996
      ],
      "min": [
        0.11788225919008255,
        0.0059996764175593853
      ],
      "type": "VEC2"
    },
    {
      "bufferView": 0,
      "byteOffset": 104940,
      "componentType": 5125,
      "count": 168,
      "max": [
        167
      ],
      "min": [
        0
      ],
      "type": "SCALAR"
    },
    {
      "bufferView": 2,
      "byteOffset": 211176,
      "componentType": 5126,
      "count": 443,
      "max": [
        3.8252921104431152,
        0.61839407682418823,
        3.0657250881195068
      ],
      "min": [
        -4.4131927490234375,
        -3.8899083137512207,
        -16.397182464599609
      ],
      "type": "VEC3"
    },
    {
      "bufferView": 2,
      "byteOffset": 216492,
      "componentType": 5126,
      "count": 443,
      "max": [
        0.9841468334197998,
        0.99991416931152344,
        0.99674797058105469
      ],
      "min": [
        -0.98876070976257324,
        -0.99999982118606567,
        -0.99985778331756592
      ],
      "type": "VEC3"
    },
    {
      "bufferView": 1,
      "byteOffset": 70392,
      "componentType": 5126,
      "count": 443,
      "max": [
        0.99208784103393555,
        0.99176377058029175
      ],
      "min": [
        0.081933178007602692,
        0.13832572102546692
      ],
      "type": "VEC2"
    },
    {
      "bufferView": 0,
      "byteOffset": 105612,
      "componentType": 5125,
      "count": 1416,
      "max": [
        442
      ],
      "min": [
        0
      ],
      "type": "SCALAR"
    },
    {
      "bufferView": 2,
      "byteOffset": 221808,
      "componentType": 5126,
      "count": 9164,
      "max": [
        2.461845874786377,
        -0.18956004083156586,
        1.4385960102081299
      ],
      "min": [
        -2.5331509113311768,
        -1.052358865737915,
        -1.7007670402526855
      ],
      "type": "VEC3"
    },
    {
      "bufferView": 2,
      "byteOffset": 331776,
      "componentType": 5126,
      "count": 9164,
      "max": [
        0.99992978572845459,
        0.99986529350280762,
        0.99999701976776123
      ],
      "min": [
        -0.99966573715209961,
        -0.99999332427978516,
        -0.99999713897705078
      ],
      "type": "VEC3"
    },
    {
      "bufferView": 1,
      "byteOffset": 73936,
      "componentType": 5126,
      "count": 9164,
      "max": [
        0.5953029990196228,
        0.66492563486099243
      ],
      "min": [
        0.0026696920394897461,
        0.00056857237359508872
      ],
      "type": "VEC2"
    },
    {
      "bufferView": 0,
      "byteOffset": 111276,
      "componentType": 5125,
      "count": 39264,
      "max": [
        9163
      ],
      "min": [
        0
      ],
      "type": "SCALAR"
    }
  ],
  "asset": {
    "extras": {
      "author": "aanilir (https://sketchfab.com/aanilir)",
      "license": "CC-BY-4.0 (http://creativecommons.org/licenses/by/4.0/)",
      "source": "https://sketchfab.com/3d-models/old-police-car-e6b12965f10145258fa1a38c9aa88791",
      "title": "old police car"
    },
    "generator": "Sketchfab-8.83.0",
    "version": "2.0"
  },
  "bufferViews": [
    {
      "buffer": 0,
      "byteLength": 268332,
      "byteOffset": 0,
      "name": "floatBufferViews",
      "target": 34963
    },
    {
      "buffer": 0,
      "byteLength": 147248,
      "byteOffset": 268332,
      "byteStride": 8,
      "name": "floatBufferViews",
      "target": 34962
    },
    {
      "buffer": 0,
      "byteLength": 441744,
      "byteOffset": 415580,
      "byteStride": 12,
      "name": "floatBufferViews",
      "target": 34962
    }
  ],
  "buffers": [
    {
      "byteLength": 857324,
      "uri": "scene.bin"
    }
  ],
  "images": [
    {
      "uri": "textures/Material_baseColor.jpeg"
    }
  ],
  "materials": [
    {
      "doubleSided": true,
      "emissiveFactor": [
        0,
        0,
        0
      ],
      "name": "Material",
      "pbrMetallicRoughness": {
        "baseColorFactor": [
          1,
          1,
          1,
          1
        ],
        "baseColorTexture": {
          "index": 0,
          "texCoord": 0
        },
        "metallicFactor": 0,
        "roughnessFactor": 0.47283481320525794
      }
    }
  ],
  "meshes": [
    {
      "primitives": [
        {
          "attributes": {
            "NORMAL": 1,
            "POSITION": 0,
            "TEXCOORD_0": 2
          },
          "indices": 3,
          "material": 0,
          "mode": 4
        }
      ]
    },
    {
      "primitives": [
        {
          "attributes": {
            "NORMAL": 5,
            "POSITION": 4,
            "TEXCOORD_0": 6
          },
          "indices": 7,
          "material": 0,
          "mode": 4
        }
      ]
    },
    {
      "primitives": [
        {
          "attributes": {
            "NORMAL": 9,
            "POSITION": 8,
            "TEXCOORD_0": 10
          },
          "indices": 11,
          "material": 0,
          "mode": 4
        }
      ]
    },
    {
      "primitives": [
        {
          "attributes": {
            "NORMAL": 13,
            "POSITION": 12,
            "TEXCOORD_0": 14
          },
          "indices": 15,
          "material": 0,
          "mode": 4
        }
      ]
    },
    {
      "primitives": [
        {
          "attributes": {
            "NORMAL": 17,
            "POSITION": 16,
            "TEXCOORD_0": 18
          },
          "indices": 19,
          "material": 0,
          "mode": 4
        }
      ]
    },
    {
      "primitives": [
        {
          "attributes": {
            "NORMAL": 21,
            "POSITION": 20,
            "TEXCOORD_0": 22
          },
          "indices": 23,
          "material": 0,
          "mode": 4
        }
      ]
    },
    {
      "primitives": [
        {
          "attributes": {
            "NORMAL": 25,
            "POSITION": 24,
            "TEXCOORD_0": 26
          },
          "indices": 27,
          "material": 0,
          "mode": 4
        }
      ]
    }
  ],
  "nodes": [
    {
      "children": [
        1
      ],
      "name": "RootNode (gltf orientation matrix)",
      "rotation": [
        -0.70710678118654746,
        -0,
        -0,
        0.70710678118654757
      ]
    },
    {
      "children": [
        2
      ],
      "name": "RootNode (model correction matrix)"
    },
    {
      "children": [
        3
      ],
      "name": "root"
    },
    {
      "children": [
        4,
        6,
        8,
        10,
        12,
        14,
        16
      ],
      "matrix": [
        1,
        0,
        0,
        0,
        0,
        2.2204460492503131e-16,
        1,
        0,
        0,
        -1,
        2.2204460492503131e-16,
        0,
        0,
        0,
        0,
        1
      ],
      "name": "GLTF_SceneRootNode"
    },
    {
      "children": [
        5
      ],
      "name": "Cube.006_15"
    },
    {
      "mesh": 0,
      "name": ""
    },
    {
      "children": [
        7
      ],
      "matrix": [
        1,
        0,
        0,
        0,
        0,
        1,
        0,
        0,
        0,
        0,
        1,
        0,
        3.0383815765380859,
        -0.59595775604248047,
        0.016543744131922722,
        1
      ],
      "name": "Cube.007_16"
    },
    {
      "mesh": 1,
      "name": ""
    },
    {
      "children": [
        9
      ],
      "matrix": [
        1,
        0,
        0,
        0,
        0,
        1,
        0,
        0,
        0,
        0,
        1,
        0,
        0.0078217023983597755,
        0,
        0,
        1
      ],
      "name": "Cube.008_17"
    },
    {
      "mesh": 2,
      "name": ""
    },
    {
      "children": [
        11
      ],
      "matrix": [
        0.99897000281248383,
        0.045375472238051266,
        0,
        0,
        -0.045375472238051266,
        0.99897000281248383,
        0,
        0,
        0,
        0,
        1,
        0,
        -0.11470553278923035,
        1.872315526008606,
        0.5599706768989563,
        1
      ],
      "name": "Cube.009_18"
    },
    {
      "mesh": 3,
      "name": ""
    },
    {
      "children": [
        13
      ],
      "matrix": [
        0.99897000281248383,
        0.045375472238051266,
        0,
        0,
        -0.045375472238051266,
        0.99897000281248383,
        0,
        0,
        0,
        0,
        1,
        0,
        -0.12092718482017517,
        1.9377775192260742,
        0.57302963733673096,
        1
      ],
      "name": "Cube.010_19"
    },
    {
      "mesh": 4,
      "name": ""
    },
    {
      "children": [
        15
      ],
      "matrix": [
        -0.0020613752520766237,
        -0.085485699060863965,
        0.0085781904009799657,
        0,
        0.17580670557887959,
        1.7181665952394426e-08,
        0.04224726240335587,
        0,
        -0.039032806153793821,
        0.017240520320007287,
        0.16243014038778414,
        0,
        1.0570299625396729,
        0.53262192010879517,
        1.1884642839431763,
        1
      ],
      "name": "Plane.001_20"
    },
    {
      "mesh": 5,
      "name": ""
    },
    {
      "children": [
        17
      ],
      "matrix": [
        1,
        0,
        0,
        0,
        0,
        1,
        0,
        0,
        0,
        0,
        1,
        0,
        0,
        0,
        0.12721210718154907,
        1
      ],
      "name": "Cube.011_21"
    },
    {
      "mesh": 6,
      "name": ""
    }
  ],
  "samplers": [
    {
      "magFilter": 9729,
      "minFilter": 9987,
      "wrapS": 10497,
      "wrapT": 10497
    }
  ],
  "scene": 0,
  "scenes": [
    {
      "name": "OSG_Scene",
      "nodes": [
        0
      ]
    }
  ],
  "textures": [
    {
      "sampler": 0,
      "source": 0
    }
  ]
}

