{
  "accessors": [
    {
      "bufferView": 2,
      "componentType": 5126,
      "count": 152,
      "max": [
        30.430221557617188,
        18.976228713989258,
        24.012151718139648
      ],
      "min": [
        -24.261665344238281,
        -6.0648212432861328,
        -12.593960762023926
      ],
      "type": "VEC3"
    },
    {
      "bufferView": 2,
      "byteOffset": 1824,
      "componentType": 5126,
      "count": 152,
      "max": [
        0.62458235025405884,
        1,
        0.93098652362823486
      ],
      "min": [
        -0.62458229064941406,
        -1,
        -0.93098676204681396
      ],
      "type": "VEC3"
    },
    {
      "bufferView": 3,
      "componentType": 5126,
      "count": 152,
      "max": [
        0.93102824687957764,
        0.99937719106674194,
        0.62450963258743286,
        1
      ],
      "min": [
        -0.93095827102661133,
        -0.98858368396759033,
        -0.6246379017829895,
        1
      ],
      "type": "VEC4"
    },
    {
      "bufferView": 1,
      "componentType": 5126,
      "count": 152,
      "max": [
        0.99580073356628418,
        0.99799996614456177
      ],
      "min": [
        0.0020000000949949026,
        0.0020000000949949026
      ],
      "type": "VEC2"
    },
    {
      "bufferView": 0,
      "componentType": 5125,
      "count": 336,
      "max": [
        151
      ],
      "min": [
        0
      ],
      "type": "SCALAR"
    }
  ],
  "asset": {
    "extras": {
      "author": "dapenha (https://sketchfab.com/dapenha)",
      "license": "CC-BY-4.0 (http://creativecommons.org/licenses/by/4.0/)",
      "source": "https://sketchfab.com/models/a9cb42717d294858a4691508df43d174",
      "title": "Tree Trunk Bench"
    },
    "generator": "Sketchfab-3.19.6",
    "version": "2.0"
  },
  "bufferViews": [
    {
      "buffer": 0,
      "byteLength": 1344,
      "byteOffset": 0,
      "name": "floatBufferViews",
      "target": 34963
    },
    {
      "buffer": 0,
      "byteLength": 1216,
      "byteOffset": 1344,
      "byteStride": 8,
      "name": "floatBufferViews",
      "target": 34962
    },
    {
      "buffer": 0,
      "byteLength": 3648,
      "byteOffset": 2560,
      "byteStride": 12,
      "name": "floatBufferViews",
      "target": 34962
    },
    {
      "buffer": 0,
      "byteLength": 2432,
      "byteOffset": 6208,
      "byteStride": 16,
      "name": "floatBufferViews",
      "target": 34962
    }
  ],
  "buffers": [
    {
      "byteLength": 8640,
      "uri": "scene.bin"
    }
  ],
  "images": [
    {
      "uri": "textures/banco_metallicRoughness.png"
    },
    {
      "uri": "textures/banco_baseColor.jpg"
    }
  ],
  "materials": [
    {
      "doubleSided": true,
      "emissiveFactor": [
        0,
        0,
        0
      ],
      "name": "banco",
      "occlusionTexture": {
        "index": 0,
        "strength": 1,
        "texCoord": 0
      },
      "pbrMetallicRoughness": {
        "baseColorFactor": [
          1,
          1,
          1,
          1
        ],
        "baseColorTexture": {
          "index": 1,
          "texCoord": 0
        },
        "metallicFactor": 0,
        "roughnessFactor": 0.80316310980000005
      }
    }
  ],
  "meshes": [
    {
      "name": "fogueira002_banco_0",
      "primitives": [
        {
          "attributes": {
            "NORMAL": 1,
            "POSITION": 0,
            "TANGENT": 2,
            "TEXCOORD_0": 3
          },
          "indices": 4,
          "material": 0,
          "mode": 4
        }
      ]
    }
  ],
  "nodes": [
    {
      "children": [
        1
      ],
      "name": "RootNode (gltf orientation matrix)",
      "rotation": [
        -0.70710678118654746,
        -0,
        -0,
        0.70710678118654757
      ]
    },
    {
      "children": [
        2
      ],
      "name": "RootNode (model correction matrix)"
    },
    {
      "children": [
        3
      ],
      "matrix": [
        1,
        0,
        0,
        0,
        0,
        0,
        1,
        0,
        0,
        -1,
        0,
        0,
        0,
        0,
        0,
        1
      ],
      "name": "24a26507ad51421e85df715b0be6dd55.fbx"
    },
    {
      "children": [
        4
      ],
      "name": "RootNode"
    },
    {
      "children": [
        5
      ],
      "matrix": [
        -0.55047002515910792,
        -6.741313330985296e-17,
        0.38544324990707141,
        0,
        -1.6848259004004828e-08,
        0.671999812126159,
        -2.4061808099522095e-08,
        0,
        -0.68829160071875894,
        -5.2453655706420965e-08,
        -0.9829823063597688,
        0,
        31.306766510009766,
        5.5460348129272461,
        -40.526130676269531,
        1
      ],
      "name": "fogueira002"
    },
    {
      "children": [
        6
      ],
      "matrix": [
        1,
        0,
        -0,
        0,
        0,
        1,
        0,
        0,
        0,
        0,
        1,
        0,
        -2.6548585891723633,
        -2.1136589050292969,
        -5.8168482780456543,
        1
      ],
      "name": ""
    },
    {
      "mesh": 0,
      "name": "fogueira002_banco_0"
    }
  ],
  "samplers": [
    {
      "magFilter": 9729,
      "minFilter": 9987,
      "wrapS": 10497,
      "wrapT": 10497
    }
  ],
  "scene": 0,
  "scenes": [
    {
      "name": "OSG_Scene",
      "nodes": [
        0
      ]
    }
  ],
  "textures": [
    {
      "sampler": 0,
      "source": 0
    },
    {
      "sampler": 0,
      "source": 1
    }
  ]
}

