{
  "accessors": [
    {
      "bufferView": 2,
      "componentType": 5126,
      "count": 2028,
      "max": [
        3.3040199279785156,
        0.90881997346878052,
        2.4478600025177002
      ],
      "min": [
        -1.450469970703125,
        -1.0911799669265747,
        0
      ],
      "type": "VEC3"
    },
    {
      "bufferView": 2,
      "byteOffset": 24336,
      "componentType": 5126,
      "count": 2028,
      "max": [
        1,
        1,
        1
      ],
      "min": [
        -1,
        -1,
        -1
      ],
      "type": "VEC3"
    },
    {
      "bufferView": 3,
      "componentType": 5126,
      "count": 2028,
      "max": [
        1,
        1,
        7.5590549386106431e-05,
        1
      ],
      "min": [
        0,
        0,
        -6.2112158047966659e-05,
        -1
      ],
      "type": "VEC4"
    },
    {
      "bufferView": 1,
      "componentType": 5126,
      "count": 2028,
      "max": [
        3.5647799968719482,
        3.7128300666809082
      ],
      "min": [
        -2.768779993057251,
        -2.7681601047515869
      ],
      "type": "VEC2"
    },
    {
      "bufferView": 0,
      "componentType": 5125,
      "count": 4527,
      "max": [
        2027
      ],
      "min": [
        0
      ],
      "type": "SCALAR"
    },
    {
      "bufferView": 2,
      "byteOffset": 48672,
      "componentType": 5126,
      "count": 2732,
      "max": [
        1.2297400236129761,
        0.89977002143859863,
        2.0364999771118164
      ],
      "min": [
        -1.4318200349807739,
        -1.0791699886322021,
        0.084059998393058777
      ],
      "type": "VEC3"
    },
    {
      "bufferView": 2,
      "byteOffset": 81456,
      "componentType": 5126,
      "count": 2732,
      "max": [
        1,
        1,
        1
      ],
      "min": [
        -1,
        -1,
        -1
      ],
      "type": "VEC3"
    },
    {
      "bufferView": 3,
      "byteOffset": 32448,
      "componentType": 5126,
      "count": 2732,
      "max": [
        1,
        1,
        0.00042350433068349957,
        1
      ],
      "min": [
        -1,
        -1,
        -0.12222037464380264,
        -1
      ],
      "type": "VEC4"
    },
    {
      "bufferView": 1,
      "byteOffset": 16224,
      "componentType": 5126,
      "count": 2732,
      "max": [
        4.3834400177001953,
        5.3508901596069336
      ],
      "min": [
        -3.3927600383758545,
        -4.3797402381896973
      ],
      "type": "VEC2"
    },
    {
      "bufferView": 0,
      "byteOffset": 18108,
      "componentType": 5125,
      "count": 4758,
      "max": [
        2731
      ],
      "min": [
        0
      ],
      "type": "SCALAR"
    },
    {
      "bufferView": 2,
      "byteOffset": 114240,
      "componentType": 5126,
      "count": 78,
      "max": [
        1.3302500247955322,
        0.0093999998643994331,
        0.17539000511169434
      ],
      "min": [
        0.549530029296875,
        -0.81603002548217773,
        0
      ],
      "type": "VEC3"
    },
    {
      "bufferView": 2,
      "byteOffset": 115176,
      "componentType": 5126,
      "count": 78,
      "max": [
        1,
        0.70710676908493042,
        1
      ],
      "min": [
        0,
        -1,
        -1
      ],
      "type": "VEC3"
    },
    {
      "bufferView": 3,
      "byteOffset": 76160,
      "componentType": 5126,
      "count": 78,
      "max": [
        1,
        1,
        0,
        1
      ],
      "min": [
        0,
        0,
        0,
        -1
      ],
      "type": "VEC4"
    },
    {
      "bufferView": 1,
      "byteOffset": 38080,
      "componentType": 5126,
      "count": 78,
      "max": [
        2.3713600635528564,
        1.1693700551986694
      ],
      "min": [
        -1.8578699827194214,
        -0.48149999976158142
      ],
      "type": "VEC2"
    },
    {
      "bufferView": 0,
      "byteOffset": 37140,
      "componentType": 5125,
      "count": 168,
      "max": [
        77
      ],
      "min": [
        0
      ],
      "type": "SCALAR"
    },
    {
      "bufferView": 2,
      "byteOffset": 116112,
      "componentType": 5126,
      "count": 472,
      "max": [
        3.3436799049377441,
        0.92932999134063721,
        2.4919600486755371
      ],
      "min": [
        -1.5118600130081177,
        -1.1116900444030762,
        0.71650999784469604
      ],
      "type": "VEC3"
    },
    {
      "bufferView": 2,
      "byteOffset": 121776,
      "componentType": 5126,
      "count": 472,
      "max": [
        1,
        1,
        1
      ],
      "min": [
        -1,
        -1,
        -1
      ],
      "type": "VEC3"
    },
    {
      "bufferView": 3,
      "byteOffset": 77408,
      "componentType": 5126,
      "count": 472,
      "max": [
        1,
        1,
        0.085210271179676056,
        1
      ],
      "min": [
        -0.048320092260837555,
        -0.00012977166625205427,
        -0.12222036719322205,
        -1
      ],
      "type": "VEC4"
    },
    {
      "bufferView": 1,
      "byteOffset": 38704,
      "componentType": 5126,
      "count": 472,
      "max": [
        3.9991800785064697,
        2.6520800590515137
      ],
      "min": [
        -2.8183000087738037,
        -1.7534600496292114
      ],
      "type": "VEC2"
    },
    {
      "bufferView": 0,
      "byteOffset": 37812,
      "componentType": 5125,
      "count": 1167,
      "max": [
        471
      ],
      "min": [
        0
      ],
      "type": "SCALAR"
    },
    {
      "bufferView": 2,
      "byteOffset": 127440,
      "componentType": 5126,
      "count": 36,
      "max": [
        3.2289199829101562,
        0.49107998609542847,
        1.1943199634552002
      ],
      "min": [
        1.4621599912643433,
        0.021600000560283661,
        0.40623998641967773
      ],
      "type": "VEC3"
    },
    {
      "bufferView": 2,
      "byteOffset": 127872,
      "componentType": 5126,
      "count": 36,
      "max": [
        -0,
        1,
        0
      ],
      "min": [
        -0,
        -1,
        0
      ],
      "type": "VEC3"
    },
    {
      "bufferView": 3,
      "byteOffset": 84960,
      "componentType": 5126,
      "count": 36,
      "max": [
        1,
        0,
        0,
        1
      ],
      "min": [
        -1,
        0,
        0,
        1
      ],
      "type": "VEC4"
    },
    {
      "bufferView": 1,
      "byteOffset": 42480,
      "componentType": 5126,
      "count": 36,
      "max": [
        4.5,
        4.5
      ],
      "min": [
        -3.5,
        -3.5
      ],
      "type": "VEC2"
    },
    {
      "bufferView": 0,
      "byteOffset": 42480,
      "componentType": 5125,
      "count": 72,
      "max": [
        35
      ],
      "min": [
        0
      ],
      "type": "SCALAR"
    },
    {
      "bufferView": 2,
      "byteOffset": 128304,
      "componentType": 5126,
      "count": 260,
      "max": [
        0.48616001009941101,
        0.89437001943588257,
        2.0135700702667236
      ],
      "min": [
        -1.4187799692153931,
        -1.0664700269699097,
        0.28360998630523682
      ],
      "type": "VEC3"
    },
    {
      "bufferView": 2,
      "byteOffset": 131424,
      "componentType": 5126,
      "count": 260,
      "max": [
        1,
        1,
        0
      ],
      "min": [
        -1,
        -1,
        0
      ],
      "type": "VEC3"
    },
    {
      "bufferView": 3,
      "byteOffset": 85536,
      "componentType": 5126,
      "count": 260,
      "max": [
        0,
        0,
        0,
        1
      ],
      "min": [
        0,
        0,
        0,
        1
      ],
      "type": "VEC4"
    },
    {
      "bufferView": 1,
      "byteOffset": 42768,
      "componentType": 5126,
      "count": 260,
      "max": [
        0,
        0
      ],
      "min": [
        0,
        0
      ],
      "type": "VEC2"
    },
    {
      "bufferView": 0,
      "byteOffset": 42768,
      "componentType": 5125,
      "count": 390,
      "max": [
        259
      ],
      "min": [
        0
      ],
      "type": "SCALAR"
    },
    {
      "bufferView": 2,
      "byteOffset": 134544,
      "componentType": 5126,
      "count": 209,
      "max": [
        0.034510001540184021,
        0,
        0.26197999715805054
      ],
      "min": [
        -0.0099999997764825821,
        -0.092909999191761017,
        -0.26197999715805054
      ],
      "type": "VEC3"
    },
    {
      "bufferView": 2,
      "byteOffset": 137052,
      "componentType": 5126,
      "count": 209,
      "max": [
        1,
        1,
        1
      ],
      "min": [
        -1,
        -1,
        -1
      ],
      "type": "VEC3"
    },
    {
      "bufferView": 3,
      "byteOffset": 89696,
      "componentType": 5126,
      "count": 209,
      "max": [
        2.0000001313746907e-05,
        1,
        1,
        1
      ],
      "min": [
        0,
        -1,
        -1,
        1
      ],
      "type": "VEC4"
    },
    {
      "bufferView": 1,
      "byteOffset": 44848,
      "componentType": 5126,
      "count": 209,
      "max": [
        2.5,
        2.5
      ],
      "min": [
        -1.5,
        -1.5
      ],
      "type": "VEC2"
    },
    {
      "bufferView": 0,
      "byteOffset": 44328,
      "componentType": 5125,
      "count": 762,
      "max": [
        208
      ],
      "min": [
        0
      ],
      "type": "SCALAR"
    },
    {
      "bufferView": 2,
      "byteOffset": 139560,
      "componentType": 5126,
      "count": 4,
      "max": [
        -0.004999999888241291,
        -0.01396000012755394,
        0.22226999700069427
      ],
      "min": [
        -0.004999999888241291,
        -0.078950002789497375,
        0.098020002245903015
      ],
      "type": "VEC3"
    },
    {
      "bufferView": 2,
      "byteOffset": 139608,
      "componentType": 5126,
      "count": 4,
      "max": [
        1,
        0,
        0
      ],
      "min": [
        1,
        0,
        0
      ],
      "type": "VEC3"
    },
    {
      "bufferView": 3,
      "byteOffset": 93040,
      "componentType": 5126,
      "count": 4,
      "max": [
        0,
        0,
        0,
        1
      ],
      "min": [
        0,
        0,
        0,
        1
      ],
      "type": "VEC4"
    },
    {
      "bufferView": 1,
      "byteOffset": 46520,
      "componentType": 5126,
      "count": 4,
      "max": [
        0,
        0
      ],
      "min": [
        0,
        0
      ],
      "type": "VEC2"
    },
    {
      "bufferView": 0,
      "byteOffset": 47376,
      "componentType": 5125,
      "count": 6,
      "max": [
        3
      ],
      "min": [
        0
      ],
      "type": "SCALAR"
    }
  ],
  "asset": {
    "extras": {
      "author": "rhcreations (https://sketchfab.com/rhcreations)",
      "license": "CC-BY-4.0 (http://creativecommons.org/licenses/by/4.0/)",
      "source": "https://sketchfab.com/3d-models/factory-building-1-e580846ba00e49a98c478dd19af62393",
      "title": "Factory Building 1"
    },
    "generator": "Sketchfab-7.27.0",
    "version": "2.0"
  },
  "bufferViews": [
    {
      "buffer": 0,
      "byteLength": 47400,
      "byteOffset": 0,
      "name": "floatBufferViews",
      "target": 34963
    },
    {
      "buffer": 0,
      "byteLength": 46552,
      "byteOffset": 47400,
      "byteStride": 8,
      "name": "floatBufferViews",
      "target": 34962
    },
    {
      "buffer": 0,
      "byteLength": 139656,
      "byteOffset": 93952,
      "byteStride": 12,
      "name": "floatBufferViews",
      "target": 34962
    },
    {
      "buffer": 0,
      "byteLength": 93104,
      "byteOffset": 233608,
      "byteStride": 16,
      "name": "floatBufferViews",
      "target": 34962
    }
  ],
  "buffers": [
    {
      "byteLength": 326712,
      "uri": "scene.bin"
    }
  ],
  "extensionsRequired": [
    "KHR_materials_pbrSpecularGlossiness"
  ],
  "extensionsUsed": [
    "KHR_materials_pbrSpecularGlossiness"
  ],
  "images": [
    {
      "uri": "textures/Brick_Material_diffuse.jpeg"
    },
    {
      "uri": "textures/Window_Frame_Material_diffuse.jpeg"
    },
    {
      "uri": "textures/Concrete_Material_diffuse.jpeg"
    },
    {
      "uri": "textures/Roof_Material_diffuse.jpeg"
    },
    {
      "uri": "textures/Metal_Material_diffuse.jpeg"
    },
    {
      "uri": "textures/Metal_Material_specularGlossiness.png"
    },
    {
      "uri": "textures/Door_Wood_Material_diffuse.jpeg"
    }
  ],
  "materials": [
    {
      "doubleSided": true,
      "extensions": {
        "KHR_materials_pbrSpecularGlossiness": {
          "diffuseFactor": [
            1,
            1,
            1,
            1
          ],
          "diffuseTexture": {
            "index": 0,
            "texCoord": 0
          },
          "glossinessFactor": 1,
          "specularFactor": [
            0.3980564024390244,
            0.3980564024390244,
            0.3980564024390244
          ],
          "specularGlossinessTexture": {
            "index": 0,
            "texCoord": 0
          }
        }
      },
      "name": "Brick_Material"
    },
    {
      "doubleSided": true,
      "extensions": {
        "KHR_materials_pbrSpecularGlossiness": {
          "diffuseFactor": [
            1,
            1,
            1,
            1
          ],
          "diffuseTexture": {
            "index": 1,
            "texCoord": 0
          },
          "glossinessFactor": 1,
          "specularFactor": [
            0.58098323170731703,
            0.58098323170731703,
            0.58098323170731703
          ],
          "specularGlossinessTexture": {
            "index": 1,
            "texCoord": 0
          }
        }
      },
      "name": "Window_Frame_Material"
    },
    {
      "doubleSided": true,
      "extensions": {
        "KHR_materials_pbrSpecularGlossiness": {
          "diffuseFactor": [
            1,
            1,
            1,
            1
          ],
          "diffuseTexture": {
            "index": 2,
            "texCoord": 0
          },
          "glossinessFactor": 1,
          "specularFactor": [
            0,
            0,
            0
          ]
        }
      },
      "name": "Concrete_Material"
    },
    {
      "doubleSided": true,
      "extensions": {
        "KHR_materials_pbrSpecularGlossiness": {
          "diffuseFactor": [
            1,
            1,
            1,
            1
          ],
          "diffuseTexture": {
            "index": 3,
            "texCoord": 0
          },
          "glossinessFactor": 1,
          "specularFactor": [
            0,
            0,
            0
          ]
        }
      },
      "name": "Roof_Material"
    },
    {
      "doubleSided": true,
      "extensions": {
        "KHR_materials_pbrSpecularGlossiness": {
          "diffuseFactor": [
            0.83708079268292679,
            0.83708079268292679,
            0.83708079268292679,
            1
          ],
          "diffuseTexture": {
            "index": 4,
            "texCoord": 0
          },
          "glossinessFactor": 1,
          "specularFactor": [
            1,
            1,
            1
          ],
          "specularGlossinessTexture": {
            "index": 5,
            "texCoord": 0
          }
        }
      },
      "name": "Metal_Material"
    },
    {
      "doubleSided": true,
      "extensions": {
        "KHR_materials_pbrSpecularGlossiness": {
          "diffuseFactor": [
            0,
            0,
            0,
            1
          ],
          "glossinessFactor": 0.40000000000000002,
          "specularFactor": [
            0.071498477348603623,
            0.071498477348603623,
            0.071498477348603623
          ]
        }
      },
      "name": "Glass_Material"
    },
    {
      "doubleSided": true,
      "extensions": {
        "KHR_materials_pbrSpecularGlossiness": {
          "diffuseFactor": [
            1,
            1,
            1,
            1
          ],
          "diffuseTexture": {
            "index": 6,
            "texCoord": 0
          },
          "glossinessFactor": 1,
          "specularFactor": [
            0.6480564024390244,
            0.6480564024390244,
            0.6480564024390244
          ],
          "specularGlossinessTexture": {
            "index": 6,
            "texCoord": 0
          }
        }
      },
      "name": "Door_Wood_Material"
    }
  ],
  "meshes": [
    {
      "name": "Factory Building 1_0",
      "primitives": [
        {
          "attributes": {
            "NORMAL": 1,
            "POSITION": 0,
            "TANGENT": 2,
            "TEXCOORD_0": 3
          },
          "indices": 4,
          "material": 0,
          "mode": 4
        }
      ]
    },
    {
      "name": "Factory Building 1_1",
      "primitives": [
        {
          "attributes": {
            "NORMAL": 6,
            "POSITION": 5,
            "TANGENT": 7,
            "TEXCOORD_0": 8
          },
          "indices": 9,
          "material": 1,
          "mode": 4
        }
      ]
    },
    {
      "name": "Factory Building 1_2",
      "primitives": [
        {
          "attributes": {
            "NORMAL": 11,
            "POSITION": 10,
            "TANGENT": 12,
            "TEXCOORD_0": 13
          },
          "indices": 14,
          "material": 2,
          "mode": 4
        }
      ]
    },
    {
      "name": "Factory Building 1_3",
      "primitives": [
        {
          "attributes": {
            "NORMAL": 16,
            "POSITION": 15,
            "TANGENT": 17,
            "TEXCOORD_0": 18
          },
          "indices": 19,
          "material": 3,
          "mode": 4
        }
      ]
    },
    {
      "name": "Factory Building 1_4",
      "primitives": [
        {
          "attributes": {
            "NORMAL": 21,
            "POSITION": 20,
            "TANGENT": 22,
            "TEXCOORD_0": 23
          },
          "indices": 24,
          "material": 4,
          "mode": 4
        }
      ]
    },
    {
      "name": "Factory Building 1_5",
      "primitives": [
        {
          "attributes": {
            "NORMAL": 26,
            "POSITION": 25,
            "TANGENT": 27,
            "TEXCOORD_0": 28
          },
          "indices": 29,
          "material": 5,
          "mode": 4
        }
      ]
    },
    {
      "name": "Door_0",
      "primitives": [
        {
          "attributes": {
            "NORMAL": 31,
            "POSITION": 30,
            "TANGENT": 32,
            "TEXCOORD_0": 33
          },
          "indices": 34,
          "material": 6,
          "mode": 4
        }
      ]
    },
    {
      "name": "Door_1",
      "primitives": [
        {
          "attributes": {
            "NORMAL": 36,
            "POSITION": 35,
            "TANGENT": 37,
            "TEXCOORD_0": 38
          },
          "indices": 39,
          "material": 5,
          "mode": 4
        }
      ]
    }
  ],
  "nodes": [
    {
      "children": [
        1
      ],
      "name": "RootNode (gltf orientation matrix)",
      "rotation": [
        -0.70710678118654746,
        -0,
        -0,
        0.70710678118654757
      ]
    },
    {
      "children": [
        2
      ],
      "name": "RootNode (model correction matrix)"
    },
    {
      "children": [
        3
      ],
      "name": "Root"
    },
    {
      "children": [
        4,
        5,
        6,
        7,
        8,
        9,
        10
      ],
      "matrix": [
        2.3172699999999997,
        0,
        0,
        0,
        0,
        5.4842400000000007,
        0,
        0,
        0,
        0,
        2.3172699999999997,
        0,
        0,
        0,
        0,
        1
      ],
      "name": "Factory Building 1"
    },
    {
      "mesh": 0,
      "name": "Factory Building 1_0"
    },
    {
      "mesh": 1,
      "name": "Factory Building 1_1"
    },
    {
      "mesh": 2,
      "name": "Factory Building 1_2"
    },
    {
      "mesh": 3,
      "name": "Factory Building 1_3"
    },
    {
      "mesh": 4,
      "name": "Factory Building 1_4"
    },
    {
      "mesh": 5,
      "name": "Factory Building 1_5"
    },
    {
      "children": [
        11,
        12
      ],
      "matrix": [
        1,
        0,
        0,
        0,
        0,
        1,
        0,
        0,
        0,
        0,
        1,
        0,
        0.54952999999999996,
        -0.081720000000000029,
        0.43737000000000009,
        1
      ],
      "name": "Door"
    },
    {
      "mesh": 6,
      "name": "Door_0"
    },
    {
      "mesh": 7,
      "name": "Door_1"
    }
  ],
  "samplers": [
    {
      "magFilter": 9729,
      "minFilter": 9987,
      "wrapS": 10497,
      "wrapT": 10497
    }
  ],
  "scene": 0,
  "scenes": [
    {
      "name": "OSG_Scene",
      "nodes": [
        0
      ]
    }
  ],
  "textures": [
    {
      "sampler": 0,
      "source": 0
    },
    {
      "sampler": 0,
      "source": 1
    },
    {
      "sampler": 0,
      "source": 2
    },
    {
      "sampler": 0,
      "source": 3
    },
    {
      "sampler": 0,
      "source": 4
    },
    {
      "sampler": 0,
      "source": 5
    },
    {
      "sampler": 0,
      "source": 6
    }
  ]
}

