{
  "accessors": [
    {
      "bufferView": 2,
      "componentType": 5126,
      "count": 10846,
      "max": [
        181.9046630859375,
        1,
        43.860015869140625
      ],
      "min": [
        -119.0059814453125,
        -25.142311096191406,
        -130.1494140625
      ],
      "type": "VEC3"
    },
    {
      "bufferView": 2,
      "byteOffset": 130152,
      "componentType": 5126,
      "count": 10846,
      "max": [
        1,
        1,
        1
      ],
      "min": [
        -1,
        -1,
        -1
      ],
      "type": "VEC3"
    },
    {
      "bufferView": 3,
      "componentType": 5126,
      "count": 10846,
      "max": [
        1,
        0.99151349067687988,
        1,
        1
      ],
      "min": [
        -0.99728494882583618,
        -0.99546259641647339,
        -0.99978727102279663,
        -1
      ],
      "type": "VEC4"
    },
    {
      "bufferView": 1,
      "componentType": 5126,
      "count": 10846,
      "max": [
        1,
        1
      ],
      "min": [
        0,
        0
      ],
      "type": "VEC2"
    },
    {
      "bufferView": 0,
      "componentType": 5125,
      "count": 20268,
      "max": [
        10845
      ],
      "min": [
        0
      ],
      "type": "SCALAR"
    },
    {
      "bufferView": 2,
      "byteOffset": 260304,
      "componentType": 5126,
      "count": 4992,
      "max": [
        130.90167236328125,
        -6.1423091888427734,
        5.0225372314453125
      ],
      "min": [
        -65.328964233398438,
        -17.142326354980469,
        -121.666015625
      ],
      "type": "VEC3"
    },
    {
      "bufferView": 2,
      "byteOffset": 320208,
      "componentType": 5126,
      "count": 4992,
      "max": [
        0.99518477916717529,
        1,
        0.9951859712600708
      ],
      "min": [
        -0.99518531560897827,
        -1,
        -0.99861949682235718
      ],
      "type": "VEC3"
    },
    {
      "bufferView": 3,
      "byteOffset": 173536,
      "componentType": 5126,
      "count": 4992,
      "max": [
        1,
        0.99149119853973389,
        0.99518543481826782,
        1
      ],
      "min": [
        -0.9951852560043335,
        -0.99148643016815186,
        -0.9951859712600708,
        -1
      ],
      "type": "VEC4"
    },
    {
      "bufferView": 1,
      "byteOffset": 86768,
      "componentType": 5126,
      "count": 4992,
      "max": [
        1,
        1
      ],
      "min": [
        0,
        0.01000000536441803
      ],
      "type": "VEC2"
    },
    {
      "bufferView": 0,
      "byteOffset": 81072,
      "componentType": 5125,
      "count": 8664,
      "max": [
        4991
      ],
      "min": [
        0
      ],
      "type": "SCALAR"
    },
    {
      "bufferView": 2,
      "byteOffset": 380112,
      "componentType": 5126,
      "count": 2897,
      "max": [
        104.44015502929688,
        17.988409042358398,
        2.129364013671875
      ],
      "min": [
        -30.208709716796875,
        -42.011505126953125,
        -125.25315093994141
      ],
      "type": "VEC3"
    },
    {
      "bufferView": 2,
      "byteOffset": 414876,
      "componentType": 5126,
      "count": 2897,
      "max": [
        1,
        1,
        1
      ],
      "min": [
        -1,
        -1,
        -1
      ],
      "type": "VEC3"
    },
    {
      "bufferView": 3,
      "byteOffset": 253408,
      "componentType": 5126,
      "count": 2897,
      "max": [
        1,
        0.69988912343978882,
        0.99894684553146362,
        1
      ],
      "min": [
        -1,
        -0.99981492757797241,
        -1,
        -1
      ],
      "type": "VEC4"
    },
    {
      "bufferView": 1,
      "byteOffset": 126704,
      "componentType": 5126,
      "count": 2897,
      "max": [
        1,
        1
      ],
      "min": [
        0,
        0
      ],
      "type": "VEC2"
    },
    {
      "bufferView": 0,
      "byteOffset": 115728,
      "componentType": 5125,
      "count": 4998,
      "max": [
        2896
      ],
      "min": [
        0
      ],
      "type": "SCALAR"
    },
    {
      "bufferView": 2,
      "byteOffset": 449640,
      "componentType": 5126,
      "count": 1152,
      "max": [
        1.0800000429153442,
        0.080000028014183044,
        1.0800001621246338
      ],
      "min": [
        -4.3884344100952148,
        -0.080000028014183044,
        -1.0800000429153442
      ],
      "type": "VEC3"
    },
    {
      "bufferView": 2,
      "byteOffset": 463464,
      "componentType": 5126,
      "count": 1152,
      "max": [
        1,
        0.99994552135467529,
        1
      ],
      "min": [
        -1,
        -0.99994552135467529,
        -1
      ],
      "type": "VEC3"
    },
    {
      "bufferView": 0,
      "byteOffset": 135720,
      "componentType": 5125,
      "count": 6912,
      "max": [
        1151
      ],
      "min": [
        0
      ],
      "type": "SCALAR"
    }
  ],
  "asset": {
    "extras": {
      "author": "shieldups12 (https://sketchfab.com/shieldups12)",
      "license": "CC-BY-4.0 (http://creativecommons.org/licenses/by/4.0/)",
      "source": "https://sketchfab.com/3d-models/low-poly-bycicle-a6b576910b0c40b2ba38e400d1067f7b",
      "title": "Low Poly Bycicle"
    },
    "generator": "Sketchfab-6.66.0",
    "version": "2.0"
  },
  "bufferViews": [
    {
      "buffer": 0,
      "byteLength": 163368,
      "byteOffset": 0,
      "name": "floatBufferViews",
      "target": 34963
    },
    {
      "buffer": 0,
      "byteLength": 149880,
      "byteOffset": 163368,
      "byteStride": 8,
      "name": "floatBufferViews",
      "target": 34962
    },
    {
      "buffer": 0,
      "byteLength": 477288,
      "byteOffset": 313248,
      "byteStride": 12,
      "name": "floatBufferViews",
      "target": 34962
    },
    {
      "buffer": 0,
      "byteLength": 299760,
      "byteOffset": 790536,
      "byteStride": 16,
      "name": "floatBufferViews",
      "target": 34962
    }
  ],
  "buffers": [
    {
      "byteLength": 1090296,
      "uri": "scene.bin"
    }
  ],
  "materials": [
    {
      "doubleSided": true,
      "emissiveFactor": [
        0,
        0,
        0
      ],
      "name": "Material.008",
      "pbrMetallicRoughness": {
        "baseColorFactor": [
          0.083990499999999996,
          0.083990499999999996,
          0.083990499999999996,
          1
        ],
        "metallicFactor": 0,
        "roughnessFactor": 0.5
      }
    },
    {
      "doubleSided": true,
      "emissiveFactor": [
        0,
        0,
        0
      ],
      "name": "Material.006",
      "pbrMetallicRoughness": {
        "baseColorFactor": [
          0.80000000000000004,
          0.079634499999999997,
          0.0638098,
          1
        ],
        "metallicFactor": 0,
        "roughnessFactor": 0.5
      }
    },
    {
      "doubleSided": true,
      "emissiveFactor": [
        0,
        0,
        0
      ],
      "name": "Material.001",
      "pbrMetallicRoughness": {
        "baseColorFactor": [
          0.0037691199999999999,
          0.0037691199999999999,
          0.0037691199999999999,
          1
        ],
        "metallicFactor": 0,
        "roughnessFactor": 0.5
      }
    }
  ],
  "meshes": [
    {
      "primitives": [
        {
          "attributes": {
            "NORMAL": 1,
            "POSITION": 0,
            "TANGENT": 2,
            "TEXCOORD_0": 3
          },
          "indices": 4,
          "material": 0,
          "mode": 4
        }
      ]
    },
    {
      "primitives": [
        {
          "attributes": {
            "NORMAL": 6,
            "POSITION": 5,
            "TANGENT": 7,
            "TEXCOORD_0": 8
          },
          "indices": 9,
          "material": 1,
          "mode": 4
        }
      ]
    },
    {
      "primitives": [
        {
          "attributes": {
            "NORMAL": 11,
            "POSITION": 10,
            "TANGENT": 12,
            "TEXCOORD_0": 13
          },
          "indices": 14,
          "material": 2,
          "mode": 4
        }
      ]
    },
    {
      "primitives": [
        {
          "attributes": {
            "NORMAL": 16,
            "POSITION": 15
          },
          "indices": 17,
          "material": 2,
          "mode": 4
        }
      ]
    }
  ],
  "nodes": [
    {
      "children": [
        1
      ],
      "name": "RootNode (gltf orientation matrix)",
      "rotation": [
        -0.70710678118654746,
        -0,
        -0,
        0.70710678118654757
      ]
    },
    {
      "children": [
        2
      ],
      "name": "RootNode (model correction matrix)"
    },
    {
      "children": [
        3
      ],
      "name": "root"
    },
    {
      "children": [
        4,
        8
      ],
      "matrix": [
        1,
        0,
        0,
        0,
        0,
        2.2204460492503131e-16,
        1,
        0,
        0,
        -1,
        2.2204460492503131e-16,
        0,
        0,
        0,
        0,
        1
      ],
      "name": "GLTF_SceneRootNode"
    },
    {
      "children": [
        5,
        6,
        7
      ],
      "matrix": [
        0.015000000596046448,
        0,
        0,
        0,
        0,
        0,
        0.019999999552965164,
        0,
        0,
        -0.015000000596046448,
        0,
        0,
        -0.48295098543167114,
        0.93938183784484863,
        0.23284620046615601,
        1
      ],
      "name": "Cylinder.021_4"
    },
    {
      "mesh": 0,
      "name": ""
    },
    {
      "mesh": 1,
      "name": ""
    },
    {
      "mesh": 2,
      "name": ""
    },
    {
      "children": [
        9
      ],
      "matrix": [
        0.87283438444137573,
        0,
        0,
        0,
        0,
        0,
        0.87283438444137573,
        0,
        0,
        -0.87283438444137573,
        0,
        0,
        1.435632586479187,
        1.0969542264938354,
        0,
        1
      ],
      "name": "BezierCircle.001_5"
    },
    {
      "mesh": 3,
      "name": ""
    }
  ],
  "scene": 0,
  "scenes": [
    {
      "name": "OSG_Scene",
      "nodes": [
        0
      ]
    }
  ]
}

