{
  "accessors": [
    {
      "bufferView": 2,
      "componentType": 5126,
      "count": 4596,
      "max": [
        2.2314872741699219,
        0.88405948877334595,
        0.095317304134368896
      ],
      "min": [
        -2.0979528427124023,
        -0.42477694153785706,
        -1.6336628198623657
      ],
      "type": "VEC3"
    },
    {
      "bufferView": 2,
      "byteOffset": 55152,
      "componentType": 5126,
      "count": 4596,
      "max": [
        1,
        1,
        1
      ],
      "min": [
        -1,
        -1,
        -1
      ],
      "type": "VEC3"
    },
    {
      "bufferView": 3,
      "componentType": 5126,
      "count": 4596,
      "max": [
        1,
        1,
        1,
        1
      ],
      "min": [
        -1,
        -1,
        -1,
        1
      ],
      "type": "VEC4"
    },
    {
      "bufferView": 1,
      "componentType": 5126,
      "count": 4596,
      "max": [
        0.95094919204711914,
        0.99950003623962402
      ],
      "min": [
        0.00050000002374872565,
        0.00050000002374872565
      ],
      "type": "VEC2"
    },
    {
      "bufferView": 0,
      "componentType": 5125,
      "count": 10050,
      "max": [
        4595
      ],
      "min": [
        0
      ],
      "type": "SCALAR"
    },
    {
      "bufferView": 2,
      "byteOffset": 110304,
      "componentType": 5126,
      "count": 368,
      "max": [
        0.30107516050338745,
        0.29650115966796875,
        0.11639255285263062
      ],
      "min": [
        -0.30107516050338745,
        -0.29650118947029114,
        -0.051471997052431107
      ],
      "type": "VEC3"
    },
    {
      "bufferView": 2,
      "byteOffset": 114720,
      "componentType": 5126,
      "count": 368,
      "max": [
        0.98752677440643311,
        0.97252404689788818,
        1
      ],
      "min": [
        -0.98789268732070923,
        -0.97252410650253296,
        -1
      ],
      "type": "VEC3"
    },
    {
      "bufferView": 3,
      "byteOffset": 73536,
      "componentType": 5126,
      "count": 368,
      "max": [
        0.98853766918182373,
        0.99995970726013184,
        0.71493828296661377,
        1
      ],
      "min": [
        -0.98853939771652222,
        -1,
        -0.7149391770362854,
        1
      ],
      "type": "VEC4"
    },
    {
      "bufferView": 1,
      "byteOffset": 36768,
      "componentType": 5126,
      "count": 368,
      "max": [
        0.99950003623962402,
        0.77917224168777466
      ],
      "min": [
        0.00050000002374872565,
        0.00050000002374872565
      ],
      "type": "VEC2"
    },
    {
      "bufferView": 0,
      "byteOffset": 40200,
      "componentType": 5125,
      "count": 1068,
      "max": [
        367
      ],
      "min": [
        0
      ],
      "type": "SCALAR"
    },
    {
      "bufferView": 2,
      "byteOffset": 119136,
      "componentType": 5126,
      "count": 368,
      "max": [
        0.30107516050338745,
        0.29650115966796875,
        0.11639255285263062
      ],
      "min": [
        -0.30107516050338745,
        -0.29650118947029114,
        -0.051471997052431107
      ],
      "type": "VEC3"
    },
    {
      "bufferView": 2,
      "byteOffset": 123552,
      "componentType": 5126,
      "count": 368,
      "max": [
        0.98752677440643311,
        0.97252404689788818,
        1
      ],
      "min": [
        -0.98789268732070923,
        -0.97252410650253296,
        -1
      ],
      "type": "VEC3"
    },
    {
      "bufferView": 3,
      "byteOffset": 79424,
      "componentType": 5126,
      "count": 368,
      "max": [
        0.98853766918182373,
        0.99995970726013184,
        0.71493828296661377,
        1
      ],
      "min": [
        -0.98853939771652222,
        -1,
        -0.7149391770362854,
        1
      ],
      "type": "VEC4"
    },
    {
      "bufferView": 1,
      "byteOffset": 39712,
      "componentType": 5126,
      "count": 368,
      "max": [
        0.99950003623962402,
        0.77917224168777466
      ],
      "min": [
        0.00050000002374872565,
        0.00050000002374872565
      ],
      "type": "VEC2"
    },
    {
      "bufferView": 0,
      "byteOffset": 44472,
      "componentType": 5125,
      "count": 1068,
      "max": [
        367
      ],
      "min": [
        0
      ],
      "type": "SCALAR"
    },
    {
      "bufferView": 2,
      "byteOffset": 127968,
      "componentType": 5126,
      "count": 368,
      "max": [
        0.30107516050338745,
        0.29650115966796875,
        0.11639255285263062
      ],
      "min": [
        -0.30107516050338745,
        -0.29650118947029114,
        -0.051471997052431107
      ],
      "type": "VEC3"
    },
    {
      "bufferView": 2,
      "byteOffset": 132384,
      "componentType": 5126,
      "count": 368,
      "max": [
        0.98752677440643311,
        0.97252404689788818,
        1
      ],
      "min": [
        -0.98789268732070923,
        -0.97252410650253296,
        -1
      ],
      "type": "VEC3"
    },
    {
      "bufferView": 3,
      "byteOffset": 85312,
      "componentType": 5126,
      "count": 368,
      "max": [
        0.98853766918182373,
        0.99995970726013184,
        0.71493828296661377,
        1
      ],
      "min": [
        -0.98853939771652222,
        -1,
        -0.7149391770362854,
        1
      ],
      "type": "VEC4"
    },
    {
      "bufferView": 1,
      "byteOffset": 42656,
      "componentType": 5126,
      "count": 368,
      "max": [
        0.99950003623962402,
        0.77917224168777466
      ],
      "min": [
        0.00050000002374872565,
        0.00050000002374872565
      ],
      "type": "VEC2"
    },
    {
      "bufferView": 0,
      "byteOffset": 48744,
      "componentType": 5125,
      "count": 1068,
      "max": [
        367
      ],
      "min": [
        0
      ],
      "type": "SCALAR"
    },
    {
      "bufferView": 2,
      "byteOffset": 136800,
      "componentType": 5126,
      "count": 368,
      "max": [
        0.30107516050338745,
        0.29650115966796875,
        0.11639255285263062
      ],
      "min": [
        -0.30107516050338745,
        -0.29650118947029114,
        -0.051471997052431107
      ],
      "type": "VEC3"
    },
    {
      "bufferView": 2,
      "byteOffset": 141216,
      "componentType": 5126,
      "count": 368,
      "max": [
        0.98752677440643311,
        0.97252404689788818,
        1
      ],
      "min": [
        -0.98789268732070923,
        -0.97252410650253296,
        -1
      ],
      "type": "VEC3"
    },
    {
      "bufferView": 3,
      "byteOffset": 91200,
      "componentType": 5126,
      "count": 368,
      "max": [
        0.98853766918182373,
        0.99995970726013184,
        0.71493828296661377,
        1
      ],
      "min": [
        -0.98853939771652222,
        -1,
        -0.7149391770362854,
        1
      ],
      "type": "VEC4"
    },
    {
      "bufferView": 1,
      "byteOffset": 45600,
      "componentType": 5126,
      "count": 368,
      "max": [
        0.99950003623962402,
        0.77917224168777466
      ],
      "min": [
        0.00050000002374872565,
        0.00050000002374872565
      ],
      "type": "VEC2"
    },
    {
      "bufferView": 0,
      "byteOffset": 53016,
      "componentType": 5125,
      "count": 1068,
      "max": [
        367
      ],
      "min": [
        0
      ],
      "type": "SCALAR"
    }
  ],
  "asset": {
    "extras": {
      "author": "scailman (https://sketchfab.com/scailman)",
      "license": "CC-BY-4.0 (http://creativecommons.org/licenses/by/4.0/)",
      "source": "https://sketchfab.com/3d-models/lowpoly-car-pack-94fcef58d8d04af2b6bf42f2949227eb",
      "title": "Lowpoly car pack"
    },
    "generator": "Sketchfab-4.78.0",
    "version": "2.0"
  },
  "bufferViews": [
    {
      "buffer": 0,
      "byteLength": 57288,
      "byteOffset": 0,
      "name": "floatBufferViews",
      "target": 34963
    },
    {
      "buffer": 0,
      "byteLength": 48544,
      "byteOffset": 57288,
      "byteStride": 8,
      "name": "floatBufferViews",
      "target": 34962
    },
    {
      "buffer": 0,
      "byteLength": 145632,
      "byteOffset": 105832,
      "byteStride": 12,
      "name": "floatBufferViews",
      "target": 34962
    },
    {
      "buffer": 0,
      "byteLength": 97088,
      "byteOffset": 251464,
      "byteStride": 16,
      "name": "floatBufferViews",
      "target": 34962
    }
  ],
  "buffers": [
    {
      "byteLength": 348552,
      "uri": "scene.bin"
    }
  ],
  "images": [
    {
      "uri": "textures/CarTex_1_baseColor.png"
    },
    {
      "uri": "textures/WheelTex_baseColor.png"
    }
  ],
  "materials": [
    {
      "doubleSided": true,
      "emissiveFactor": [
        0,
        0,
        0
      ],
      "name": "CarTex_1",
      "pbrMetallicRoughness": {
        "baseColorFactor": [
          1,
          1,
          1,
          1
        ],
        "baseColorTexture": {
          "index": 0,
          "texCoord": 0
        },
        "metallicFactor": 0,
        "roughnessFactor": 0.89297135959999996
      }
    },
    {
      "doubleSided": true,
      "emissiveFactor": [
        0,
        0,
        0
      ],
      "name": "WheelTex",
      "pbrMetallicRoughness": {
        "baseColorFactor": [
          1,
          1,
          1,
          1
        ],
        "baseColorTexture": {
          "index": 1,
          "texCoord": 0
        },
        "metallicFactor": 0,
        "roughnessFactor": 0.89297135959999996
      }
    }
  ],
  "meshes": [
    {
      "name": "Body_CarTex_1_0",
      "primitives": [
        {
          "attributes": {
            "NORMAL": 1,
            "POSITION": 0,
            "TANGENT": 2,
            "TEXCOORD_0": 3
          },
          "indices": 4,
          "material": 0,
          "mode": 4
        }
      ]
    },
    {
      "name": "FLWheel_WheelTex_0",
      "primitives": [
        {
          "attributes": {
            "NORMAL": 6,
            "POSITION": 5,
            "TANGENT": 7,
            "TEXCOORD_0": 8
          },
          "indices": 9,
          "material": 1,
          "mode": 4
        }
      ]
    },
    {
      "name": "RLWheel_WheelTex_0",
      "primitives": [
        {
          "attributes": {
            "NORMAL": 11,
            "POSITION": 10,
            "TANGENT": 12,
            "TEXCOORD_0": 13
          },
          "indices": 14,
          "material": 1,
          "mode": 4
        }
      ]
    },
    {
      "name": "FRWheel_WheelTex_0",
      "primitives": [
        {
          "attributes": {
            "NORMAL": 16,
            "POSITION": 15,
            "TANGENT": 17,
            "TEXCOORD_0": 18
          },
          "indices": 19,
          "material": 1,
          "mode": 4
        }
      ]
    },
    {
      "name": "RRWheel_WheelTex_0",
      "primitives": [
        {
          "attributes": {
            "NORMAL": 21,
            "POSITION": 20,
            "TANGENT": 22,
            "TEXCOORD_0": 23
          },
          "indices": 24,
          "material": 1,
          "mode": 4
        }
      ]
    }
  ],
  "nodes": [
    {
      "children": [
        1
      ],
      "name": "RootNode (gltf orientation matrix)",
      "rotation": [
        -0.70710678118654746,
        -0,
        -0,
        0.70710678118654757
      ]
    },
    {
      "children": [
        2
      ],
      "name": "RootNode (model correction matrix)"
    },
    {
      "children": [
        3
      ],
      "matrix": [
        1,
        0,
        0,
        0,
        0,
        0,
        1,
        0,
        0,
        -1,
        0,
        0,
        0,
        0,
        0,
        1
      ],
      "name": "Car01.FBX"
    },
    {
      "children": [
        4,
        7,
        10,
        13,
        16
      ],
      "name": "RootNode"
    },
    {
      "children": [
        5
      ],
      "matrix": [
        1,
        0,
        0,
        0,
        0,
        2.2204460492503131e-16,
        -1,
        0,
        0,
        1,
        2.2204460492503131e-16,
        0,
        -5.9604644775390625e-08,
        0.051711902022361755,
        -8.9406967163085938e-08,
        1
      ],
      "name": "Body"
    },
    {
      "children": [
        6
      ],
      "matrix": [
        -1.3315805442188116e-07,
        -0.99999999999999112,
        1.2246467991473532e-16,
        0,
        -6.1232323650208602e-17,
        1.2246468806831348e-16,
        1,
        0,
        -0.99999994039534634,
        1.3315804648504263e-07,
        -6.1232336307635789e-17,
        0,
        -0.7691727876663208,
        0.066767342388629913,
        -0.22964130342006683,
        1
      ],
      "name": ""
    },
    {
      "mesh": 0,
      "name": "Body_CarTex_1_0"
    },
    {
      "children": [
        8
      ],
      "matrix": [
        1,
        0,
        0,
        0,
        0,
        2.2204460492503131e-16,
        -1,
        0,
        0,
        1,
        2.2204460492503131e-16,
        0,
        -0.66593855619430542,
        -0.443215012550354,
        -1.3240567445755005,
        1
      ],
      "name": "FLWheel"
    },
    {
      "children": [
        9
      ],
      "matrix": [
        -1.3315810214249226e-07,
        -1.0000003576278593,
        -2.9802333393713158e-08,
        0,
        -3.9071867428456162e-15,
        -2.9802320959214878e-08,
        0.99999994039535478,
        0,
        -0.99999988079070157,
        1.33158038647784e-07,
        6.1232332657903894e-17,
        0,
        0.032460272312164307,
        0,
        2.9802322387695312e-08,
        1
      ],
      "name": ""
    },
    {
      "mesh": 1,
      "name": "FLWheel_WheelTex_0"
    },
    {
      "children": [
        11
      ],
      "matrix": [
        1,
        0,
        0,
        0,
        0,
        2.2204460492503131e-16,
        -1,
        0,
        0,
        1,
        2.2204460492503131e-16,
        0,
        -0.66593855619430542,
        -0.443215012550354,
        1.125,
        1
      ],
      "name": "RLWheel"
    },
    {
      "children": [
        12
      ],
      "matrix": [
        -1.3315810214249226e-07,
        -1.0000003576278593,
        -2.9802333393713158e-08,
        0,
        -3.9071867428456162e-15,
        -2.9802320959214878e-08,
        0.99999994039535478,
        0,
        -0.99999988079070157,
        1.33158038647784e-07,
        6.1232332657903894e-17,
        0,
        0.032460272312164307,
        0,
        2.9802322387695312e-08,
        1
      ],
      "name": ""
    },
    {
      "mesh": 2,
      "name": "RLWheel_WheelTex_0"
    },
    {
      "children": [
        14
      ],
      "matrix": [
        1,
        0,
        0,
        0,
        0,
        2.2204460492503131e-16,
        -1,
        0,
        0,
        1,
        2.2204460492503131e-16,
        0,
        0.66578954458236694,
        -0.443215012550354,
        -1.3240567445755005,
        1
      ],
      "name": "FRWheel"
    },
    {
      "children": [
        15
      ],
      "matrix": [
        -6.1232354556295144e-17,
        1.0000002384185791,
        1.2246470911259029e-16,
        0,
        6.123232900817206e-17,
        -1.224646580163441e-16,
        0.99999982118606567,
        0,
        0.9999997615814209,
        6.1232325358440189e-17,
        -6.1232325358440177e-17,
        0,
        -0.032460272312164307,
        -4.9331436713373478e-09,
        2.9802322387695312e-08,
        1
      ],
      "name": ""
    },
    {
      "mesh": 3,
      "name": "FRWheel_WheelTex_0"
    },
    {
      "children": [
        17
      ],
      "matrix": [
        1,
        0,
        0,
        0,
        0,
        2.2204460492503131e-16,
        -1,
        0,
        0,
        1,
        2.2204460492503131e-16,
        0,
        0.66578954458236694,
        -0.443215012550354,
        1.125,
        1
      ],
      "name": "RRWheel"
    },
    {
      "children": [
        18
      ],
      "matrix": [
        -6.1232354556295144e-17,
        1.0000002384185791,
        1.2246470911259029e-16,
        0,
        6.123232900817206e-17,
        -1.224646580163441e-16,
        0.99999982118606567,
        0,
        0.9999997615814209,
        6.1232325358440189e-17,
        -6.1232325358440177e-17,
        0,
        -0.032460272312164307,
        -4.9331436713373478e-09,
        2.9802322387695312e-08,
        1
      ],
      "name": ""
    },
    {
      "mesh": 4,
      "name": "RRWheel_WheelTex_0"
    }
  ],
  "samplers": [
    {
      "magFilter": 9729,
      "minFilter": 9987,
      "wrapS": 10497,
      "wrapT": 10497
    }
  ],
  "scene": 0,
  "scenes": [
    {
      "name": "OSG_Scene",
      "nodes": [
        0
      ]
    }
  ],
  "textures": [
    {
      "sampler": 0,
      "source": 0
    },
    {
      "sampler": 0,
      "source": 1
    }
  ]
}

