{
  "accessors": [
    {
      "bufferView": 2,
      "componentType": 5126,
      "count": 2272,
      "max": [
        763.40411376953125,
        1880.4195556640625,
        2377.218505859375
      ],
      "min": [
        -688.5157470703125,
        -17.233230590820312,
        1034.8309326171875
      ],
      "type": "VEC3"
    },
    {
      "bufferView": 2,
      "byteOffset": 27264,
      "componentType": 5126,
      "count": 2272,
      "max": [
        1,
        1,
        1
      ],
      "min": [
        -1,
        -1,
        -1
      ],
      "type": "VEC3"
    },
    {
      "bufferView": 3,
      "componentType": 5126,
      "count": 2272,
      "max": [
        1,
        1,
        1,
        1
      ],
      "min": [
        -1,
        -1,
        -1,
        -1
      ],
      "type": "VEC4"
    },
    {
      "bufferView": 1,
      "componentType": 5126,
      "count": 2272,
      "max": [
        0.99843108654022217,
        1.000462532043457
      ],
      "min": [
        0.0014972345670685172,
        0.0013770759105682373
      ],
      "type": "VEC2"
    },
    {
      "bufferView": 0,
      "componentType": 5125,
      "count": 3504,
      "max": [
        2271
      ],
      "min": [
        0
      ],
      "type": "SCALAR"
    },
    {
      "bufferView": 2,
      "byteOffset": 54528,
      "componentType": 5126,
      "count": 2980,
      "max": [
        746.452880859375,
        1851.3951416015625,
        1389.102783203125
      ],
      "min": [
        -24.421897888183594,
        331.80947875976562,
        1034.12744140625
      ],
      "type": "VEC3"
    },
    {
      "bufferView": 2,
      "byteOffset": 90288,
      "componentType": 5126,
      "count": 2980,
      "max": [
        1,
        1,
        1
      ],
      "min": [
        -1,
        -1,
        -1
      ],
      "type": "VEC3"
    },
    {
      "bufferView": 3,
      "byteOffset": 36352,
      "componentType": 5126,
      "count": 2980,
      "max": [
        1,
        1,
        1,
        1
      ],
      "min": [
        -1,
        -0.97871589660644531,
        -1,
        -1
      ],
      "type": "VEC4"
    },
    {
      "bufferView": 1,
      "byteOffset": 18176,
      "componentType": 5126,
      "count": 2980,
      "max": [
        0.96622490882873535,
        0.99817687273025513
      ],
      "min": [
        0.15586864948272705,
        0.54949837923049927
      ],
      "type": "VEC2"
    },
    {
      "bufferView": 0,
      "byteOffset": 14016,
      "componentType": 5125,
      "count": 8322,
      "max": [
        2979
      ],
      "min": [
        0
      ],
      "type": "SCALAR"
    }
  ],
  "asset": {
    "extras": {
      "author": "The Center for Digital Humanities UArizona (https://sketchfab.com/UofA-CDH)",
      "license": "CC-BY-4.0 (http://creativecommons.org/licenses/by/4.0/)",
      "source": "https://sketchfab.com/3d-models/harlem-apollo-theater-c6a0a21cbd414819800df43e14c564b8",
      "title": "Harlem Apollo Theater"
    },
    "generator": "Sketchfab-8.20.0",
    "version": "2.0"
  },
  "bufferViews": [
    {
      "buffer": 0,
      "byteLength": 47304,
      "byteOffset": 0,
      "name": "floatBufferViews",
      "target": 34963
    },
    {
      "buffer": 0,
      "byteLength": 42016,
      "byteOffset": 47304,
      "byteStride": 8,
      "name": "floatBufferViews",
      "target": 34962
    },
    {
      "buffer": 0,
      "byteLength": 126048,
      "byteOffset": 89320,
      "byteStride": 12,
      "name": "floatBufferViews",
      "target": 34962
    },
    {
      "buffer": 0,
      "byteLength": 84032,
      "byteOffset": 215368,
      "byteStride": 16,
      "name": "floatBufferViews",
      "target": 34962
    }
  ],
  "buffers": [
    {
      "byteLength": 299400,
      "uri": "scene.bin"
    }
  ],
  "images": [
    {
      "uri": "textures/Harlem_Apollo_Theatre_MAT_baseColor.png"
    },
    {
      "uri": "textures/Harlem_Apollo_Theatre_MAT_emissive.png"
    },
    {
      "uri": "textures/Harlem_Apollo_Theatre_MAT_normal.png"
    }
  ],
  "materials": [
    {
      "doubleSided": true,
      "emissiveFactor": [
        1,
        1,
        1
      ],
      "emissiveTexture": {
        "index": 1,
        "texCoord": 0
      },
      "name": "Harlem_Apollo_Theatre_MAT",
      "normalTexture": {
        "index": 2,
        "scale": 1,
        "texCoord": 0
      },
      "pbrMetallicRoughness": {
        "baseColorFactor": [
          1,
          1,
          1,
          1
        ],
        "baseColorTexture": {
          "index": 0,
          "texCoord": 0
        },
        "metallicFactor": 0,
        "roughnessFactor": 0.59999999999999998
      }
    },
    {
      "doubleSided": true,
      "emissiveFactor": [
        1,
        1,
        1
      ],
      "emissiveTexture": {
        "index": 0,
        "texCoord": 0
      },
      "name": "Apollo_Theatre_UNLIT1",
      "normalTexture": {
        "index": 2,
        "scale": 1,
        "texCoord": 0
      },
      "pbrMetallicRoughness": {
        "baseColorFactor": [
          1,
          1,
          1,
          1
        ],
        "baseColorTexture": {
          "index": 0,
          "texCoord": 0
        },
        "metallicFactor": 0,
        "roughnessFactor": 0.59999999999999998
      }
    }
  ],
  "meshes": [
    {
      "name": "polySurface938_Harlem_Apollo_Theatre_MAT_0",
      "primitives": [
        {
          "attributes": {
            "NORMAL": 1,
            "POSITION": 0,
            "TANGENT": 2,
            "TEXCOORD_0": 3
          },
          "indices": 4,
          "material": 0,
          "mode": 4
        }
      ]
    },
    {
      "name": "polySurface938_Apollo_Theatre_UNLIT1_0",
      "primitives": [
        {
          "attributes": {
            "NORMAL": 6,
            "POSITION": 5,
            "TANGENT": 7,
            "TEXCOORD_0": 8
          },
          "indices": 9,
          "material": 1,
          "mode": 4
        }
      ]
    }
  ],
  "nodes": [
    {
      "children": [
        1
      ],
      "name": "RootNode (gltf orientation matrix)",
      "rotation": [
        -0.70710678118654746,
        -0,
        -0,
        0.70710678118654757
      ]
    },
    {
      "children": [
        2
      ],
      "name": "RootNode (model correction matrix)"
    },
    {
      "children": [
        3
      ],
      "matrix": [
        1,
        0,
        0,
        0,
        0,
        0,
        1,
        0,
        0,
        -1,
        0,
        0,
        0,
        0,
        0,
        1
      ],
      "name": "bdaceb4c3ced4e8a9444b3e106c72d47.fbx"
    },
    {
      "children": [
        4
      ],
      "name": "RootNode"
    },
    {
      "children": [
        5,
        6
      ],
      "name": "polySurface938"
    },
    {
      "mesh": 0,
      "name": "polySurface938_Harlem_Apollo_Theatre_MAT_0"
    },
    {
      "mesh": 1,
      "name": "polySurface938_Apollo_Theatre_UNLIT1_0"
    }
  ],
  "samplers": [
    {
      "magFilter": 9729,
      "minFilter": 9987,
      "wrapS": 10497,
      "wrapT": 10497
    }
  ],
  "scene": 0,
  "scenes": [
    {
      "name": "OSG_Scene",
      "nodes": [
        0
      ]
    }
  ],
  "textures": [
    {
      "sampler": 0,
      "source": 0
    },
    {
      "sampler": 0,
      "source": 1
    },
    {
      "sampler": 0,
      "source": 2
    }
  ]
}

