{
  "accessors": [
    {
      "bufferView": 2,
      "componentType": 5126,
      "count": 136,
      "max": [
        0.6421961784362793,
        4.6983957290649414,
        24.337600708007812
      ],
      "min": [
        -11.130612373352051,
        -4.6983957290649414,
        -24.337600708007812
      ],
      "type": "VEC3"
    },
    {
      "bufferView": 2,
      "byteOffset": 1632,
      "componentType": 5126,
      "count": 136,
      "max": [
        1,
        1,
        1
      ],
      "min": [
        -1,
        -1,
        -1
      ],
      "type": "VEC3"
    },
    {
      "bufferView": 3,
      "componentType": 5126,
      "count": 136,
      "max": [
        1,
        0,
        1,
        1
      ],
      "min": [
        -1,
        0,
        -1,
        1
      ],
      "type": "VEC4"
    },
    {
      "bufferView": 1,
      "componentType": 5126,
      "count": 136,
      "max": [
        1,
        1
      ],
      "min": [
        0,
        0
      ],
      "type": "VEC2"
    },
    {
      "bufferView": 0,
      "componentType": 5125,
      "count": 372,
      "max": [
        135
      ],
      "min": [
        0
      ],
      "type": "SCALAR"
    },
    {
      "bufferView": 2,
      "byteOffset": 3264,
      "componentType": 5126,
      "count": 264,
      "max": [
        1.8152689933776855,
        100,
        80.227951049804688
      ],
      "min": [
        -1.8152689933776855,
        -100,
        -80.227951049804688
      ],
      "type": "VEC3"
    },
    {
      "bufferView": 2,
      "byteOffset": 6432,
      "componentType": 5126,
      "count": 264,
      "max": [
        0.99999994039535522,
        0.98773539066314697,
        0.99862438440322876
      ],
      "min": [
        -0.99999994039535522,
        -0.98773539066314697,
        -0.99862450361251831
      ],
      "type": "VEC3"
    },
    {
      "bufferView": 3,
      "byteOffset": 2176,
      "componentType": 5126,
      "count": 264,
      "max": [
        0.99881720542907715,
        0.1329374760389328,
        1,
        1
      ],
      "min": [
        -0.99881720542907715,
        -0.1270897388458252,
        -1,
        1
      ],
      "type": "VEC4"
    },
    {
      "bufferView": 1,
      "byteOffset": 1088,
      "componentType": 5126,
      "count": 264,
      "max": [
        0.83440583944320679,
        0.99368584156036377
      ],
      "min": [
        0.0059184962883591652,
        -0.00042128562927246094
      ],
      "type": "VEC2"
    },
    {
      "bufferView": 0,
      "byteOffset": 1488,
      "componentType": 5125,
      "count": 1356,
      "max": [
        263
      ],
      "min": [
        0
      ],
      "type": "SCALAR"
    },
    {
      "bufferView": 2,
      "byteOffset": 9600,
      "componentType": 5126,
      "count": 154,
      "max": [
        6.0235123634338379,
        217.22639465332031,
        6.0235123634338379
      ],
      "min": [
        -6.0235123634338379,
        -217.22639465332031,
        -6.0235123634338379
      ],
      "type": "VEC3"
    },
    {
      "bufferView": 2,
      "byteOffset": 11448,
      "componentType": 5126,
      "count": 154,
      "max": [
        1,
        1,
        1
      ],
      "min": [
        -1,
        -1,
        -1
      ],
      "type": "VEC3"
    },
    {
      "bufferView": 3,
      "byteOffset": 6400,
      "componentType": 5126,
      "count": 154,
      "max": [
        1,
        0,
        1,
        1
      ],
      "min": [
        -1,
        0,
        -1,
        1
      ],
      "type": "VEC4"
    },
    {
      "bufferView": 1,
      "byteOffset": 3200,
      "componentType": 5126,
      "count": 154,
      "max": [
        0.76822108030319214,
        1
      ],
      "min": [
        0.67089802026748657,
        0
      ],
      "type": "VEC2"
    },
    {
      "bufferView": 0,
      "byteOffset": 6912,
      "componentType": 5125,
      "count": 432,
      "max": [
        153
      ],
      "min": [
        0
      ],
      "type": "SCALAR"
    },
    {
      "bufferView": 2,
      "byteOffset": 13296,
      "componentType": 5126,
      "count": 87,
      "max": [
        100,
        43.315666198730469,
        100
      ],
      "min": [
        -100,
        -43.315666198730469,
        -100
      ],
      "type": "VEC3"
    },
    {
      "bufferView": 2,
      "byteOffset": 14340,
      "componentType": 5126,
      "count": 87,
      "max": [
        1,
        1,
        1
      ],
      "min": [
        -1,
        -1,
        -1
      ],
      "type": "VEC3"
    },
    {
      "bufferView": 3,
      "byteOffset": 8864,
      "componentType": 5126,
      "count": 87,
      "max": [
        1,
        0.29021367430686951,
        1,
        1
      ],
      "min": [
        -1,
        -0.92572474479675293,
        -1,
        1
      ],
      "type": "VEC4"
    },
    {
      "bufferView": 1,
      "byteOffset": 4432,
      "componentType": 5126,
      "count": 87,
      "max": [
        0.31992888450622559,
        0.99912232160568237
      ],
      "min": [
        -0.00087189674377441406,
        0.68700659275054932
      ],
      "type": "VEC2"
    },
    {
      "bufferView": 0,
      "byteOffset": 8640,
      "componentType": 5125,
      "count": 216,
      "max": [
        86
      ],
      "min": [
        0
      ],
      "type": "SCALAR"
    }
  ],
  "asset": {
    "extras": {
      "author": "syedraza (https://sketchfab.com/syedraza)",
      "license": "CC-BY-4.0 (http://creativecommons.org/licenses/by/4.0/)",
      "source": "https://sketchfab.com/3d-models/road-sign-e205fc3ff5d84b65a4fd89c68af6068e",
      "title": "Road Sign"
    },
    "generator": "Sketchfab-6.17.1",
    "version": "2.0"
  },
  "bufferViews": [
    {
      "buffer": 0,
      "byteLength": 9504,
      "byteOffset": 0,
      "name": "floatBufferViews",
      "target": 34963
    },
    {
      "buffer": 0,
      "byteLength": 5128,
      "byteOffset": 9504,
      "byteStride": 8,
      "name": "floatBufferViews",
      "target": 34962
    },
    {
      "buffer": 0,
      "byteLength": 15384,
      "byteOffset": 14632,
      "byteStride": 12,
      "name": "floatBufferViews",
      "target": 34962
    },
    {
      "buffer": 0,
      "byteLength": 10256,
      "byteOffset": 30016,
      "byteStride": 16,
      "name": "floatBufferViews",
      "target": 34962
    }
  ],
  "buffers": [
    {
      "byteLength": 40272,
      "uri": "scene.bin"
    }
  ],
  "images": [
    {
      "uri": "textures/material_baseColor.jpeg"
    }
  ],
  "materials": [
    {
      "doubleSided": true,
      "name": "Cube_2__0",
      "pbrMetallicRoughness": {
        "baseColorFactor": [
          1,
          1,
          1,
          1
        ],
        "metallicFactor": 0,
        "roughnessFactor": 0.59999999999999998
      }
    },
    {
      "doubleSided": true,
      "emissiveFactor": [
        0,
        0,
        0
      ],
      "name": "material",
      "pbrMetallicRoughness": {
        "baseColorFactor": [
          1,
          1,
          1,
          1
        ],
        "baseColorTexture": {
          "index": 0,
          "texCoord": 0
        },
        "metallicFactor": 0,
        "roughnessFactor": 0.59999999999999998
      }
    }
  ],
  "meshes": [
    {
      "name": "Cube_2__0",
      "primitives": [
        {
          "attributes": {
            "NORMAL": 1,
            "POSITION": 0,
            "TANGENT": 2,
            "TEXCOORD_0": 3
          },
          "indices": 4,
          "material": 0,
          "mode": 4
        }
      ]
    },
    {
      "name": "Cube_1_Mat_0",
      "primitives": [
        {
          "attributes": {
            "NORMAL": 6,
            "POSITION": 5,
            "TANGENT": 7,
            "TEXCOORD_0": 8
          },
          "indices": 9,
          "material": 1,
          "mode": 4
        }
      ]
    },
    {
      "name": "Cylinder_Mat_0",
      "primitives": [
        {
          "attributes": {
            "NORMAL": 11,
            "POSITION": 10,
            "TANGENT": 12,
            "TEXCOORD_0": 13
          },
          "indices": 14,
          "material": 1,
          "mode": 4
        }
      ]
    },
    {
      "name": "Cube_Mat_0",
      "primitives": [
        {
          "attributes": {
            "NORMAL": 16,
            "POSITION": 15,
            "TANGENT": 17,
            "TEXCOORD_0": 18
          },
          "indices": 19,
          "material": 1,
          "mode": 4
        }
      ]
    }
  ],
  "nodes": [
    {
      "children": [
        1
      ],
      "name": "RootNode (gltf orientation matrix)",
      "rotation": [
        -0.70710678118654746,
        -0,
        -0,
        0.70710678118654757
      ]
    },
    {
      "children": [
        2
      ],
      "name": "RootNode (model correction matrix)"
    },
    {
      "children": [
        3
      ],
      "matrix": [
        1,
        0,
        0,
        0,
        0,
        0,
        1,
        0,
        0,
        -1,
        0,
        0,
        0,
        0,
        0,
        1
      ],
      "name": "road sign.fbx"
    },
    {
      "children": [
        4,
        6
      ],
      "name": "RootNode"
    },
    {
      "children": [
        5
      ],
      "matrix": [
        -0.98985358684219826,
        -0.14206151568171116,
        0.0028986855382025713,
        0,
        -0.14206090656019515,
        0.98985783108596703,
        0.0004160109140012599,
        0,
        -0.0029283857208286094,
        -3.3610267347050637e-16,
        -0.99999571226934258,
        0,
        1154.0360107421875,
        472.98519897460938,
        -25.62969970703125,
        1
      ],
      "name": "CINEMA_4D_Editor"
    },
    {
      "name": ""
    },
    {
      "children": [
        7,
        9,
        11,
        13
      ],
      "matrix": [
        1,
        0,
        0,
        0,
        0,
        1,
        0,
        0,
        0,
        0,
        1,
        0,
        2.5503923892974854,
        329.36282348632812,
        0,
        1
      ],
      "name": "parking_board"
    },
    {
      "children": [
        8
      ],
      "matrix": [
        1,
        0,
        0,
        0,
        0,
        1,
        0,
        0,
        0,
        0,
        1,
        0,
        1.3690522909164429,
        157.37211608886719,
        0,
        1
      ],
      "name": "Cube_2"
    },
    {
      "mesh": 0,
      "name": "Cube_2__0"
    },
    {
      "children": [
        10
      ],
      "matrix": [
        1,
        0,
        0,
        0,
        0,
        1,
        0,
        0,
        0,
        0,
        1,
        0,
        3.7317326068878174,
        165.96809387207031,
        0,
        1
      ],
      "name": "Cube_1"
    },
    {
      "mesh": 1,
      "name": "Cube_1_Mat_0"
    },
    {
      "children": [
        12
      ],
      "matrix": [
        1,
        0,
        0,
        0,
        0,
        1,
        0,
        0,
        0,
        0,
        1,
        0,
        -2.5503923892974854,
        -37.769569396972656,
        0,
        1
      ],
      "name": "Cylinder"
    },
    {
      "mesh": 2,
      "name": "Cylinder_Mat_0"
    },
    {
      "children": [
        14
      ],
      "matrix": [
        1,
        0,
        0,
        0,
        0,
        1,
        0,
        0,
        0,
        0,
        1,
        0,
        -2.5503923892974854,
        -285.57064819335938,
        0,
        1
      ],
      "name": "Cube"
    },
    {
      "mesh": 3,
      "name": "Cube_Mat_0"
    }
  ],
  "samplers": [
    {
      "magFilter": 9729,
      "minFilter": 9987,
      "wrapS": 10497,
      "wrapT": 10497
    }
  ],
  "scene": 0,
  "scenes": [
    {
      "name": "OSG_Scene",
      "nodes": [
        0
      ]
    }
  ],
  "textures": [
    {
      "sampler": 0,
      "source": 0
    }
  ]
}

