{
  "accessors": [
    {
      "bufferView": 2,
      "componentType": 5126,
      "count": 5393,
      "max": [
        1640.0009765625,
        1640,
        3266.16650390625
      ],
      "min": [
        -1640.0003662109375,
        -1659.6748046875,
        -6.4000244140625
      ],
      "type": "VEC3"
    },
    {
      "bufferView": 2,
      "byteOffset": 64716,
      "componentType": 5126,
      "count": 5393,
      "max": [
        1,
        1,
        1
      ],
      "min": [
        -1,
        -1,
        -1
      ],
      "type": "VEC3"
    },
    {
      "bufferView": 1,
      "componentType": 5126,
      "count": 5393,
      "max": [
        0.99988472461700439,
        0.99969840049743652
      ],
      "min": [
        -1.2292892932891846,
        0.0002765439567156136
      ],
      "type": "VEC2"
    },
    {
      "bufferView": 1,
      "byteOffset": 43144,
      "componentType": 5126,
      "count": 5393,
      "max": [
        0.99648696184158325,
        0.99874061346054077
      ],
      "min": [
        0.0010000000474974513,
        0.0010000000474974513
      ],
      "type": "VEC2"
    },
    {
      "bufferView": 1,
      "byteOffset": 86288,
      "componentType": 5126,
      "count": 5393,
      "max": [
        0.99988472461700439,
        0.99969840049743652
      ],
      "min": [
        -1.2292892932891846,
        0.0002765439567156136
      ],
      "type": "VEC2"
    },
    {
      "bufferView": 1,
      "byteOffset": 129432,
      "componentType": 5126,
      "count": 5393,
      "max": [
        0.99988472461700439,
        0.99969840049743652
      ],
      "min": [
        -1.2292892932891846,
        0.0002765439567156136
      ],
      "type": "VEC2"
    },
    {
      "bufferView": 0,
      "componentType": 5125,
      "count": 7848,
      "max": [
        5392
      ],
      "min": [
        0
      ],
      "type": "SCALAR"
    }
  ],
  "asset": {
    "extras": {
      "author": "aitortilla01 (https://sketchfab.com/aitortilla01)",
      "license": "CC-BY-4.0 (http://creativecommons.org/licenses/by/4.0/)",
      "source": "https://sketchfab.com/3d-models/low-rise-wall-to-wall-office-building-2dd3bdd5e0724eb1b1025a922fa754cf",
      "title": "Low rise wall to wall office building"
    },
    "generator": "Sketchfab-8.76.0",
    "version": "2.0"
  },
  "bufferViews": [
    {
      "buffer": 0,
      "byteLength": 31392,
      "byteOffset": 0,
      "name": "floatBufferViews",
      "target": 34963
    },
    {
      "buffer": 0,
      "byteLength": 172576,
      "byteOffset": 31392,
      "byteStride": 8,
      "name": "floatBufferViews",
      "target": 34962
    },
    {
      "buffer": 0,
      "byteLength": 129432,
      "byteOffset": 203968,
      "byteStride": 12,
      "name": "floatBufferViews",
      "target": 34962
    }
  ],
  "buffers": [
    {
      "byteLength": 333400,
      "uri": "scene.bin"
    }
  ],
  "images": [
    {
      "uri": "textures/AIT01W2W8_baseColor.png"
    }
  ],
  "materials": [
    {
      "doubleSided": true,
      "name": "AIT01W2W8",
      "pbrMetallicRoughness": {
        "baseColorFactor": [
          1,
          1,
          1,
          1
        ],
        "baseColorTexture": {
          "index": 0,
          "texCoord": 0
        },
        "metallicFactor": 0,
        "roughnessFactor": 0.59999999999999998
      }
    }
  ],
  "meshes": [
    {
      "name": "AIT01W2W8_AIT01W2W8_0",
      "primitives": [
        {
          "attributes": {
            "NORMAL": 1,
            "POSITION": 0,
            "TEXCOORD_0": 2,
            "TEXCOORD_1": 3,
            "TEXCOORD_2": 4,
            "TEXCOORD_3": 5
          },
          "indices": 6,
          "material": 0,
          "mode": 4
        }
      ]
    }
  ],
  "nodes": [
    {
      "children": [
        1
      ],
      "name": "RootNode (gltf orientation matrix)",
      "rotation": [
        -0.70710678118654746,
        -0,
        -0,
        0.70710678118654757
      ]
    },
    {
      "children": [
        2
      ],
      "name": "RootNode (model correction matrix)"
    },
    {
      "children": [
        3
      ],
      "matrix": [
        1,
        0,
        0,
        0,
        0,
        0,
        1,
        0,
        0,
        -1,
        0,
        0,
        0,
        0,
        0,
        1
      ],
      "name": "AIT01W2W8.FBX"
    },
    {
      "children": [
        4
      ],
      "name": "RootNode"
    },
    {
      "children": [
        5
      ],
      "matrix": [
        1,
        0,
        0,
        0,
        0,
        2.2204460492503131e-16,
        -1,
        0,
        0,
        1,
        2.2204460492503131e-16,
        0,
        0,
        0,
        0,
        1
      ],
      "name": "AIT01W2W8"
    },
    {
      "mesh": 0,
      "name": "AIT01W2W8_AIT01W2W8_0"
    }
  ],
  "samplers": [
    {
      "magFilter": 9729,
      "minFilter": 9987,
      "wrapS": 10497,
      "wrapT": 10497
    }
  ],
  "scene": 0,
  "scenes": [
    {
      "name": "OSG_Scene",
      "nodes": [
        0
      ]
    }
  ],
  "textures": [
    {
      "sampler": 0,
      "source": 0
    }
  ]
}

